<svg id="img6" xmlns="http://www.w3.org/2000/svg" xmlns:xlink="http://www.w3.org/1999/xlink" width="400" height="360.214" viewBox="0 0 400 360.214">
  <defs>
    <clipPath id="clip-path">
      <rect id="Rectángulo_401898" data-name="Rectángulo 401898" width="400" height="360.215" fill="none"/>
    </clipPath>
    <clipPath id="clip-path-2">
      <rect id="Rectángulo_401897" data-name="Rectángulo 401897" width="400" height="360.214" fill="none"/>
    </clipPath>
    <clipPath id="clip-path-3">
      <rect id="Rectángulo_401893" data-name="Rectángulo 401893" width="128.534" height="128.535" fill="none"/>
    </clipPath>
    <clipPath id="clip-path-4">
      <rect id="Rectángulo_401895" data-name="Rectángulo 401895" width="53.451" height="14.824" fill="none"/>
    </clipPath>
    <clipPath id="clip-path-5">
      <rect id="Rectángulo_401896" data-name="Rectángulo 401896" width="60.737" height="60.736" fill="none"/>
    </clipPath>
  </defs>
  <g id="Grupo_1101072" data-name="Grupo 1101072" clip-path="url(#clip-path)">
    <g id="Grupo_1101071" data-name="Grupo 1101071" transform="translate(0 0.001)">
      <g id="Grupo_1101070" data-name="Grupo 1101070" clip-path="url(#clip-path-2)">
        <path id="Trazado_874182" data-name="Trazado 874182" d="M386.264,358.78c-25.169,0-365.453-.954-365.453-1.007-.14-.429-43.2-68.959,11.02-140.61,26.864-35.5-24.67-81.5,0-120.987C74.091,28.53,115.9,66.627,150.737,47.6c6.155-3.358,12.33-8.764,18.513-17.058a76.747,76.747,0,0,1,11.377-12.266q.939-.813,1.9-1.586a72.566,72.566,0,0,1,7.591-5.35q2.631-1.611,5.361-2.98h0a74.344,74.344,0,0,1,8.885-3.757,80.451,80.451,0,0,1,13.251-3.376q2.956-.5,5.959-.789c38.921-3.8,82.722,17.573,105.326,48.811,4.551,6.29,25.245,38.838,8.932,83.574-10.3,28.245,32.848,55.221,48.18,87.475,38.981,82,.607,137.411.254,138.48" transform="translate(-3.481 -0.003)" fill="#d4fefa"/>
        <g id="Grupo_1101063" data-name="Grupo 1101063" transform="translate(226.822 82.512)" opacity="0.8">
          <g id="Grupo_1101062" data-name="Grupo 1101062">
            <g id="Grupo_1101061" data-name="Grupo 1101061" clip-path="url(#clip-path-3)">
              <path id="Trazado_874183" data-name="Trazado 874183" d="M1153.015,460.321a64.686,64.686,0,0,1-4.93,10.522,64.268,64.268,0,0,1-119.568-28.1,63.134,63.134,0,0,1,.081-9.8,64.7,64.7,0,0,1,9.69-28.87c.026-.045.055-.086.082-.131A64.422,64.422,0,0,1,1075,376.585c1.569-.449,3.16-.84,4.762-1.167a63.9,63.9,0,0,1,34.824,2.569q2.3.837,4.5,1.83a63.815,63.815,0,0,1,26.043,21.5h0a64.5,64.5,0,0,1,10.276,23.316q.591,2.7.953,5.445a63.955,63.955,0,0,1-3.344,30.242" transform="translate(-1028.366 -374.102)" fill="#93fdf3"/>
              <path id="Trazado_874184" data-name="Trazado 874184" d="M1117.01,408.528c-3.8,2.94-2.79,10.809-9.362,6.373s-10.7-6.845-12.559-2.976,3.961,5.989,2.428,10.206-4.651,4.662-7.938,1.2-3.385-6.8-8.711-6.686-7.6-2.08-7.339-6.078a5.62,5.62,0,0,0-.175-1.854c.026-.045.055-.086.082-.131a64.42,64.42,0,0,1,36.627-27.354c1.568-.449,3.16-.839,4.762-1.167a8.451,8.451,0,0,1,4.9,5.356c2.318,6.756,6.078,5.166,2.885,10.825s-1.88,7.047,1.606,8.086,7.5,2.5,6.956,5.257-10.37-4-14.167-1.058" transform="translate(-1063.433 -378.746)" fill="#6cdfd4"/>
              <path id="Trazado_874185" data-name="Trazado 874185" d="M1433.464,639.87a64.67,64.67,0,0,1-4.93,10.522,63.894,63.894,0,0,1-17.951,19.7,7.333,7.333,0,0,1-4.781-1.885c-6.435-5.749,2.093-11.856,6.584-14.827s-3.848-3.956-8.051-9.747,5.639-13.636-.686-14.06-14.019-.833-15.307-7.61,5.366-5.381,4.2-11.09,4.339-6.777,10.226-5.149,6.612-2.711,13.909-.741,3.862,10.952,11.912,13.2,7.041,3.924,7.041,3.924a3.882,3.882,0,0,1,1.511.938,64.374,64.374,0,0,1-3.679,16.828" transform="translate(-1308.815 -553.65)" fill="#6cdfd4"/>
              <path id="Trazado_874186" data-name="Trazado 874186" d="M1492.313,520.611c-7.664.8-7.146-8.767-13.654-8.2-6.561.572-3.753-4.093-7-8.912s-14.2-2.206-11.976-7.082,8.341-1.06,11.207-4.564,8.926-.165,8.926-.165a4.626,4.626,0,0,1,1.265.16s0,0,0,0a64.491,64.491,0,0,1,10.276,23.316q.59,2.7.953,5.445" transform="translate(-1364.319 -464.634)" fill="#6cdfd4"/>
              <path id="Trazado_874187" data-name="Trazado 874187" d="M1336.014,419.245s5.2-3.685.311-7.108-5.485-1.485-9.538-3.467-6.9.679-5.029,5.393,1.941,12.484,6.128,9.879,4.638-5.568,8.129-4.7" transform="translate(-1256.589 -400.528)" fill="#6cdfd4"/>
            </g>
          </g>
        </g>
        <path id="Trazado_874188" data-name="Trazado 874188" d="M22.58,1537.788H44.989c1.2-1.019-.831-3.332-2.954-3.487a13.086,13.086,0,0,0-3.42.4c-.308-4.1-2.069-22.507-8.706-21.768-7.462.828,0,8.108,2.11,12.419a102.456,102.456,0,0,1,3.964,9.931c-.606.131-1.233.26-1.874.378-.989-3.037-4.669-13.252-9.349-12.657-5.495.7-3.286,4.793.609,7.224,2.857,1.788,6.366,4.329,8.033,5.557a23.822,23.822,0,0,1-4.383.351c-3.838-.091-5.712,1.04-6.438,1.649" transform="translate(-16.731 -1179.221)" fill="#a8d29f"/>
        <path id="Trazado_874189" data-name="Trazado 874189" d="M1568.69,1544.042h-20.814c-1.115-.946.772-3.095,2.744-3.239a12.161,12.161,0,0,1,3.177.376c.286-3.8,1.922-20.906,8.087-20.219,6.932.769,0,7.531-1.959,11.535a95.145,95.145,0,0,0-3.682,9.225c.563.122,1.146.241,1.74.351.919-2.821,4.337-12.309,8.684-11.756,5.1.647,3.053,4.452-.565,6.71-2.654,1.661-5.913,4.021-7.462,5.161a22.105,22.105,0,0,0,4.07.326c3.565-.085,5.306.966,5.98,1.531" transform="translate(-1206.21 -1185.475)" fill="#a8d29f"/>
        <path id="Trazado_874190" data-name="Trazado 874190" d="M802.941,993.35l-10.978,130.53s-1.15,7.913,4.736,7.927c9.677.023,48.166,0,48.166,0s-7.283-1.647-7.2-5.353c.1-4.368,12.831-134.339,12.831-134.339Z" transform="translate(-617.214 -773.291)" fill="#7599ea"/>
        <path id="Trazado_874191" data-name="Trazado 874191" d="M859.668,1121.122c-1.9.006-39.165.069-48.589-.052-4.107-.051-4.827-3.652-4.861-5.982a11.663,11.663,0,0,1,.125-1.943l.285-3.393.728-8.647.643-7.64.826-9.817.7-8.286,7.8-92.751,47.56-1.234s-5.36,54.392-9.152,93.985c-.424,4.411-.826,8.641-1.2,12.59q-.182,1.891-.35,3.693c-.352,3.746-.673,7.186-.953,10.223-.147,1.6-.284,3.089-.407,4.451-.484,5.339-.767,8.749-.771,9.4a5.49,5.49,0,0,0,.093,1.056c.781,4.16,6.812,4.348,7.526,4.348" transform="translate(-628.393 -764.921)" fill="#90aff4"/>
        <path id="Trazado_874192" data-name="Trazado 874192" d="M318.4,675.678l26.74,107.41L348.8,797.8l12.454,50.029H592.636l-45.9-172.149Z" transform="translate(-248.17 -526.649)" fill="#aec3ff"/>
        <path id="Trazado_874193" data-name="Trazado 874193" d="M305.3,675.677l-3.706,1.235,41.635,174.651,4.927-3.736Z" transform="translate(-235.073 -526.648)" fill="#90aff4"/>
        <path id="Trazado_874194" data-name="Trazado 874194" d="M490.362,1459.914H720.32l6.35-3.736H495.289Z" transform="translate(-382.205 -1134.998)" fill="#7599ea"/>
        <rect id="Rectángulo_401894" data-name="Rectángulo 401894" width="49.789" height="2.366" transform="translate(188.911 356.201)" fill="#aec3ff"/>
        <path id="Trazado_874195" data-name="Trazado 874195" d="M858.463,1473.112l-.257,1.809-46.825,9.46.643-7.64.306-3.629Z" transform="translate(-632.419 -1148.197)" fill="#5888dd"/>
        <g id="Grupo_1101066" data-name="Grupo 1101066" transform="translate(177.824 341.398)" opacity="0.4">
          <g id="Grupo_1101065" data-name="Grupo 1101065">
            <g id="Grupo_1101064" data-name="Grupo 1101064" clip-path="url(#clip-path-4)">
              <path id="Trazado_874196" data-name="Trazado 874196" d="M859.673,1562.647c-1.9.005-39.165.069-48.589-.052-4.107-.051-4.827-3.652-4.861-5.982l46.6-8.768c-.484,5.34-.767,8.749-.771,9.4a5.477,5.477,0,0,0,.093,1.057c.781,4.16,6.811,4.348,7.526,4.348" transform="translate(-806.222 -1547.845)" fill="#5888dd"/>
            </g>
          </g>
        </g>
        <path id="Trazado_874197" data-name="Trazado 874197" d="M318.4,675.677H546.729l37.048,138.354H352.839Z" transform="translate(-248.169 -526.648)" fill="#aec3ff"/>
        <path id="Trazado_874198" data-name="Trazado 874198" d="M606.428,834.227H392.638L385,803.794l-2.956-11.776-1.205-4.8-7.852-31.276-.407-1.628-4.151-16.532-1.857-7.4-1.584-6.31-3.713-14.792H571.982l4.078,14.792,1.739,6.31,2.039,7.4,13.434,48.732v0l1.139,4.129.529,1.917,9.276,33.644Z" transform="translate(-281.59 -552.839)" fill="#739af0"/>
        <path id="Trazado_874199" data-name="Trazado 874199" d="M576.064,724.071H364.992l-3.713-14.793H571.987Z" transform="translate(-281.594 -552.837)" fill="#607cf4"/>
        <path id="Trazado_874200" data-name="Trazado 874200" d="M400.6,733.053a1.4,1.4,0,0,1,1.388-1.849,2.526,2.526,0,0,1,2.31,1.849,1.4,1.4,0,0,1-1.388,1.849,2.526,2.526,0,0,1-2.31-1.849" transform="translate(-312.195 -569.927)" fill="#e9f3fe"/>
        <path id="Trazado_874201" data-name="Trazado 874201" d="M428.455,733.053a1.4,1.4,0,0,1,1.388-1.849,2.526,2.526,0,0,1,2.31,1.849,1.4,1.4,0,0,1-1.388,1.849,2.526,2.526,0,0,1-2.31-1.849" transform="translate(-333.909 -569.927)" fill="#e9f3fe"/>
        <path id="Trazado_874202" data-name="Trazado 874202" d="M458.452,733.053a1.4,1.4,0,0,1,1.388-1.849,2.526,2.526,0,0,1,2.31,1.849,1.4,1.4,0,0,1-1.388,1.849,2.526,2.526,0,0,1-2.31-1.849" transform="translate(-357.289 -569.927)" fill="#e9f3fe"/>
        <path id="Trazado_874203" data-name="Trazado 874203" d="M1116.71,97.551c8.641-10.146,21.966-30.525,30.937-40.962a3.309,3.309,0,0,0-2.521-5.463H1128.8l15.4-34.818a1.365,1.365,0,0,0-2.341-1.369L1104.627,64.77a2.06,2.06,0,0,0,1.9,3.278l18.481-2.276-10.995,30.2a1.586,1.586,0,0,0,2.695,1.575" transform="translate(-860.662 -11.209)" fill="#cbc4f8"/>
        <path id="Trazado_874204" data-name="Trazado 874204" d="M706.36,369.194c1.944-9.971,3.171-28.491,5.226-38.778a2.523,2.523,0,0,0-3.718-2.686l-10.842,6.106-2.8-28.885a1.04,1.04,0,0,0-2.067-.033l-6.089,47.023a1.571,1.571,0,0,0,2.49,1.465l11.423-8.424,3.995,24.173a1.209,1.209,0,0,0,2.379.038" transform="translate(-534.739 -236.958)" fill="#aec3ff"/>
        <path id="Trazado_874205" data-name="Trazado 874205" d="M787.313,590.8,601.547,606.446a18.6,18.6,0,0,1-18.538-26.115l78.7-176.137a18.6,18.6,0,0,1,32.446-2.734L801.221,561.946A18.6,18.6,0,0,1,787.313,590.8" transform="translate(-453.135 -306.462)" fill="#e6efff"/>
        <path id="Trazado_874206" data-name="Trazado 874206" d="M762.965,572.891,577.2,588.542a25.646,25.646,0,0,1-25.569-36.019l78.7-176.137a25.647,25.647,0,0,1,44.75-3.77L782.147,533.1a25.646,25.646,0,0,1-19.181,39.788M652.779,375.347a11.4,11.4,0,0,0-9.57,6.794l-78.7,176.137a11.543,11.543,0,0,0,11.508,16.211l185.766-15.651a11.543,11.543,0,0,0,8.634-17.909L663.351,380.443a11.4,11.4,0,0,0-10.572-5.1" transform="translate(-428.196 -281.532)" fill="#231291"/>
        <path id="Trazado_874207" data-name="Trazado 874207" d="M964.8,723.963a16.993,16.993,0,0,1,.723-6.746,15.576,15.576,0,0,1,3.179-5.583,16.7,16.7,0,0,1,5.337-3.957,20.815,20.815,0,0,1,7.309-1.876,21.29,21.29,0,0,1,7.575.622,16.6,16.6,0,0,1,5.98,3,15.591,15.591,0,0,1,4.068,4.973,17.02,17.02,0,0,1,1.841,6.53,16.618,16.618,0,0,1-.727,6.692,15.693,15.693,0,0,1-3.183,5.529,16.55,16.55,0,0,1-5.393,3.962,21.292,21.292,0,0,1-7.365,1.881,20.814,20.814,0,0,1-7.52-.627,16.64,16.64,0,0,1-5.924-3.008,15.665,15.665,0,0,1-4.064-4.918,16.591,16.591,0,0,1-1.837-6.476m28.72-33.606-26.758,2.254L955.273,601.5l34.34-2.893Z" transform="translate(-744.574 -466.577)" fill="#b6adf0"/>
        <path id="Trazado_874208" data-name="Trazado 874208" d="M475.494,1025.714s.583-1.31.96-1.931,1.989-2.438,2.263-2.026,1.372,3.181.789,3.957.038,2.125-2.861,2.942Z" transform="translate(-370.617 -796.348)" fill="#ffb27d"/>
        <path id="Trazado_874209" data-name="Trazado 874209" d="M329.421,1002.405s14.841,12.389,20.628,11.242c4.525-.9,11.679-3.166,11.679-3.166s1.888,1.8,1.354,3.949c0,0-9.114,8.576-15.608,8.631-10.15.087-14.937-5.03-14.937-5.03Z" transform="translate(-256.762 -781.311)" fill="#52af62"/>
        <path id="Trazado_874210" data-name="Trazado 874210" d="M211.413,1586.949s.431,6.95,1.776,7.05c.179.013,6.82.013,6.82.013l8.477-.049a2.751,2.751,0,0,0-2.533-2.474c-2.478-.432-6.626-2.173-8.127-5.449-1.579-3.445-6.412.909-6.412.909" transform="translate(-164.783 -1235.182)" fill="#113c68"/>
        <path id="Trazado_874211" data-name="Trazado 874211" d="M209.2,1293.828a17.679,17.679,0,0,0,4.589.862,16.856,16.856,0,0,0,4.284-.611,117.3,117.3,0,0,1,3.155-15.03c1.4-5.418,3.4-12.386,6.243-21.043,7.863-23.927,10.255-37.924,10.473-39.249.012-.07.016-.1.016-.1l-.026-.012-24.175-10.614s2.988,32.976-.824,45.634a53.326,53.326,0,0,0-1.384,6.064c-2.407,13.749-2.352,34.1-2.352,34.1" transform="translate(-163.056 -941.579)" fill="#2a4e96"/>
        <path id="Trazado_874212" data-name="Trazado 874212" d="M234.345,1279.048c1.4-5.418,3.4-12.386,6.243-21.043,7.864-23.927,10.255-37.924,10.473-39.249,0-.04,0-.077-.009-.116l-24.175-10.614s2.988,32.976-.824,45.634c-.534,1.769,8.293,25.389,8.293,25.389" transform="translate(-176.175 -941.579)" fill="#233862"/>
        <path id="Trazado_874213" data-name="Trazado 874213" d="M297.021,1586.949s.431,6.95,1.776,7.05c.179.013,6.82.013,6.82.013l8.477-.049a2.751,2.751,0,0,0-2.533-2.474c-2.478-.432-6.626-2.173-8.127-5.449-1.579-3.445-6.412.909-6.412.909" transform="translate(-231.509 -1235.182)" fill="#15447c"/>
        <path id="Trazado_874214" data-name="Trazado 874214" d="M268.331,1211.549a344.148,344.148,0,0,1-3.383,47.606c-3.7,26.237-2.444,37.374-2.444,37.374a25.146,25.146,0,0,1-3.565.906,16.176,16.176,0,0,1-5.29-.612s-5.292-26.247-3.775-39.379-7.247-45.063-7.247-45.063Z" transform="translate(-189.113 -944.325)" fill="#2a4e96"/>
        <path id="Trazado_874215" data-name="Trazado 874215" d="M281.444,947.5l4.719,3.094,4.3-1.215c.786-1.121.994-3.282,1.005-5.154a32.058,32.058,0,0,0-.169-3.432l-6.367-2.81-2.376-1.047c.007.037.185,1.951.21,2.23a16.252,16.252,0,0,1-1.322,8.333" transform="translate(-219.367 -730.282)" fill="#ffb27d"/>
        <path id="Trazado_874216" data-name="Trazado 874216" d="M254.37,1034.44c-5.874,5.671-28.1,4.718-29.473-1.531s1.494-53.19,11.527-56.139c2.082-.612,13.213,2.986,13.213,2.986a70.57,70.57,0,0,1,2.892,10.386c.222,1.132.871,13.128,1.357,24.351.227,5.248.418,10.33.516,14.05a40.5,40.5,0,0,1-.033,5.9" transform="translate(-175.043 -761.276)" fill="#99eca7"/>
        <path id="Trazado_874217" data-name="Trazado 874217" d="M288.956,942.95c1.292,2.184,5.824,4.095,8.225,4.971a32.05,32.05,0,0,0-.169-3.432l-6.367-2.81c-1.407-.018-2.265.3-1.689,1.271" transform="translate(-225.081 -733.979)" fill="#fca56b"/>
        <path id="Trazado_874218" data-name="Trazado 874218" d="M286.453,893s-10.258,3.2-12.153-3.219-4.494-10.329,1.975-12.644,8.471-.243,9.625,1.746S289.072,892,286.453,893" transform="translate(-212.121 -682.878)" fill="#ffb27d"/>
        <path id="Trazado_874219" data-name="Trazado 874219" d="M269.726,865.88s-.654,7.47-2.2,7.145-3.245-1.018-3.019,1.234-1.5,6.112-3.73,6.1c-4.777-.02-9.968-12.279-8.66-14.6,3.773-6.707,23.062-8.061,17.608.121" transform="translate(-196.35 -670.492)" fill="#163560"/>
        <path id="Trazado_874220" data-name="Trazado 874220" d="M288.777,966.622c-.132-.056-7.637-3.422-8.514-3.132s-1.971,2.97-1.971,2.97l13.214,2.987a6.564,6.564,0,0,0-2.728-2.825" transform="translate(-216.91 -750.965)" fill="#52af62"/>
        <path id="Trazado_874221" data-name="Trazado 874221" d="M375.088,1128.361l-42.066,39.606c-.824.776-1.864,1.024-2.31.55l-1.42-1.508c-.446-.474-.137-1.5.688-2.273l42.066-39.606c.824-.776,1.864-1.024,2.31-.55l1.42,1.508c.446.474.137,1.5-.688,2.273" transform="translate(-256.502 -876.35)" fill="#1f4d84"/>
        <path id="Trazado_874222" data-name="Trazado 874222" d="M351.481,1231.924l-18.46,17.38c-.824.776-1.864,1.024-2.31.55l-1.42-1.508c-.446-.474-.137-1.5.688-2.273l18.46-17.38Z" transform="translate(-256.502 -957.687)" fill="#739af0"/>
        <path id="Trazado_874223" data-name="Trazado 874223" d="M488.759,924.266a32.972,32.972,0,1,0,54.649-33.135q-.253-.253-.518-.5a32.973,32.973,0,0,0-54.132,33.634m9.424-30.431a30.37,30.37,0,1,1,1.308,42.928,30.334,30.334,0,0,1-1.308-42.928" transform="translate(-379.842 -687.209)" fill="#1f4d84"/>
        <g id="Grupo_1101069" data-name="Grupo 1101069" transform="translate(110.089 197.068)" opacity="0.5">
          <g id="Grupo_1101068" data-name="Grupo 1101068">
            <g id="Grupo_1101067" data-name="Grupo 1101067" clip-path="url(#clip-path-5)">
              <path id="Trazado_874224" data-name="Trazado 874224" d="M551.612,944.653a30.37,30.37,0,1,1-1.309-42.926,30.244,30.244,0,0,1,1.309,42.926" transform="translate(-499.126 -893.477)" fill="#b3cff9"/>
            </g>
          </g>
        </g>
        <path id="Trazado_874225" data-name="Trazado 874225" d="M284.564,1075.491c-23.179-16.517-21.252-38.557-21.252-38.557,8.472,4.778,16.878,15.343,20.735,24.507.227,5.249.418,10.33.516,14.05" transform="translate(-205.205 -808.224)" fill="#52af62"/>
        <path id="Trazado_874226" data-name="Trazado 874226" d="M453.714,1171.179a6.326,6.326,0,0,0,2.96-1.829s.7.048-.114,1.535c-.068.124-.219.444-.333.67a.145.145,0,0,0,.122.208,15.413,15.413,0,0,1,3.709.077c.251.052.324.653.314.909a2.321,2.321,0,0,1-.489,1.583c-.292.386-1.109.8-2.929,1.534-.693.279-2.675.068-4.532-.569l-1.484-.687.46-2.758.373.078c.592.124,1.325-.6,1.943-.75" transform="translate(-351.478 -911.434)" fill="#ffb27d"/>
        <path id="Trazado_874227" data-name="Trazado 874227" d="M268.937,990.562s-20.827,3.965,6.128,34.125c4.311,4.824,27.6,11.1,27.6,11.1s2.362-2.01,1.171-3.638c0,0-16.036-11.645-19.564-13.5-1.587-.833-6.16-18.587-8.748-22.862a11.666,11.666,0,0,0-6.588-5.234" transform="translate(-203.635 -772.08)" fill="#99eca7"/>
        <path id="Trazado_874228" data-name="Trazado 874228" d="M478.054,1023.628a10.608,10.608,0,0,0,.814-1.989,10.985,10.985,0,0,1,1.344-3.042c.142-.141.608.042.663.649a3.528,3.528,0,0,1-.335,1.317,14.848,14.848,0,0,0-.441,2.617c-.322,1.049-2.046.447-2.046.447" transform="translate(-372.612 -793.897)" fill="#ffb27d"/>
        <path id="Trazado_874229" data-name="Trazado 874229" d="M514.487,767.467a1.256,1.256,0,0,0-.224,1.343.011.011,0,0,0,0,.007,8.347,8.347,0,0,0,2.637,2.9c.159.128.3.245.423.353.032.028.065.057.1.085l.073.066c1.159,1.07.723,1.314,2.806,3.485,2.375,2.473,4.011,2.518,4.476,2.293.394-.192-.406-1.5-1.291-2.977-.043-.071-.085-.143-.129-.215-.118-.2-.235-.395-.352-.592-1.038-1.774-.771-2.606-.524-5.245.2-2.145,3.341-11.981,3.341-11.981l-4.553-.786s-1.374,7.833-2.885,9.039c-.808.643-1.712.65-2.489,1.127q-.082.05-.162.1a5.975,5.975,0,0,0-1.246,1" transform="translate(-400.758 -589.409)" fill="#ffb27d"/>
        <path id="Trazado_874230" data-name="Trazado 874230" d="M514.487,803.751a1.256,1.256,0,0,0-.224,1.344.011.011,0,0,0,0,.007,9.669,9.669,0,0,0,2.642,2.886c.157.131.3.25.419.362.032.029.065.057.1.085l.073.066c1.159,1.07.723,1.314,2.806,3.485,2.375,2.473,4.011,2.518,4.476,2.293.394-.192-.406-1.5-1.291-2.977a10.122,10.122,0,0,1-4.234-3.122c-1.378-1.759-2.313-4-3.251-5.379l-.268-.05a5.987,5.987,0,0,0-1.246,1" transform="translate(-400.758 -625.693)" fill="#233862"/>
        <path id="Trazado_874231" data-name="Trazado 874231" d="M669.228,759.777c.28,1.405,2.284,1.172,4.522.625s1.706.1,4.892-.248,4.151-1.539,4.248-2.012c.087-.42-1.487-.569-3.175-.764-.212-.024-.426-.05-.639-.077-1.906-.24-3.3-1.47-5.033-2.481-1.64-.958-4.086-4.856-4.086-4.856l-4.368.345s2.291,3.483,3.177,5a5.277,5.277,0,0,1,.428,2.977,5.6,5.6,0,0,0,.033,1.494" transform="translate(-518.785 -584.55)" fill="#ffb27d"/>
        <path id="Trazado_874232" data-name="Trazado 874232" d="M686.372,786.6c2.238-.546,1.706.1,4.892-.248s4.151-1.539,4.248-2.012c.087-.42-1.487-.569-3.175-.764l-.016.032a8.978,8.978,0,0,1-4.562,1.416c-2.161.052-4.45-.568-5.942-.544a5.6,5.6,0,0,0,.033,1.494c.281,1.405,2.284,1.172,4.522.625" transform="translate(-531.406 -610.75)" fill="#233862"/>
        <path id="Trazado_874233" data-name="Trazado 874233" d="M553.239,643.03l-4.087,10.987-5.336,14.346a8.639,8.639,0,0,1-2.832-.26,12.281,12.281,0,0,1-2.739-1.334s1.485-15.405,4.25-24.248a15.755,15.755,0,0,1,2.378-5.139c4.283-5.058,8.367,5.647,8.367,5.647" transform="translate(-419.527 -495.742)" fill="#233862"/>
        <path id="Trazado_874234" data-name="Trazado 874234" d="M447.831,580.856c-2.324-.751-8.39-.015-14.969,1.174a4.462,4.462,0,0,1-4.607-2.082l-16.556-1.3s-5.468,12.114-2.479,19.834a2.9,2.9,0,0,0,2.893,1.868h0s10,.017,13.2.018c8.234,0,17.427-5.654,18.616-5.891,1.946-.388,2.724,3.5,4.668,7.592s18.288,18.106,18.288,18.106a14.4,14.4,0,0,0,3.551-.363,3.5,3.5,0,0,0,1.525-.962s-18.1-36.047-24.135-38" transform="translate(-318.264 -451.021)" fill="#2a4e96"/>
        <path id="Trazado_874235" data-name="Trazado 874235" d="M395.486,360.635a5.872,5.872,0,0,0-3.162-.824,8.8,8.8,0,0,1-1.527-.093c-6.318-.929-10.127,8.248-10.351,11.022-.411,5.092-3.1,5.867-6.9,9.054-7.6,6.391-5.377,13.821-1.222,16.584,2.494,1.657,6.89,0,6.89,0,.062.043,12.025-6.682,17.922-9.926,8.839-1.253,1.9-23.7-1.653-25.818" transform="translate(-287.237 -280.327)" fill="#233862"/>
        <path id="Trazado_874236" data-name="Trazado 874236" d="M447.371,435.86c.026.017-2.9,1.015-4.858.148-1.841-.814-3.235-3.844-3.207-3.845.837-.038,1.757-.77,2.467-5.575l.357.128,6,2.16s-.435,1.924-.717,3.756c-.237,1.538-.365,3.011-.038,3.229" transform="translate(-342.411 -332.499)" fill="#ffb27d"/>
        <path id="Trazado_874237" data-name="Trazado 874237" d="M458.105,429.329s-.24,1.038-.589,2.977a6.771,6.771,0,0,1-5.406-5.137Z" transform="translate(-352.391 -332.952)" fill="#ed975d"/>
        <path id="Trazado_874238" data-name="Trazado 874238" d="M456.877,394.621s-8.2-1.1-7.437-6.2.223-8.674,5.493-8.185,5.993,2.587,6.151,4.351-2.054,10.192-4.207,10.036" transform="translate(-350.27 -296.334)" fill="#ffb27d"/>
        <path id="Trazado_874239" data-name="Trazado 874239" d="M452.472,380.2s-5.253,4.524-8.826,4.888-4.924-.784-4.924-.784a13.946,13.946,0,0,0,3.374-4.568,2.513,2.513,0,0,1,2.072-1.48c2.551-.219,7.386-.318,8.3,1.944" transform="translate(-341.956 -294.742)" fill="#233862"/>
        <path id="Trazado_874240" data-name="Trazado 874240" d="M486.178,382.139a12.931,12.931,0,0,1,2.309,2.96,9.927,9.927,0,0,1,.267,5.279s2.739-5.322,1.19-7.908c-1.643-2.743-3.767-.33-3.767-.33" transform="translate(-378.945 -297.09)" fill="#233862"/>
        <path id="Trazado_874241" data-name="Trazado 874241" d="M429.378,466.965c-.254,16.607-.073,13.137-1.89,14.712a6.974,6.974,0,0,1-3.288.711c-5.092.336-14.043-.506-14.384-1.447-1.173-3.257-.344-4.268-1.322-9.253-.1-.53-.228-1.1-.376-1.729-.816-3.424-1.611-4.589,1.29-10.089,2.63-4.982,5.363-9.025,5.608-8.879,6.934,4.12,7.495.659,7.495.659s6.991,7.215,6.867,15.316" transform="translate(-317.513 -351.516)" fill="#99eca7"/>
        <path id="Trazado_874242" data-name="Trazado 874242" d="M549.151,676.975l-5.336,14.346a8.637,8.637,0,0,1-2.832-.26,12.277,12.277,0,0,1-2.739-1.334s1.486-15.405,4.25-24.248Z" transform="translate(-419.527 -518.699)" fill="#2a4e96"/>
        <path id="Trazado_874243" data-name="Trazado 874243" d="M476.043,453.988s7.136,1.212,7.973,4.285S487.6,480,487.6,480s-2.013,1.965-3.689.288-5.268-17.451-5.268-17.451Z" transform="translate(-371.045 -353.855)" fill="#99eca7"/>
        <path id="Trazado_874244" data-name="Trazado 874244" d="M428.2,531.1c-5.092.336-14.044-.506-14.384-1.447-1.173-3.257-.344-4.268-1.322-9.254l2.458-6.915s-.409,7.7,1.862,9.728,9.3,3.914,10.4,5.607a6.2,6.2,0,0,1,.984,2.281" transform="translate(-321.512 -400.233)" fill="#52af62"/>
        <path id="Trazado_874245" data-name="Trazado 874245" d="M457.253,575.918s5.024-1.117,5.834-.671a11.8,11.8,0,0,1,3.039,2.636c.248.565-1.8-.43-2.472-.609a5.95,5.95,0,0,0-2.134.466,7.093,7.093,0,0,1-3.824.383Z" transform="translate(-356.399 -448.287)" fill="#ffb27d"/>
        <path id="Trazado_874246" data-name="Trazado 874246" d="M384.5,450.987s-6.746.413-9.082,3.67c-3.289,4.583-9.816,24.12-6.08,26.728,4.208,2.936,19.154.774,19.154.774s.5-2.325-.193-3.45-11.937-2.945-12.456-3.464,6.491-10.119,6.492-11.676,2.165-12.582,2.165-12.582" transform="translate(-287.002 -351.516)" fill="#99eca7"/>
        <path id="Trazado_874247" data-name="Trazado 874247" d="M484.806,581.959a9.717,9.717,0,0,0,1.4,1.52,1.027,1.027,0,0,0,.568.122l-.709-1.277Z" transform="translate(-377.875 -453.601)" fill="#ffb27d"/>
        <path id="Trazado_874248" data-name="Trazado 874248" d="M483.706,575.619l3.06,1.487a.546.546,0,0,1-.507.2,7.313,7.313,0,0,1-1.327-.365Z" transform="translate(-377.018 -448.659)" fill="#ffb27d"/>
        <path id="Trazado_874249" data-name="Trazado 874249" d="M489.215,591.461l-31.968-.011v.706l31.684.011Z" transform="translate(-356.395 -460.998)" fill="#233862"/>
        <path id="Trazado_874250" data-name="Trazado 874250" d="M491.139,530.675l24.209.008,7.289-18.107-24.171-.008Z" transform="translate(-382.811 -399.515)" fill="#233862"/>
        <path id="Trazado_874251" data-name="Trazado 874251" d="M564.893,549.563a.839.839,0,0,0-.822-1.153,1.651,1.651,0,0,0-1.484,1.152.839.839,0,0,0,.822,1.153,1.652,1.652,0,0,0,1.484-1.152" transform="translate(-438.464 -427.451)" fill="#fff"/>
        <path id="Trazado_874252" data-name="Trazado 874252" d="M1263.187,902.806a6.95,6.95,0,0,0-5.519.284c-9.39.386-9.739,10.011-8.636,13.593,1.548,5.031-3.93,9,2.146,11.033,7.049,2.362,12.964-.44,12.56.776,22.292,1.757,6.867-23.223-.55-25.686" transform="translate(-972.92 -703.355)" fill="#163560"/>
        <path id="Trazado_874253" data-name="Trazado 874253" d="M1222.846,1046.006a24.609,24.609,0,0,1-2.511,3.8c-1.95,2.443-12.188-3.356-11.306-3.8s6.027-15.262,7.251-17.125,5.4-2.829,5.4-2.829Z" transform="translate(-942.318 -799.742)" fill="#99eca7"/>
        <path id="Trazado_874254" data-name="Trazado 874254" d="M1392.326,1565.411s2.826,2.579,2.274,4.411-3.1,3.054-3.446,5.293-1.723,3.461-2.964,3.461h-5.914s-.913-1.576,1.292-2.051,3.037-3.107,2.9-5.55a43.058,43.058,0,0,1,.207-5.7l4.687-1.086Z" transform="translate(-1077.25 -1219.186)" fill="#1f447f"/>
        <path id="Trazado_874255" data-name="Trazado 874255" d="M1263.173,1574.691s1.017,10.924-.224,11.535l-15.876-.033s0-1.832,2.55-2.24,7.03-1.9,7.788-5.225,5.762-4.038,5.762-4.038" transform="translate(-972.013 -1227.371)" fill="#1c3154"/>
        <path id="Trazado_874256" data-name="Trazado 874256" d="M1274.074,1035.584a63.205,63.205,0,0,1,0,7.338c-.157,2.653-2.841,6.207-3.222,7.086-.956,2.2-2.033,2.564-2.033,2.564l-8.336,2.043-2.931.718-9.243-2.76s-4.209-11.75-2.519-18.365a50.838,50.838,0,0,1,4.273-11.208s6.281-1.412,17.362-.626Z" transform="translate(-970.702 -796.689)" fill="#99eca7"/>
        <path id="Trazado_874257" data-name="Trazado 874257" d="M1322.888,1091.407c-.157,2.653-3.635,6.115-4.016,6.993-.956,2.2-2.033,2.564-2.033,2.564l-8.336,2.043-1.505-4.314s12.18-3.2,10.221-14.472Z" transform="translate(-1018.721 -845.081)" fill="#52af62"/>
        <path id="Trazado_874258" data-name="Trazado 874258" d="M1244.054,1168.217s-4.577,14.247-4.871,19.1,8.75,68.908,9.114,71.144c.343,2.107,2.959,3.449,2.959,3.449a3.959,3.959,0,0,0,2.921.225,7.221,7.221,0,0,0,3.136-1.478s3.563-45.686,1.358-62.005a258.51,258.51,0,0,1-2.231-30.433Z" transform="translate(-965.857 -910.551)" fill="#233862"/>
        <path id="Trazado_874259" data-name="Trazado 874259" d="M1286.01,1166.292s6.982,9.368,7.633,15.7,1.021,28.577,2.408,34.751,6.482,18.055,6.482,37.31a3.84,3.84,0,0,1-2.164,1.692,17.859,17.859,0,0,1-1.9.526,2.993,2.993,0,0,1-3.348-1.589c-3.445-6.935-14.417-29.3-14.98-33.947-.4-3.286-3.862-25.034-11.42-37.795-1.814-3.064,1.114-15.247,1.114-15.247Z" transform="translate(-988.421 -909.05)" fill="#2a4e96"/>
        <path id="Trazado_874260" data-name="Trazado 874260" d="M1257.06,1158.246a9.593,9.593,0,0,0,5.488,1.527c4.36.088,15.165-1.111,15.165-1.111a8.93,8.93,0,0,1,.461,2.757s-13.2,3.329-20.842.486a4.832,4.832,0,0,1-.272-3.659" transform="translate(-979.595 -902.779)" fill="#233862"/>
        <path id="Trazado_874261" data-name="Trazado 874261" d="M1271.086,1166.29a2.269,2.269,0,1,1,1.99-2.252,2.135,2.135,0,0,1-1.99,2.252m0-3.844a1.618,1.618,0,1,0,1.33,1.592,1.481,1.481,0,0,0-1.33-1.592" transform="translate(-989.179 -905.538)" fill="#fff"/>
        <path id="Trazado_874262" data-name="Trazado 874262" d="M1216.763,1119.727l-19.833.186-9.76-22.936,19.833-.185Z" transform="translate(-925.323 -854.88)" fill="#123e3a"/>
        <path id="Trazado_874263" data-name="Trazado 874263" d="M1273.624,1140.958l-1.454-1.786a5.112,5.112,0,0,0-1.7-1.026c-.714-.149-2.221-1.019-2.367-.774s1.158,1.993,1.158,1.993l.066.01c-1.5,1.126-5.278.132-5.744.592-.566.557.778,1.761,1.5,2.437s2.783,1.8,4.391,1.3c1.175-.366,3.025-.738,3.025-.738Z" transform="translate(-984.778 -886.475)" fill="#ffb27d"/>
        <path id="Trazado_874264" data-name="Trazado 874264" d="M1193.484,1112.669s1.247-1.416,2.04-.736-.208,4.022-.963,3.682-1.511-2.53-1.077-2.946" transform="translate(-930.145 -866.537)" fill="#ffb27d"/>
        <path id="Trazado_874265" data-name="Trazado 874265" d="M1309.714,1023.214s5.678.626,9.752,8.029c3.213,5.838,8.706,16.6,6.633,19.64-.91,1.335-9.632,6.084-26.454,3.369a5.088,5.088,0,0,1,1.622-3.11s14.157-4.545,14.133-5.45c-.046-1.71-1.913-3.188-9.821-11.1-2.15-2.151,4.136-11.38,4.136-11.38" transform="translate(-1012.989 -797.53)" fill="#99eca7"/>
        <path id="Trazado_874266" data-name="Trazado 874266" d="M1295.186,993.9c.2-.262-.056-1.1-.368-2.649a29.02,29.02,0,0,1-.751-6.032l-.419.07-7.037,1.184s.16,1.881.165,3.654c0,.015,0,.03,0,.044.009,1.539-.415,3.865.1,4.17,2.666,1.562,7.555.567,8.306-.441" transform="translate(-1002.831 -767.913)" fill="#ffb27d"/>
        <path id="Trazado_874267" data-name="Trazado 874267" d="M1286.612,986.718s.14,2.653.145,4.425c3.938-.094,6.039-3.918,6.892-5.609Z" transform="translate(-1002.831 -768.161)" fill="#e8945b"/>
        <path id="Trazado_874268" data-name="Trazado 874268" d="M1267.616,947.752s9.224-1.314,8.318-7.046-.326-9.762-6.255-9.166-6.723,2.964-6.886,4.951,2.4,11.454,4.823,11.261" transform="translate(-984.26 -726.031)" fill="#ffb27d"/>
        <path id="Trazado_874269" data-name="Trazado 874269" d="M1274.941,928.521s3.59,6.322,7.614,6.7,5.536-.925,5.536-.925a11.085,11.085,0,0,1-4.611-5.9s-7.149-3.381-8.54.121" transform="translate(-993.735 -722.485)" fill="#163560"/>
        <path id="Trazado_874270" data-name="Trazado 874270" d="M1263.311,933.137a5.781,5.781,0,0,0-2.309,2.481,9.381,9.381,0,0,0-.406,5.46s-2.626-4.268-.9-7.193c1.825-3.1,3.619-.748,3.619-.748" transform="translate(-981.393 -726.654)" fill="#163560"/>
        <path id="Trazado_874271" data-name="Trazado 874271" d="M391.139,1627.329H.639A.641.641,0,0,1,0,1626.69v-.369a.641.641,0,0,1,.639-.639h390.5a.641.641,0,0,1,.639.639v.369a.641.641,0,0,1-.639.639" transform="translate(0 -1267.116)" fill="#233862"/>
      </g>
    </g>
  </g>
</svg>
