<svg xmlns="http://www.w3.org/2000/svg" xmlns:xlink="http://www.w3.org/1999/xlink" width="145" height="145" viewBox="0 0 145 145">
  <defs>
    <clipPath id="clip-path">
      <rect id="Rectángulo_401124" data-name="Rectángulo 401124" width="79.045" height="79.046" fill="#075214"/>
    </clipPath>
    <clipPath id="clip-path-2">
      <rect id="Rectángulo_400938" data-name="Rectángulo 400938" width="145" height="145" transform="translate(0 -0.281)" fill="none"/>
    </clipPath>
    <clipPath id="clip-path-3">
      <rect id="Rectángulo_401903" data-name="Rectángulo 401903" width="80.779" height="80.779" fill="#123e3a"/>
    </clipPath>
  </defs>
  <g id="img18" transform="translate(-175 -9540.719)">
    <g id="Grupo_1099404" data-name="Grupo 1099404" transform="translate(175 9541)">
      <g id="Grupo_1099472" data-name="Grupo 1099472" transform="translate(0 -0.281)" clip-path="url(#clip-path)">
        <path id="Trazado_873498" data-name="Trazado 873498" d="M23.156,78.743q.49.4.991.773L79.516,24.147q-.378-.5-.773-.991Z" transform="translate(-8.429 -8.429)" fill="#075214"/>
        <path id="Trazado_873499" data-name="Trazado 873499" d="M44.424,93.595c.459.136.921.261,1.383.38L93.974,45.808c-.12-.462-.244-.924-.38-1.383Z" transform="translate(-16.17 -16.171)" fill="#075214"/>
        <path id="Trazado_873500" data-name="Trazado 873500" d="M29.485,83.9q.549.339,1.106.658L84.559,30.591q-.32-.557-.658-1.106Z" transform="translate(-10.733 -10.733)" fill="#075214"/>
        <path id="Trazado_873501" data-name="Trazado 873501" d="M36.544,88.859q.612.277,1.231.532L89.39,37.776q-.255-.619-.532-1.231Z" transform="translate(-13.302 -13.302)" fill="#075214"/>
        <path id="Trazado_873502" data-name="Trazado 873502" d="M53.3,98.058q.784.112,1.572.191L98.248,54.874c-.054-.525-.116-1.049-.191-1.572Z" transform="translate(-19.402 -19.402)" fill="#075214"/>
        <path id="Trazado_873503" data-name="Trazado 873503" d="M17.941,73.849c.148.148.3.291.446.436l55.9-55.9c-.145-.149-.288-.3-.436-.446s-.3-.291-.446-.435l-55.9,55.9c.144.149.287.3.435.446" transform="translate(-6.372 -6.372)" fill="#075214"/>
        <path id="Trazado_873504" data-name="Trazado 873504" d="M63.5,102.161q.924-.02,1.848-.084l36.726-36.726q.063-.923.083-1.847Z" transform="translate(-23.115 -23.116)" fill="#075214"/>
        <path id="Trazado_873505" data-name="Trazado 873505" d="M105.688,75.821,75.82,105.689q1.2-.268,2.375-.611L105.077,78.2q.343-1.179.611-2.375" transform="translate(-27.599 -27.599)" fill="#075214"/>
        <path id="Trazado_873506" data-name="Trazado 873506" d="M.084,36.81Q.021,37.733,0,38.658L38.657,0q-.924.02-1.848.084Z" transform="translate(0 0)" fill="#075214"/>
        <path id="Trazado_873507" data-name="Trazado 873507" d="M.313,43.687c.054.525.116,1.049.191,1.573L45.26.5Q44.475.392,43.687.313Z" transform="translate(-0.114 -0.114)" fill="#075214"/>
        <path id="Trazado_873508" data-name="Trazado 873508" d="M93.715,107.7A39.84,39.84,0,0,0,107.7,93.715Z" transform="translate(-34.112 -34.113)" fill="#075214"/>
        <path id="Trazado_873509" data-name="Trazado 873509" d="M2.113,29q-.342,1.179-.611,2.375L31.37,1.5q-1.194.268-2.375.611Z" transform="translate(-0.547 -0.547)" fill="#075214"/>
        <path id="Trazado_873510" data-name="Trazado 873510" d="M22.567,8.582A39.821,39.821,0,0,0,8.581,22.568Z" transform="translate(-3.124 -3.124)" fill="#075214"/>
        <path id="Trazado_873511" data-name="Trazado 873511" d="M8.207,62.176q.32.557.658,1.106L63.281,8.866q-.549-.339-1.106-.658Z" transform="translate(-2.987 -2.988)" fill="#075214"/>
        <path id="Trazado_873512" data-name="Trazado 873512" d="M12.512,67.882q.378.5.773.991L68.872,13.286q-.49-.4-.991-.773Z" transform="translate(-4.554 -4.555)" fill="#075214"/>
        <path id="Trazado_873513" data-name="Trazado 873513" d="M1.953,50.12c.119.463.244.925.38,1.384L51.5,2.334c-.459-.137-.921-.261-1.384-.38Z" transform="translate(-0.711 -0.711)" fill="#075214"/>
        <path id="Trazado_873514" data-name="Trazado 873514" d="M4.649,56.264q.255.619.532,1.231L57.5,5.181q-.612-.277-1.231-.532Z" transform="translate(-1.692 -1.692)" fill="#075214"/>
      </g>
      <g id="Grupo_1099379" data-name="Grupo 1099379" transform="translate(0 0)">
        <rect id="Rectángulo_401103" data-name="Rectángulo 401103" width="145" height="145" transform="translate(0 -0.281)" fill="none"/>
        <path id="Trazado_873425" data-name="Trazado 873425" d="M60.362,0A60.362,60.362,0,1,1,0,60.362,60.362,60.362,0,0,1,60.362,0Z" transform="translate(17.974 21.56)" fill="#99eca7"/>
        <circle id="Elipse_11503" data-name="Elipse 11503" cx="63" cy="63" r="63" transform="translate(9 9.719)" fill="#e6fffd"/>
      </g>
    </g>
    <g id="Grupo_1101079" data-name="Grupo 1101079" transform="translate(207.111 9572.829)">
      <g id="Grupo_1101078" data-name="Grupo 1101078" clip-path="url(#clip-path-3)">
        <path id="Trazado_874284" data-name="Trazado 874284" d="M22.908,169.806V192.44H50.1c.619,0,1.616,2.326-.508,2.614l-28.5-.148a6.733,6.733,0,0,1-.785-.776V169.806c-.529.137-.6.955-1.037,1.173-1.019.508-2.27-.012-2.088-1.282a54.518,54.518,0,0,1,3.376-5.233,1.467,1.467,0,0,1,1.957-.116,52.315,52.315,0,0,1,3.519,5.349c.182,1.269-1.069,1.79-2.088,1.282-.436-.217-.508-1.036-1.037-1.173" transform="translate(-12.698 -121.351)" fill="#123e3a"/>
        <path id="Trazado_874285" data-name="Trazado 874285" d="M193.532,51.736c.929-.521.639-1.4,1.951-1.325a1.133,1.133,0,0,1,1.173,1.431,33.563,33.563,0,0,1-3.126,4.964c-.921.946-1.415.946-2.336,0a39.037,39.037,0,0,1-3.212-4.862c-.3-1.308.725-1.911,1.9-1.374.573.261.544,1.028,1.044,1.166V29.1H163.743a1.4,1.4,0,0,1,.776-2.606c8.8.617,18.669-.8,27.335-.008.378.035,1.679.244,1.679.663Z" transform="translate(-120.622 -19.411)" fill="#123e3a"/>
        <path id="Trazado_874286" data-name="Trazado 874286" d="M213.292,202.388a10.9,10.9,0,1,1-10.9-10.9,10.9,10.9,0,0,1,10.9,10.9m-2.62-.008a8.291,8.291,0,1,0-8.291,8.291,8.291,8.291,0,0,0,8.291-8.291" transform="translate(-141.668 -141.667)" fill="#123e3a"/>
        <path id="Trazado_874287" data-name="Trazado 874287" d="M60.683,40.649c1.213.08,2.982-.388,3.759.794.374.568.533,2.1.989,2.522.142.132,3.385,1.479,3.575,1.519,1.248.26,2.306-1.9,4.034-.671a46.274,46.274,0,0,1,4,4.09c.265.973-1.166,2.635-1.169,3.323,0,.2,1.372,3.463,1.489,3.619.58.77,2.975.786,3.308,1.9a37.4,37.4,0,0,1,0,5.879c-.295,1.016-2.417,1.359-3.268,1.806.024,1.2-1.33,2.658-1.5,3.562-.148.8,1.4,2.525,1.14,3.474a43.573,43.573,0,0,1-4.574,4.574c-.949.26-2.676-1.288-3.474-1.14-.9.167-2.36,1.521-3.562,1.5-.447.851-.791,2.973-1.806,3.268a37.4,37.4,0,0,1-5.879,0c-1.109-.334-1.125-2.728-1.9-3.308-.156-.118-3.423-1.49-3.619-1.489-.689,0-2.35,1.434-3.323,1.169a46.864,46.864,0,0,1-3.965-3.86c-1.456-1.911.705-2.739.6-4A26.524,26.524,0,0,0,44.034,66c-5.539.38-19.094-.206-22.856-4.7A8.712,8.712,0,0,1,20.1,59.251V40.128c-1.213-.08-2.982.388-3.759-.794-.374-.568-.533-2.1-.989-2.522-.142-.132-3.385-1.479-3.575-1.519-1.248-.26-2.306,1.9-4.034.671a46.272,46.272,0,0,1-4-4.09c-.265-.973,1.166-2.635,1.169-3.323,0-.2-1.372-3.463-1.489-3.619-.58-.77-2.975-.786-3.308-1.9a37.4,37.4,0,0,1,0-5.879c.295-1.015,2.417-1.359,3.268-1.806-.024-1.2,1.33-2.658,1.5-3.562.148-.8-1.4-2.525-1.14-3.474A43.573,43.573,0,0,1,8.317,3.742c.949-.26,2.676,1.288,3.474,1.14.9-.167,2.361-1.521,3.562-1.5.447-.851.791-2.973,1.806-3.268a37.4,37.4,0,0,1,5.879,0c1.109.334,1.125,2.728,1.9,3.308.156.118,3.423,1.49,3.619,1.489.689,0,2.35-1.434,3.323-1.169A46.865,46.865,0,0,1,35.841,7.6c1.456,1.911-.705,2.739-.6,4a26.523,26.523,0,0,0,1.5,3.183c5.539-.38,19.094.206,22.856,4.7a8.717,8.717,0,0,1,1.081,2.041ZM34.726,22.757c.372-.368,2.406-.68,2.683-1.09a8.943,8.943,0,0,0,.12-2.742c-.192-1.037-2.162-.927-2.872-1.811-.117-1.248-2.413-4.861-2.289-5.672.116-.759,1.29-1.858.877-2.783a17.354,17.354,0,0,0-2.087-2.017c-.293-.023-1.631.811-2.15.91-1.505.286-1.6-.417-2.671-.85-1.086-.44-3.19-.86-3.745-1.718-.446-.69-.468-2.155-1.321-2.321a17.785,17.785,0,0,0-2.97.03c-.111.1-.364,2.084-1.075,2.7A16.088,16.088,0,0,1,14.2,6.521c-1.289.508-1.667,1.367-3.278,1.028-.54-.114-1.656-1.021-2.015-.86A21.61,21.61,0,0,0,6.638,9.035c-.029.365,1.08,1.715.967,2.841-1.032,1.471-1.46,4.942-2.843,5.763-.448.266-2.069.632-2.113.794a13.912,13.912,0,0,0,.136,3.234c.29.431,2.187.563,2.755,1.408a34.836,34.836,0,0,1,1.239,3.444c.4,1.025,1.035,1.1.772,2.489-.1.517-1.006,1.956-.861,2.28a19.371,19.371,0,0,0,2.142,2.038c.9.215,2.166-1.085,3.007-.958a23.379,23.379,0,0,1,2.8,1.383,21.538,21.538,0,0,1,2.324.8c1.059.7.9,2.783,1.964,2.979a8.935,8.935,0,0,0,2.742-.12c.41-.277.722-2.311,1.09-2.683a22.708,22.708,0,0,1,2.8-.975c1.01-.434,2.312-1.476,3.324-1.259,1.045.224,1.679,1.293,2.807.628a12.725,12.725,0,0,0,1.641-1.764c.26-.949-1.025-2.061-.935-3.026a23.282,23.282,0,0,1,1.359-2.774,22.766,22.766,0,0,1,.975-2.8m5.4-5.523v5.594c0,1.292-4.377,1.354-3.9,3.771.992.023,1.993-.03,2.988,0,4.818.156,12.377-.15,16.7-2.555,2.049-1.139,3-2.076.69-3.647-4.091-2.778-11.673-2.877-16.478-3.165m17.952,8.846C56.46,26.5,55.021,27.3,53.4,27.77,47.647,29.424,41.38,29.506,35.446,29.2c.42.946,1.24,1.858.728,2.92a36.418,36.418,0,0,1-3.718,3.845c-1.672,1.122-2.634-.733-3.908-.678a16.956,16.956,0,0,0-2.991,1.326,23.2,23.2,0,0,0,4.163,1.3c6.827,1.492,17.141,1.562,23.817-.644.833-.276,4.544-1.891,4.544-2.741Zm0,12.229c-1.555.392-2.935,1.161-4.483,1.629-7.659,2.315-18.29,2.16-26.012.117-.617-.163-3.255-1.252-3.431-1.208a10.1,10.1,0,0,0-1.459,1.669,45.169,45.169,0,0,0,.057,6.194c.559,1.9,6.4,3.414,8.212,3.755a57.812,57.812,0,0,0,14.109.588c-.4-.822-.911-1.48-.468-2.4A35.164,35.164,0,0,1,48.48,44.7c1.5-.895,2.577.839,3.751.788A38.567,38.567,0,0,0,56,43.9c.492-.474.65-1.975,1.072-2.57.264-.372.844-.485.97-.851a13.146,13.146,0,0,0,.04-2.169M78.088,62.477a13.021,13.021,0,0,0-.094-3.367c-.291-.431-2.187-.563-2.755-1.408A34.811,34.811,0,0,1,74,54.258c-.4-1.025-1.035-1.1-.772-2.489.1-.517,1.006-1.956.861-2.28a19.4,19.4,0,0,0-2.142-2.038c-.9-.215-2.166,1.085-3.007.958a23.379,23.379,0,0,1-2.8-1.383,21.538,21.538,0,0,1-2.324-.8c-1.059-.7-.9-2.783-1.964-2.979a8.934,8.934,0,0,0-2.742.12c-.41.277-.722,2.311-1.09,2.683a22.708,22.708,0,0,1-2.8.975c-1.01.434-2.312,1.476-3.324,1.259-1.045-.224-1.679-1.293-2.807-.628a12.725,12.725,0,0,0-1.641,1.764c-.26.949,1.025,2.061.935,3.026a22.7,22.7,0,0,1-1.358,2.775c-.468,1.047-.423,2.269-1.459,2.964-1.152.772-2.139.072-2.317,1.84-.323,3.212.766,2.141,2.87,3.637.117,1.248,2.413,4.861,2.289,5.672-.136.892-1.4,1.824-.758,2.932a16.774,16.774,0,0,0,1.967,1.869c.293.023,1.631-.811,2.15-.91,1.515-.288,1.6.427,2.671.849,1.155.456,3.1.759,3.745,1.718.458.684.453,2.153,1.32,2.322a17.786,17.786,0,0,0,2.97-.03c.111-.1.364-2.084,1.075-2.7,1.64-.317,4.6-2.368,6.036-2.17.609.085,2,1,2.285.868a21.674,21.674,0,0,0,2.265-2.347c.024-.3-.8-1.346-.91-1.883-.334-1.582.57-2.136,1.106-3.459a18.575,18.575,0,0,1,.946-2.7c.628-.908,2.688-1.09,2.806-1.226M22.7,50.535v8.455c0,1.079,4.706,2.843,5.72,3.125A54.013,54.013,0,0,0,40.65,63.544V59.9c-1.021-.113-3.2.5-3.388-.925-.307-2.339,2.291-1.475,3.717-1.738a26.729,26.729,0,0,0,2.78-1.123,8.066,8.066,0,0,0,1.053-2.457,50.436,50.436,0,0,1-17.226-1.376c-1.681-.474-3.23-1.232-4.887-1.747" transform="translate(0 0.001)" fill="#123e3a"/>
        <path id="Trazado_874288" data-name="Trazado 874288" d="M56.979,46.074a10.9,10.9,0,1,1-10.9-10.9,10.9,10.9,0,0,1,10.9,10.9m-2.6.011a8.291,8.291,0,1,0-8.291,8.291,8.291,8.291,0,0,0,8.291-8.291" transform="translate(-26.02 -26.019)" fill="#123e3a"/>
        <path id="Trazado_874289" data-name="Trazado 874289" d="M149.074,173.426c.517.519.5,1.966-.38,2.227a26.61,26.61,0,0,1-4.623.045,1.323,1.323,0,0,1-.16-2.48c.787-.214,4.673-.284,5.164.208" transform="translate(-105.885 -128.031)" fill="#123e3a"/>
        <path id="Trazado_874290" data-name="Trazado 874290" d="M144.029,125.83c1.528-.332,5.976-.649,5.224,1.84-.3.986-4.651.9-5.49.651a1.323,1.323,0,0,1,.266-2.491" transform="translate(-105.793 -92.928)" fill="#123e3a"/>
      </g>
    </g>
  </g>
</svg>
