<svg xmlns="http://www.w3.org/2000/svg" width="400" height="321.191" viewBox="0 0 400 321.191">
  <g id="img7_1" transform="translate(5871 9377.736)">
    <path id="Trazado_873984" data-name="Trazado 873984" d="M0,0H400V321.191H0Z" transform="translate(-5871 -9377.736)" fill="#d4fefa"/>
    <g id="Grupo_1100915" data-name="Grupo 1100915" transform="translate(-6157 -12132.736)">
      <g id="Grupo_1100914" data-name="Grupo 1100914">
        <g id="Rectángulo_401794" data-name="Rectángulo 401794" transform="translate(448 2799)" fill="#e7fdeb" stroke="#99eca7" stroke-width="3">
          <rect width="77" height="261" stroke="none"/>
          <rect x="1.5" y="1.5" width="74" height="258" fill="none"/>
        </g>
        <g id="Rectángulo_401799" data-name="Rectángulo 401799" transform="translate(522 2799)" fill="#e7fdeb" stroke="#99eca7" stroke-width="3">
          <rect width="77" height="261" stroke="none"/>
          <rect x="1.5" y="1.5" width="74" height="258" fill="none"/>
        </g>
        <g id="Rectángulo_401800" data-name="Rectángulo 401800" transform="translate(596 2799)" fill="#e7fdeb" stroke="#99eca7" stroke-width="3">
          <rect width="77" height="261" stroke="none"/>
          <rect x="1.5" y="1.5" width="74" height="258" fill="none"/>
        </g>
        <path id="Trazado_874829" data-name="Trazado 874829" d="M35.036,16H33.027V6.291L30.063,7.3V5.607l4.715-1.735h.257Z" transform="translate(453 2830)" fill="#12263f"/>
        <path id="Trazado_874836" data-name="Trazado 874836" d="M37.451,10.912a6.591,6.591,0,0,1-.975,3.93,3.445,3.445,0,0,1-2.968,1.324,3.49,3.49,0,0,1-2.951-1.291,6.312,6.312,0,0,1-1.017-3.823V8.961a6.492,6.492,0,0,1,.975-3.91,3.477,3.477,0,0,1,2.976-1.3,3.5,3.5,0,0,1,2.959,1.27,6.294,6.294,0,0,1,1,3.8ZM35.434,8.654a5.114,5.114,0,0,0-.465-2.494,1.777,1.777,0,0,0-2.93-.042,4.726,4.726,0,0,0-.49,2.345V11.2a5.246,5.246,0,0,0,.473,2.523,1.589,1.589,0,0,0,1.486.83,1.561,1.561,0,0,0,1.436-.768,4.936,4.936,0,0,0,.49-2.4Z" transform="translate(527 2830)" fill="#12263f"/>
        <path id="Trazado_874839" data-name="Trazado 874839" d="M37.451,10.912a6.591,6.591,0,0,1-.975,3.93,3.445,3.445,0,0,1-2.968,1.324,3.49,3.49,0,0,1-2.951-1.291,6.312,6.312,0,0,1-1.017-3.823V8.961a6.492,6.492,0,0,1,.975-3.91,3.477,3.477,0,0,1,2.976-1.3,3.5,3.5,0,0,1,2.959,1.27,6.294,6.294,0,0,1,1,3.8ZM35.434,8.654a5.114,5.114,0,0,0-.465-2.494,1.777,1.777,0,0,0-2.93-.042,4.726,4.726,0,0,0-.49,2.345V11.2a5.246,5.246,0,0,0,.473,2.523,1.589,1.589,0,0,0,1.486.83,1.561,1.561,0,0,0,1.436-.768,4.936,4.936,0,0,0,.49-2.4Z" transform="translate(601 2830)" fill="#12263f"/>
        <path id="Trazado_874830" data-name="Trazado 874830" d="M29.451,10.912a6.591,6.591,0,0,1-.975,3.93,3.445,3.445,0,0,1-2.968,1.324,3.49,3.49,0,0,1-2.951-1.291,6.312,6.312,0,0,1-1.017-3.823V8.961a6.492,6.492,0,0,1,.975-3.91,3.477,3.477,0,0,1,2.976-1.3,3.5,3.5,0,0,1,2.959,1.27,6.294,6.294,0,0,1,1,3.8ZM27.434,8.654a5.114,5.114,0,0,0-.465-2.494,1.777,1.777,0,0,0-2.93-.042,4.726,4.726,0,0,0-.49,2.345V11.2a5.246,5.246,0,0,0,.473,2.523,1.589,1.589,0,0,0,1.486.83,1.561,1.561,0,0,0,1.436-.768,4.936,4.936,0,0,0,.49-2.4Z" transform="translate(461 2892)" fill="#12263f"/>
        <path id="Trazado_874835" data-name="Trazado 874835" d="M27.036,16H25.027V6.291L22.063,7.3V5.607l4.715-1.735h.257Z" transform="translate(535 2892)" fill="#12263f"/>
        <path id="Trazado_874840" data-name="Trazado 874840" d="M29.451,10.912a6.591,6.591,0,0,1-.975,3.93,3.445,3.445,0,0,1-2.968,1.324,3.49,3.49,0,0,1-2.951-1.291,6.312,6.312,0,0,1-1.017-3.823V8.961a6.492,6.492,0,0,1,.975-3.91,3.477,3.477,0,0,1,2.976-1.3,3.5,3.5,0,0,1,2.959,1.27,6.294,6.294,0,0,1,1,3.8ZM27.434,8.654a5.114,5.114,0,0,0-.465-2.494,1.777,1.777,0,0,0-2.93-.042,4.726,4.726,0,0,0-.49,2.345V11.2a5.246,5.246,0,0,0,.473,2.523,1.589,1.589,0,0,0,1.486.83,1.561,1.561,0,0,0,1.436-.768,4.936,4.936,0,0,0,.49-2.4Z" transform="translate(609 2892)" fill="#12263f"/>
        <path id="Trazado_874831" data-name="Trazado 874831" d="M22.951,10.912a6.591,6.591,0,0,1-.975,3.93,3.445,3.445,0,0,1-2.968,1.324,3.49,3.49,0,0,1-2.951-1.291,6.311,6.311,0,0,1-1.017-3.823V8.961a6.492,6.492,0,0,1,.975-3.91,3.477,3.477,0,0,1,2.976-1.3,3.5,3.5,0,0,1,2.959,1.27,6.294,6.294,0,0,1,1,3.8ZM20.934,8.654a5.114,5.114,0,0,0-.465-2.494,1.586,1.586,0,0,0-1.478-.793,1.585,1.585,0,0,0-1.453.751,4.726,4.726,0,0,0-.49,2.345V11.2a5.246,5.246,0,0,0,.473,2.523,1.589,1.589,0,0,0,1.486.83,1.561,1.561,0,0,0,1.436-.768,4.936,4.936,0,0,0,.49-2.4Z" transform="translate(468 2956)" fill="#12263f"/>
        <path id="Trazado_874834" data-name="Trazado 874834" d="M22.951,10.912a6.591,6.591,0,0,1-.975,3.93,3.445,3.445,0,0,1-2.968,1.324,3.49,3.49,0,0,1-2.951-1.291,6.311,6.311,0,0,1-1.017-3.823V8.961a6.492,6.492,0,0,1,.975-3.91,3.477,3.477,0,0,1,2.976-1.3,3.5,3.5,0,0,1,2.959,1.27,6.294,6.294,0,0,1,1,3.8ZM20.934,8.654a5.114,5.114,0,0,0-.465-2.494,1.586,1.586,0,0,0-1.478-.793,1.585,1.585,0,0,0-1.453.751,4.726,4.726,0,0,0-.49,2.345V11.2a5.246,5.246,0,0,0,.473,2.523,1.589,1.589,0,0,0,1.486.83,1.561,1.561,0,0,0,1.436-.768,4.936,4.936,0,0,0,.49-2.4Z" transform="translate(542 2956)" fill="#12263f"/>
        <path id="Trazado_874841" data-name="Trazado 874841" d="M20.536,16H18.527V6.291L15.563,7.3V5.607l4.715-1.735h.257Z" transform="translate(616 2956)" fill="#12263f"/>
        <path id="Trazado_874832" data-name="Trazado 874832" d="M33.536,16H31.527V6.291L28.563,7.3V5.607l4.715-1.735h.257Z" transform="translate(455 3019)" fill="#12263f"/>
        <path id="Trazado_874833" data-name="Trazado 874833" d="M35.951,10.912a6.591,6.591,0,0,1-.975,3.93,3.445,3.445,0,0,1-2.968,1.324,3.49,3.49,0,0,1-2.951-1.291,6.312,6.312,0,0,1-1.017-3.823V8.961a6.492,6.492,0,0,1,.975-3.91,3.477,3.477,0,0,1,2.976-1.3,3.5,3.5,0,0,1,2.959,1.27,6.294,6.294,0,0,1,1,3.8ZM33.934,8.654a5.114,5.114,0,0,0-.465-2.494,1.777,1.777,0,0,0-2.93-.042,4.726,4.726,0,0,0-.49,2.345V11.2a5.246,5.246,0,0,0,.473,2.523,1.589,1.589,0,0,0,1.486.83,1.561,1.561,0,0,0,1.436-.768,4.936,4.936,0,0,0,.49-2.4Z" transform="translate(529 3019)" fill="#12263f"/>
        <path id="Trazado_874842" data-name="Trazado 874842" d="M35.951,10.912a6.591,6.591,0,0,1-.975,3.93,3.445,3.445,0,0,1-2.968,1.324,3.49,3.49,0,0,1-2.951-1.291,6.312,6.312,0,0,1-1.017-3.823V8.961a6.492,6.492,0,0,1,.975-3.91,3.477,3.477,0,0,1,2.976-1.3,3.5,3.5,0,0,1,2.959,1.27,6.294,6.294,0,0,1,1,3.8ZM33.934,8.654a5.114,5.114,0,0,0-.465-2.494,1.777,1.777,0,0,0-2.93-.042,4.726,4.726,0,0,0-.49,2.345V11.2a5.246,5.246,0,0,0,.473,2.523,1.589,1.589,0,0,0,1.486.83,1.561,1.561,0,0,0,1.436-.768,4.936,4.936,0,0,0,.49-2.4Z" transform="translate(603 3019)" fill="#12263f"/>
        <path id="Trazado_873987" data-name="Trazado 873987" d="M0,0V76" transform="translate(448.5 2871) rotate(-90)" fill="none" stroke="#99eca7" stroke-width="3"/>
        <path id="Trazado_873998" data-name="Trazado 873998" d="M0,0V76" transform="translate(522.5 2871) rotate(-90)" fill="none" stroke="#99eca7" stroke-width="3"/>
        <path id="Trazado_874001" data-name="Trazado 874001" d="M0,0V76" transform="translate(596.5 2871) rotate(-90)" fill="none" stroke="#99eca7" stroke-width="3"/>
        <path id="Trazado_873991" data-name="Trazado 873991" d="M0,0V76" transform="translate(448.5 2934) rotate(-90)" fill="none" stroke="#99eca7" stroke-width="3"/>
        <path id="Trazado_873996" data-name="Trazado 873996" d="M0,0V76" transform="translate(522.5 2934) rotate(-90)" fill="none" stroke="#99eca7" stroke-width="3"/>
        <path id="Trazado_874000" data-name="Trazado 874000" d="M0,0V76" transform="translate(596.5 2934) rotate(-90)" fill="none" stroke="#99eca7" stroke-width="3"/>
        <path id="Trazado_873995" data-name="Trazado 873995" d="M0,0V76" transform="translate(448.5 2997) rotate(-90)" fill="none" stroke="#99eca7" stroke-width="3"/>
        <path id="Trazado_873997" data-name="Trazado 873997" d="M0,0V76" transform="translate(522.5 2997) rotate(-90)" fill="none" stroke="#99eca7" stroke-width="3"/>
        <path id="Trazado_873999" data-name="Trazado 873999" d="M0,0V76" transform="translate(596.5 2997) rotate(-90)" fill="none" stroke="#99eca7" stroke-width="3"/>
        <rect id="Rectángulo_401797" data-name="Rectángulo 401797" width="225" height="37" rx="7" transform="translate(448 2771)" fill="#99eca7"/>
        <path id="Trazado_874828" data-name="Trazado 874828" d="M7.994,13.186H3.312L2.333,16H.149L4.715,3.914H6.6L11.173,16H8.981ZM3.9,11.493H7.4L5.653,6.479Zm9.944-4.474.058.938a3.232,3.232,0,0,1,2.59-1.1A2.483,2.483,0,0,1,18.959,8.23a3.186,3.186,0,0,1,2.756-1.378,2.8,2.8,0,0,1,2.212.822A3.618,3.618,0,0,1,24.67,10.1V16H22.653V10.156A1.786,1.786,0,0,0,22.279,8.9a1.635,1.635,0,0,0-1.237-.4,1.679,1.679,0,0,0-1.125.369,1.948,1.948,0,0,0-.61.967L19.316,16H17.3V10.09A1.439,1.439,0,0,0,15.68,8.5a1.776,1.776,0,0,0-1.718.988V16H11.945V7.019ZM32.107,16a3.113,3.113,0,0,1-.232-.838,3.393,3.393,0,0,1-4.565.232,2.47,2.47,0,0,1-.855-1.909,2.55,2.55,0,0,1,1.067-2.2,5.169,5.169,0,0,1,3.051-.768h1.237V9.924a1.573,1.573,0,0,0-.39-1.116,1.547,1.547,0,0,0-1.187-.419,1.777,1.777,0,0,0-1.129.344,1.066,1.066,0,0,0-.44.876H26.646a2.239,2.239,0,0,1,.49-1.382,3.263,3.263,0,0,1,1.332-1.009,4.68,4.68,0,0,1,1.88-.365,3.769,3.769,0,0,1,2.515.793,2.827,2.827,0,0,1,.963,2.229v4.051a4.591,4.591,0,0,0,.34,1.934V16Zm-2.216-1.453a2.294,2.294,0,0,0,1.125-.291,1.941,1.941,0,0,0,.793-.78V11.783H30.721a2.973,2.973,0,0,0-1.685.39,1.264,1.264,0,0,0-.564,1.1,1.179,1.179,0,0,0,.386.926A1.5,1.5,0,0,0,29.891,14.547Zm10.75-5.686a4.991,4.991,0,0,0-.822-.066,1.85,1.85,0,0,0-1.868,1.063V16H35.934V7.019H37.86l.05,1a2.273,2.273,0,0,1,2.025-1.17,1.888,1.888,0,0,1,.714.116ZM44.061,16H42.043V7.019h2.017ZM41.919,4.686a1.071,1.071,0,0,1,.295-.772,1.113,1.113,0,0,1,.843-.307,1.127,1.127,0,0,1,.847.307,1.062,1.062,0,0,1,.3.772,1.038,1.038,0,0,1-.3.76,1.136,1.136,0,0,1-.847.3,1.122,1.122,0,0,1-.843-.3A1.046,1.046,0,0,1,41.919,4.686ZM48.4,16H46.385V3.25H48.4Zm4.341,0H50.726V3.25h2.017Zm1.818-4.574a5.3,5.3,0,0,1,.523-2.378,3.819,3.819,0,0,1,1.469-1.627,4.14,4.14,0,0,1,2.175-.569,3.923,3.923,0,0,1,2.951,1.17,4.6,4.6,0,0,1,1.224,3.1l.008.473a5.343,5.343,0,0,1-.51,2.374,3.773,3.773,0,0,1-1.461,1.619,4.17,4.17,0,0,1-2.2.573A3.9,3.9,0,0,1,55.7,14.9a4.848,4.848,0,0,1-1.141-3.374Zm2.017.174a3.619,3.619,0,0,0,.573,2.171,1.862,1.862,0,0,0,1.594.784,1.842,1.842,0,0,0,1.59-.8,4,4,0,0,0,.569-2.333,3.572,3.572,0,0,0-.585-2.158,1.973,1.973,0,0,0-3.158-.012A3.922,3.922,0,0,0,56.578,11.6Z" transform="translate(453 2780)" fill="#12263f"/>
        <path id="Trazado_874837" data-name="Trazado 874837" d="M5.487,13.369,8.558,3.914h2.308L6.516,16H4.482L.149,3.914h2.3Zm10.135,2.8a4.173,4.173,0,0,1-3.109-1.208,4.381,4.381,0,0,1-1.191-3.217v-.249a5.389,5.389,0,0,1,.519-2.4A3.949,3.949,0,0,1,13.3,7.442a3.851,3.851,0,0,1,2.092-.589,3.525,3.525,0,0,1,2.835,1.17,4.949,4.949,0,0,1,1,3.312v.813H13.356a2.7,2.7,0,0,0,.743,1.76,2.23,2.23,0,0,0,1.639.647A2.731,2.731,0,0,0,18,13.435l1.087,1.038a3.631,3.631,0,0,1-1.44,1.249A4.509,4.509,0,0,1,15.622,16.166Zm-.241-7.695a1.7,1.7,0,0,0-1.341.581,3.012,3.012,0,0,0-.652,1.619h3.843v-.149a2.452,2.452,0,0,0-.54-1.531A1.686,1.686,0,0,0,15.381,8.471Zm10.11.39a4.991,4.991,0,0,0-.822-.066A1.85,1.85,0,0,0,22.8,9.857V16H20.785V7.019h1.926l.05,1a2.273,2.273,0,0,1,2.025-1.17,1.888,1.888,0,0,1,.714.116Zm.739,2.582a5.34,5.34,0,0,1,.963-3.333,3.085,3.085,0,0,1,2.582-1.258,2.931,2.931,0,0,1,2.308,1V3.25H34.1V16H32.273l-.1-.93a2.973,2.973,0,0,1-2.416,1.1,3.068,3.068,0,0,1-2.552-1.27A5.535,5.535,0,0,1,26.23,11.443Zm2.017.174a3.739,3.739,0,0,0,.527,2.137,1.71,1.71,0,0,0,1.5.768,1.9,1.9,0,0,0,1.81-1.1V9.583A1.876,1.876,0,0,0,30.29,8.5a1.723,1.723,0,0,0-1.511.776A4.163,4.163,0,0,0,28.248,11.617Zm11.912,4.549a4.173,4.173,0,0,1-3.109-1.208,4.381,4.381,0,0,1-1.191-3.217v-.249a5.389,5.389,0,0,1,.519-2.4,3.949,3.949,0,0,1,1.457-1.648,3.851,3.851,0,0,1,2.092-.589,3.525,3.525,0,0,1,2.835,1.17,4.949,4.949,0,0,1,1,3.312v.813H37.893a2.7,2.7,0,0,0,.743,1.76,2.23,2.23,0,0,0,1.639.647,2.731,2.731,0,0,0,2.258-1.121l1.087,1.038a3.631,3.631,0,0,1-1.44,1.249A4.509,4.509,0,0,1,40.159,16.166Zm-.241-7.695a1.7,1.7,0,0,0-1.341.581,3.012,3.012,0,0,0-.652,1.619H41.77v-.149a2.452,2.452,0,0,0-.54-1.531A1.686,1.686,0,0,0,39.918,8.471Z" transform="translate(537 2780)" fill="#12263f"/>
        <path id="Trazado_874838" data-name="Trazado 874838" d="M5.669,11.352H3.329V16h-2.1V3.914h4.25a4.944,4.944,0,0,1,3.229.939A3.321,3.321,0,0,1,9.845,7.57,3.4,3.4,0,0,1,9.26,9.6a3.724,3.724,0,0,1-1.631,1.259l2.714,5.033V16H8.093ZM3.329,9.658H5.487a2.4,2.4,0,0,0,1.66-.535,1.867,1.867,0,0,0,.6-1.465,1.988,1.988,0,0,0-.552-1.5,2.345,2.345,0,0,0-1.648-.548H3.329Zm7.936,1.768a5.3,5.3,0,0,1,.523-2.378,3.819,3.819,0,0,1,1.469-1.627,4.14,4.14,0,0,1,2.175-.569,3.923,3.923,0,0,1,2.951,1.17,4.6,4.6,0,0,1,1.224,3.1l.008.473a5.343,5.343,0,0,1-.51,2.374,3.773,3.773,0,0,1-1.461,1.619,4.17,4.17,0,0,1-2.2.573A3.9,3.9,0,0,1,12.406,14.9a4.848,4.848,0,0,1-1.141-3.374Zm2.017.174a3.619,3.619,0,0,0,.573,2.171,1.862,1.862,0,0,0,1.594.784,1.842,1.842,0,0,0,1.59-.8,4,4,0,0,0,.569-2.333,3.572,3.572,0,0,0-.585-2.158,1.973,1.973,0,0,0-3.158-.012A3.922,3.922,0,0,0,13.281,11.6ZM23.425,7.019V16.8a2.955,2.955,0,0,1-.685,2.1,2.625,2.625,0,0,1-2,.726,4.031,4.031,0,0,1-1.071-.141V17.893a3.108,3.108,0,0,0,.714.075q1,0,1.029-1.1V7.019ZM21.233,4.686a1.071,1.071,0,0,1,.295-.772,1.113,1.113,0,0,1,.843-.307,1.127,1.127,0,0,1,.847.307,1.062,1.062,0,0,1,.3.772,1.038,1.038,0,0,1-.3.76,1.136,1.136,0,0,1-.847.3,1.122,1.122,0,0,1-.843-.3A1.046,1.046,0,0,1,21.233,4.686Zm3.968,6.74a5.3,5.3,0,0,1,.523-2.378,3.819,3.819,0,0,1,1.469-1.627,4.14,4.14,0,0,1,2.175-.569,3.923,3.923,0,0,1,2.951,1.17,4.6,4.6,0,0,1,1.224,3.1l.008.473a5.343,5.343,0,0,1-.51,2.374,3.773,3.773,0,0,1-1.461,1.619,4.17,4.17,0,0,1-2.2.573A3.9,3.9,0,0,1,26.343,14.9,4.848,4.848,0,0,1,25.2,11.526Zm2.017.174a3.619,3.619,0,0,0,.573,2.171,1.862,1.862,0,0,0,1.594.784,1.842,1.842,0,0,0,1.59-.8,4,4,0,0,0,.569-2.333,3.572,3.572,0,0,0-.585-2.158A1.973,1.973,0,0,0,27.8,9.256,3.922,3.922,0,0,0,27.218,11.6Z" transform="translate(616 2780)" fill="#12263f"/>
      </g>
      <g id="Grupo_1100913" data-name="Grupo 1100913">
        <g id="Rectángulo_401793" data-name="Rectángulo 401793" transform="translate(300 2799)" fill="#e7fdeb" stroke="#99eca7" stroke-width="3">
          <rect width="90" height="261" stroke="none"/>
          <rect x="1.5" y="1.5" width="87" height="258" fill="none"/>
        </g>
        <path id="Trazado_874824" data-name="Trazado 874824" d="M7.994,13.186H3.312L2.333,16H.149L4.715,3.914H6.6L11.173,16H8.981ZM3.9,11.493H7.4L5.653,6.479Zm9.944-4.474.058.938a3.232,3.232,0,0,1,2.59-1.1A2.483,2.483,0,0,1,18.959,8.23a3.186,3.186,0,0,1,2.756-1.378,2.8,2.8,0,0,1,2.212.822A3.618,3.618,0,0,1,24.67,10.1V16H22.653V10.156A1.786,1.786,0,0,0,22.279,8.9a1.635,1.635,0,0,0-1.237-.4,1.679,1.679,0,0,0-1.125.369,1.948,1.948,0,0,0-.61.967L19.316,16H17.3V10.09A1.439,1.439,0,0,0,15.68,8.5a1.776,1.776,0,0,0-1.718.988V16H11.945V7.019ZM32.107,16a3.113,3.113,0,0,1-.232-.838,3.393,3.393,0,0,1-4.565.232,2.47,2.47,0,0,1-.855-1.909,2.55,2.55,0,0,1,1.067-2.2,5.169,5.169,0,0,1,3.051-.768h1.237V9.924a1.573,1.573,0,0,0-.39-1.116,1.547,1.547,0,0,0-1.187-.419,1.777,1.777,0,0,0-1.129.344,1.066,1.066,0,0,0-.44.876H26.646a2.239,2.239,0,0,1,.49-1.382,3.263,3.263,0,0,1,1.332-1.009,4.68,4.68,0,0,1,1.88-.365,3.769,3.769,0,0,1,2.515.793,2.827,2.827,0,0,1,.963,2.229v4.051a4.591,4.591,0,0,0,.34,1.934V16Zm-2.216-1.453a2.294,2.294,0,0,0,1.125-.291,1.941,1.941,0,0,0,.793-.78V11.783H30.721a2.973,2.973,0,0,0-1.685.39,1.264,1.264,0,0,0-.564,1.1,1.179,1.179,0,0,0,.386.926A1.5,1.5,0,0,0,29.891,14.547Zm10.75-5.686a4.991,4.991,0,0,0-.822-.066,1.85,1.85,0,0,0-1.868,1.063V16H35.934V7.019H37.86l.05,1a2.273,2.273,0,0,1,2.025-1.17,1.888,1.888,0,0,1,.714.116ZM44.061,16H42.043V7.019h2.017ZM41.919,4.686a1.071,1.071,0,0,1,.295-.772,1.113,1.113,0,0,1,.843-.307,1.127,1.127,0,0,1,.847.307,1.062,1.062,0,0,1,.3.772,1.038,1.038,0,0,1-.3.76,1.136,1.136,0,0,1-.847.3,1.122,1.122,0,0,1-.843-.3A1.046,1.046,0,0,1,41.919,4.686ZM48.4,16H46.385V3.25H48.4Zm4.341,0H50.726V3.25h2.017Zm1.818-4.574a5.3,5.3,0,0,1,.523-2.378,3.819,3.819,0,0,1,1.469-1.627,4.14,4.14,0,0,1,2.175-.569,3.923,3.923,0,0,1,2.951,1.17,4.6,4.6,0,0,1,1.224,3.1l.008.473a5.343,5.343,0,0,1-.51,2.374,3.773,3.773,0,0,1-1.461,1.619,4.17,4.17,0,0,1-2.2.573A3.9,3.9,0,0,1,55.7,14.9a4.848,4.848,0,0,1-1.141-3.374Zm2.017.174a3.619,3.619,0,0,0,.573,2.171,1.862,1.862,0,0,0,1.594.784,1.842,1.842,0,0,0,1.59-.8,4,4,0,0,0,.569-2.333,3.572,3.572,0,0,0-.585-2.158,1.973,1.973,0,0,0-3.158-.012A3.922,3.922,0,0,0,56.578,11.6Z" transform="translate(312 2830)" fill="#12263f"/>
        <path id="Trazado_874825" data-name="Trazado 874825" d="M5.487,13.369,8.558,3.914h2.308L6.516,16H4.482L.149,3.914h2.3Zm10.135,2.8a4.173,4.173,0,0,1-3.109-1.208,4.381,4.381,0,0,1-1.191-3.217v-.249a5.389,5.389,0,0,1,.519-2.4A3.949,3.949,0,0,1,13.3,7.442a3.851,3.851,0,0,1,2.092-.589,3.525,3.525,0,0,1,2.835,1.17,4.949,4.949,0,0,1,1,3.312v.813H13.356a2.7,2.7,0,0,0,.743,1.76,2.23,2.23,0,0,0,1.639.647A2.731,2.731,0,0,0,18,13.435l1.087,1.038a3.631,3.631,0,0,1-1.44,1.249A4.509,4.509,0,0,1,15.622,16.166Zm-.241-7.695a1.7,1.7,0,0,0-1.341.581,3.012,3.012,0,0,0-.652,1.619h3.843v-.149a2.452,2.452,0,0,0-.54-1.531A1.686,1.686,0,0,0,15.381,8.471Zm10.11.39a4.991,4.991,0,0,0-.822-.066A1.85,1.85,0,0,0,22.8,9.857V16H20.785V7.019h1.926l.05,1a2.273,2.273,0,0,1,2.025-1.17,1.888,1.888,0,0,1,.714.116Zm.739,2.582a5.34,5.34,0,0,1,.963-3.333,3.085,3.085,0,0,1,2.582-1.258,2.931,2.931,0,0,1,2.308,1V3.25H34.1V16H32.273l-.1-.93a2.973,2.973,0,0,1-2.416,1.1,3.068,3.068,0,0,1-2.552-1.27A5.535,5.535,0,0,1,26.23,11.443Zm2.017.174a3.739,3.739,0,0,0,.527,2.137,1.71,1.71,0,0,0,1.5.768,1.9,1.9,0,0,0,1.81-1.1V9.583A1.876,1.876,0,0,0,30.29,8.5a1.723,1.723,0,0,0-1.511.776A4.163,4.163,0,0,0,28.248,11.617Zm11.912,4.549a4.173,4.173,0,0,1-3.109-1.208,4.381,4.381,0,0,1-1.191-3.217v-.249a5.389,5.389,0,0,1,.519-2.4,3.949,3.949,0,0,1,1.457-1.648,3.851,3.851,0,0,1,2.092-.589,3.525,3.525,0,0,1,2.835,1.17,4.949,4.949,0,0,1,1,3.312v.813H37.893a2.7,2.7,0,0,0,.743,1.76,2.23,2.23,0,0,0,1.639.647,2.731,2.731,0,0,0,2.258-1.121l1.087,1.038a3.631,3.631,0,0,1-1.44,1.249A4.509,4.509,0,0,1,40.159,16.166Zm-.241-7.695a1.7,1.7,0,0,0-1.341.581,3.012,3.012,0,0,0-.652,1.619H41.77v-.149a2.452,2.452,0,0,0-.54-1.531A1.686,1.686,0,0,0,39.918,8.471Z" transform="translate(320 2892)" fill="#12263f"/>
        <path id="Trazado_874826" data-name="Trazado 874826" d="M5.669,11.352H3.329V16h-2.1V3.914h4.25a4.944,4.944,0,0,1,3.229.939A3.321,3.321,0,0,1,9.845,7.57,3.4,3.4,0,0,1,9.26,9.6a3.724,3.724,0,0,1-1.631,1.259l2.714,5.033V16H8.093ZM3.329,9.658H5.487a2.4,2.4,0,0,0,1.66-.535,1.867,1.867,0,0,0,.6-1.465,1.988,1.988,0,0,0-.552-1.5,2.345,2.345,0,0,0-1.648-.548H3.329Zm7.936,1.768a5.3,5.3,0,0,1,.523-2.378,3.819,3.819,0,0,1,1.469-1.627,4.14,4.14,0,0,1,2.175-.569,3.923,3.923,0,0,1,2.951,1.17,4.6,4.6,0,0,1,1.224,3.1l.008.473a5.343,5.343,0,0,1-.51,2.374,3.773,3.773,0,0,1-1.461,1.619,4.17,4.17,0,0,1-2.2.573A3.9,3.9,0,0,1,12.406,14.9a4.848,4.848,0,0,1-1.141-3.374Zm2.017.174a3.619,3.619,0,0,0,.573,2.171,1.862,1.862,0,0,0,1.594.784,1.842,1.842,0,0,0,1.59-.8,4,4,0,0,0,.569-2.333,3.572,3.572,0,0,0-.585-2.158,1.973,1.973,0,0,0-3.158-.012A3.922,3.922,0,0,0,13.281,11.6ZM23.425,7.019V16.8a2.955,2.955,0,0,1-.685,2.1,2.625,2.625,0,0,1-2,.726,4.031,4.031,0,0,1-1.071-.141V17.893a3.108,3.108,0,0,0,.714.075q1,0,1.029-1.1V7.019ZM21.233,4.686a1.071,1.071,0,0,1,.295-.772,1.113,1.113,0,0,1,.843-.307,1.127,1.127,0,0,1,.847.307,1.062,1.062,0,0,1,.3.772,1.038,1.038,0,0,1-.3.76,1.136,1.136,0,0,1-.847.3,1.122,1.122,0,0,1-.843-.3A1.046,1.046,0,0,1,21.233,4.686Zm3.968,6.74a5.3,5.3,0,0,1,.523-2.378,3.819,3.819,0,0,1,1.469-1.627,4.14,4.14,0,0,1,2.175-.569,3.923,3.923,0,0,1,2.951,1.17,4.6,4.6,0,0,1,1.224,3.1l.008.473a5.343,5.343,0,0,1-.51,2.374,3.773,3.773,0,0,1-1.461,1.619,4.17,4.17,0,0,1-2.2.573A3.9,3.9,0,0,1,26.343,14.9,4.848,4.848,0,0,1,25.2,11.526Zm2.017.174a3.619,3.619,0,0,0,.573,2.171,1.862,1.862,0,0,0,1.594.784,1.842,1.842,0,0,0,1.59-.8,4,4,0,0,0,.569-2.333,3.572,3.572,0,0,0-.585-2.158A1.973,1.973,0,0,0,27.8,9.256,3.922,3.922,0,0,0,27.218,11.6Z" transform="translate(326 2956)" fill="#12263f"/>
        <path id="Trazado_874827" data-name="Trazado 874827" d="M7.994,13.186H3.312L2.333,16H.149L4.715,3.914H6.6L11.173,16H8.981ZM3.9,11.493H7.4L5.653,6.479Zm9.944-4.474.058.938a3.232,3.232,0,0,1,2.59-1.1A2.483,2.483,0,0,1,18.959,8.23a3.186,3.186,0,0,1,2.756-1.378,2.8,2.8,0,0,1,2.212.822A3.618,3.618,0,0,1,24.67,10.1V16H22.653V10.156A1.786,1.786,0,0,0,22.279,8.9a1.635,1.635,0,0,0-1.237-.4,1.679,1.679,0,0,0-1.125.369,1.948,1.948,0,0,0-.61.967L19.316,16H17.3V10.09A1.439,1.439,0,0,0,15.68,8.5a1.776,1.776,0,0,0-1.718.988V16H11.945V7.019ZM32.107,16a3.113,3.113,0,0,1-.232-.838,3.393,3.393,0,0,1-4.565.232,2.47,2.47,0,0,1-.855-1.909,2.55,2.55,0,0,1,1.067-2.2,5.169,5.169,0,0,1,3.051-.768h1.237V9.924a1.573,1.573,0,0,0-.39-1.116,1.547,1.547,0,0,0-1.187-.419,1.777,1.777,0,0,0-1.129.344,1.066,1.066,0,0,0-.44.876H26.646a2.239,2.239,0,0,1,.49-1.382,3.263,3.263,0,0,1,1.332-1.009,4.68,4.68,0,0,1,1.88-.365,3.769,3.769,0,0,1,2.515.793,2.827,2.827,0,0,1,.963,2.229v4.051a4.591,4.591,0,0,0,.34,1.934V16Zm-2.216-1.453a2.294,2.294,0,0,0,1.125-.291,1.941,1.941,0,0,0,.793-.78V11.783H30.721a2.973,2.973,0,0,0-1.685.39,1.264,1.264,0,0,0-.564,1.1,1.179,1.179,0,0,0,.386.926A1.5,1.5,0,0,0,29.891,14.547Zm10.75-5.686a4.991,4.991,0,0,0-.822-.066,1.85,1.85,0,0,0-1.868,1.063V16H35.934V7.019H37.86l.05,1a2.273,2.273,0,0,1,2.025-1.17,1.888,1.888,0,0,1,.714.116ZM44.061,16H42.043V7.019h2.017ZM41.919,4.686a1.071,1.071,0,0,1,.295-.772,1.113,1.113,0,0,1,.843-.307,1.127,1.127,0,0,1,.847.307,1.062,1.062,0,0,1,.3.772,1.038,1.038,0,0,1-.3.76,1.136,1.136,0,0,1-.847.3,1.122,1.122,0,0,1-.843-.3A1.046,1.046,0,0,1,41.919,4.686ZM48.4,16H46.385V3.25H48.4Zm4.341,0H50.726V3.25h2.017Zm1.818-4.574a5.3,5.3,0,0,1,.523-2.378,3.819,3.819,0,0,1,1.469-1.627,4.14,4.14,0,0,1,2.175-.569,3.923,3.923,0,0,1,2.951,1.17,4.6,4.6,0,0,1,1.224,3.1l.008.473a5.343,5.343,0,0,1-.51,2.374,3.773,3.773,0,0,1-1.461,1.619,4.17,4.17,0,0,1-2.2.573A3.9,3.9,0,0,1,55.7,14.9a4.848,4.848,0,0,1-1.141-3.374Zm2.017.174a3.619,3.619,0,0,0,.573,2.171,1.862,1.862,0,0,0,1.594.784,1.842,1.842,0,0,0,1.59-.8,4,4,0,0,0,.569-2.333,3.572,3.572,0,0,0-.585-2.158,1.973,1.973,0,0,0-3.158-.012A3.922,3.922,0,0,0,56.578,11.6Z" transform="translate(313 3019)" fill="#12263f"/>
        <path id="Trazado_873986" data-name="Trazado 873986" d="M0,0V89.47" transform="translate(300.5 2871) rotate(-90)" fill="none" stroke="#99eca7" stroke-width="3"/>
        <path id="Trazado_873990" data-name="Trazado 873990" d="M0,0V89.47" transform="translate(300.5 2934) rotate(-90)" fill="none" stroke="#99eca7" stroke-width="3"/>
        <path id="Trazado_873994" data-name="Trazado 873994" d="M0,0V89.47" transform="translate(300.5 2997) rotate(-90)" fill="none" stroke="#99eca7" stroke-width="3"/>
        <rect id="Rectángulo_401798" data-name="Rectángulo 401798" width="90" height="37" rx="7" transform="translate(300 2771)" fill="#99eca7"/>
        <path id="Trazado_874823" data-name="Trazado 874823" d="M10.451,12.065a4.364,4.364,0,0,1-1.428,3.017,4.867,4.867,0,0,1-3.312,1.083,4.713,4.713,0,0,1-2.544-.685,4.5,4.5,0,0,1-1.7-1.947A7.024,7.024,0,0,1,.847,10.6V9.476a7.075,7.075,0,0,1,.606-3.013A4.567,4.567,0,0,1,3.192,4.454a4.851,4.851,0,0,1,2.619-.706A4.672,4.672,0,0,1,9.031,4.831,4.527,4.527,0,0,1,10.451,7.9H8.359a2.985,2.985,0,0,0-.76-1.88,2.51,2.51,0,0,0-1.789-.577,2.452,2.452,0,0,0-2.1,1A5,5,0,0,0,2.955,9.38v1.072a5.308,5.308,0,0,0,.7,2.991,2.328,2.328,0,0,0,2.054,1.03,2.715,2.715,0,0,0,1.859-.556,2.9,2.9,0,0,0,.789-1.851Zm1.3-.639a5.3,5.3,0,0,1,.523-2.378,3.819,3.819,0,0,1,1.469-1.627,4.14,4.14,0,0,1,2.175-.569,3.923,3.923,0,0,1,2.951,1.17,4.6,4.6,0,0,1,1.224,3.1l.008.473a5.343,5.343,0,0,1-.51,2.374,3.773,3.773,0,0,1-1.461,1.619,4.17,4.17,0,0,1-2.2.573A3.9,3.9,0,0,1,12.9,14.9a4.848,4.848,0,0,1-1.141-3.374Zm2.017.174a3.619,3.619,0,0,0,.573,2.171,1.862,1.862,0,0,0,1.594.784,1.842,1.842,0,0,0,1.59-.8,4,4,0,0,0,.569-2.333,3.572,3.572,0,0,0-.585-2.158,1.973,1.973,0,0,0-3.158-.012A3.922,3.922,0,0,0,13.771,11.6ZM23.956,16H21.939V3.25h2.017Zm1.818-4.574A5.3,5.3,0,0,1,26.3,9.048a3.819,3.819,0,0,1,1.469-1.627,4.14,4.14,0,0,1,2.175-.569,3.923,3.923,0,0,1,2.951,1.17,4.6,4.6,0,0,1,1.224,3.1l.008.473a5.343,5.343,0,0,1-.51,2.374,3.773,3.773,0,0,1-1.461,1.619,4.17,4.17,0,0,1-2.2.573A3.9,3.9,0,0,1,26.915,14.9a4.848,4.848,0,0,1-1.141-3.374Zm2.017.174a3.619,3.619,0,0,0,.573,2.171,1.862,1.862,0,0,0,1.594.784,1.842,1.842,0,0,0,1.59-.8,4,4,0,0,0,.569-2.333,3.572,3.572,0,0,0-.585-2.158,1.973,1.973,0,0,0-3.158-.012A3.922,3.922,0,0,0,27.791,11.6ZM40.533,8.861a4.991,4.991,0,0,0-.822-.066,1.85,1.85,0,0,0-1.868,1.063V16H35.826V7.019h1.926l.05,1a2.273,2.273,0,0,1,2.025-1.17,1.888,1.888,0,0,1,.714.116Z" transform="translate(324 2780)" fill="#12263f"/>
      </g>
      <rect id="Rectángulo_401801" data-name="Rectángulo 401801" width="27" height="12" transform="translate(399 2910)" fill="#075214"/>
      <path id="Polígono_6" data-name="Polígono 6" d="M13,0,26,22H0Z" transform="translate(442 2903) rotate(90)" fill="#075214"/>
    </g>
  </g>
</svg>
