<svg xmlns="http://www.w3.org/2000/svg" xmlns:xlink="http://www.w3.org/1999/xlink" width="124" height="124" viewBox="0 0 124 124">
  <defs>
    <clipPath id="clip-path">
      <rect id="Rectángulo_402058" data-name="Rectángulo 402058" width="77.243" height="64.42" fill="#231291"/>
    </clipPath>
  </defs>
  <g id="Grupo_1101418" data-name="Grupo 1101418" transform="translate(-915.5 -132)">
    <circle id="Elipse_11520" data-name="Elipse 11520" cx="62" cy="62" r="62" transform="translate(915.5 132)" fill="#cbc4f8"/>
    <g id="Grupo_1101393" data-name="Grupo 1101393" transform="translate(938.879 161.791)">
      <g id="Grupo_1101392" data-name="Grupo 1101392" clip-path="url(#clip-path)">
        <path id="Trazado_874759" data-name="Trazado 874759" d="M154.4,136.561c-1.321,10.151-11.1,18.717-21.363,18.29,1.7-1.246,6.805-5.507,7.265-7.4.206-.848-.294-1.894-1.272-1.812-.725.061-3.636,4.051-4.669,4.97-1.75,1.556-5.23,4.069-7.593,3.774-.708-.088-6.35-2.422-6.028-2.9a15.346,15.346,0,0,0,3.65-2.355c.848-.712,5.207-4.648,2.01-4.9-.714-.057-3.7,2.979-4.69,3.687a18.792,18.792,0,0,1-3.463,2.023,22.8,22.8,0,0,1-6.309-8.537,27.193,27.193,0,0,0,11.9-12.418Zm-24.677,6.209a1.3,1.3,0,1,0-1.3,1.3,1.3,1.3,0,0,0,1.3-1.3" transform="translate(-79.164 -91.218)" fill="#231291"/>
        <path id="Trazado_874760" data-name="Trazado 874760" d="M23.09.036C30-.19,39.2.612,45.506,3.505c10.179,4.668,2.869,8.97-3.912,10.937-9.955,2.888-26.849,2.866-36.41-1.359C-5.06,8.557,1.994,4.185,8.8,2.147A58.578,58.578,0,0,1,23.09.036" transform="translate(-0.02 0)" fill="#231291"/>
        <path id="Trazado_874761" data-name="Trazado 874761" d="M50.652,44.829V56.54a7.784,7.784,0,0,0-6.147,3.075c-.511.626-.637,1.663-1.25,1.993a32.919,32.919,0,0,1-6.31,1.573c-9.146,1.6-21.217,1.453-29.99-1.739C5.511,60.918,0,58.367,0,56.687V44.829c.946.415,1.716,1.142,2.63,1.616,11,5.7,33.949,5.748,45,.193a29.035,29.035,0,0,1,3.022-1.809M2.708,52.515a1.309,1.309,0,0,0,.108,1.944c.631.485,4.211,1.926,4.879,1.746a1.32,1.32,0,0,0,.326-2.27c-.708-.555-4.609-2.133-5.313-1.42" transform="translate(0 -31.704)" fill="#231291"/>
        <path id="Trazado_874762" data-name="Trazado 874762" d="M0,98.828c9.058,6.258,21.4,6.349,32.057,5.853l10.694-1.9c-.433,5.766-4.644,11.32-9.577,14.138-2.617,1.495-3.2,1.145-6.087,1.231-6.4.189-13.45-.217-19.63-2.334C5.77,115.242,0,112.675,0,110.686Zm3.138,7.661c-3.478,1.022,4.161,5.25,5.214,3.174.9-1.777-4.291-3.445-5.214-3.174" transform="translate(0 -69.892)" fill="#231291"/>
        <path id="Trazado_874763" data-name="Trazado 874763" d="M0,153.829c8.89,5.863,20.085,5.981,30.418,5.889a22.446,22.446,0,0,0,5.291,8.322c.628.617,4.1,2.945,4.114,3.5a66.754,66.754,0,0,1-22.071,1.283C13.214,172.337,5.7,170.816,2.075,168,1.65,167.674,0,166.081,0,165.687Zm3.139,7.36a1.376,1.376,0,0,0-.506,2.16c.748.832,6.29,3.31,5.867.305-.131-.931-4.666-2.654-5.362-2.465" transform="translate(0 -108.79)" fill="#231291"/>
        <path id="Trazado_874764" data-name="Trazado 874764" d="M184.434,109.315l-31.035-7.76c-.456-.29-.143-.372-.075-.651.848-3.453,1.258-7.261,5.784-7.118l23.633,5.953c4.3,2,2.641,6.029,1.693,9.576" transform="translate(-108.314 -66.324)" fill="#231291"/>
        <path id="Trazado_874765" data-name="Trazado 874765" d="M217.818,49.713l-3.212,13.165c-.958-.282-3.63-.146-3.466-1.537l3.471-12.52Z" transform="translate(-149.316 -34.527)" fill="#231291"/>
      </g>
    </g>
  </g>
</svg>
