<svg id="img19" xmlns="http://www.w3.org/2000/svg" xmlns:xlink="http://www.w3.org/1999/xlink" width="400" height="299.729" viewBox="0 0 400 299.729">
  <defs>
    <clipPath id="clip-path">
      <rect id="Rectángulo_402057" data-name="Rectángulo 402057" width="400" height="299.729" fill="none"/>
    </clipPath>
    <clipPath id="clip-path-3">
      <rect id="Rectángulo_402053" data-name="Rectángulo 402053" width="65.031" height="67.827" fill="#123e3a"/>
    </clipPath>
    <clipPath id="clip-path-4">
      <rect id="Rectángulo_402047" data-name="Rectángulo 402047" width="65.031" height="4.024" fill="#123e3a"/>
    </clipPath>
  </defs>
  <g id="Grupo_1101387" data-name="Grupo 1101387" clip-path="url(#clip-path)">
    <g id="Grupo_1101386" data-name="Grupo 1101386">
      <g id="Grupo_1101385" data-name="Grupo 1101385" clip-path="url(#clip-path)">
        <path id="Trazado_874596" data-name="Trazado 874596" d="M449.048,218.185a3.479,3.479,0,0,1-3.462,3.466H371.494a3.46,3.46,0,0,1-2.443-5.913,3.426,3.426,0,0,1,2.443-1.019H375a9.033,9.033,0,0,1,14.7-2.8,12.548,12.548,0,0,1,14.455-5.649,14.341,14.341,0,0,1,26.489,2.895,9.033,9.033,0,0,1,12.716,5.553h2.231a3.474,3.474,0,0,1,3.462,3.466" transform="translate(-56.547 -30.522)" fill="#d4fefa"/>
        <path id="Trazado_874597" data-name="Trazado 874597" d="M95.025,79.835A3.481,3.481,0,0,1,91.564,83.3H17.47a3.46,3.46,0,0,1-2.443-5.913,3.427,3.427,0,0,1,2.443-1.02h3.5a9.032,9.032,0,0,1,14.7-2.8,12.543,12.543,0,0,1,14.455-5.649,14.341,14.341,0,0,1,26.489,2.895,9.033,9.033,0,0,1,12.716,5.552h2.231a3.475,3.475,0,0,1,3.462,3.467" transform="translate(-2.152 -9.265)" fill="#d4fefa"/>
        <path id="Trazado_874598" data-name="Trazado 874598" d="M147.435,37.546l1.664-8.48-7.946-1.559A19.4,19.4,0,0,0,140.1,21.3l6.547-4.4L141.83,9.728l-6.266,4.21a19.333,19.333,0,0,0-6.432-4.327l1.562-7.947L122.212,0,120.6,8.19a19.207,19.207,0,0,0-5.16,1l-4.4-6.548-7.174,4.819,4.21,6.266a19.363,19.363,0,0,0-4.327,6.432L96.81,18.8l-1.665,8.48,7.191,1.411a19.271,19.271,0,0,0,1.527,6.544L97.6,39.443l4.819,7.174,6.548-4.4a19.324,19.324,0,0,0,6.317,3.671l-1.571,7.994,8.48,1.664,1.7-8.666a19.265,19.265,0,0,0,5.489-1.448l4.21,6.267,7.173-4.819-4.4-6.547a19.335,19.335,0,0,0,2.881-4.4Zm-21.3-3.4a7.921,7.921,0,1,1,2.157-10.992,7.929,7.929,0,0,1-2.157,10.992" transform="translate(-14.619)" fill="#cbc4f8"/>
        <path id="Trazado_874599" data-name="Trazado 874599" d="M208.353,44.332l.89-4.537-4.251-.834a10.371,10.371,0,0,0-.563-3.321l3.5-2.354-2.579-3.837L202,31.7a10.343,10.343,0,0,0-3.441-2.316l.835-4.252-4.538-.89L194,28.626a10.3,10.3,0,0,0-2.76.537l-2.353-3.5-3.839,2.578L187.3,31.59a10.346,10.346,0,0,0-2.316,3.442l-3.716-.73-.891,4.537,3.848.755a10.332,10.332,0,0,0,.817,3.5l-3.353,2.252,2.579,3.838,3.5-2.353a10.352,10.352,0,0,0,3.38,1.964l-.84,4.277,4.537.89.911-4.637a10.287,10.287,0,0,0,2.937-.774l2.252,3.353,3.838-2.579-2.354-3.5a10.351,10.351,0,0,0,1.542-2.353Zm-11.4-1.817a4.238,4.238,0,1,1,1.154-5.881,4.243,4.243,0,0,1-1.154,5.881" transform="translate(-27.714 -3.725)" fill="#eae7fc"/>
        <path id="Trazado_874600" data-name="Trazado 874600" d="M464.5,132.55l1.178-6.008-5.628-1.1a13.763,13.763,0,0,0-.745-4.4l4.637-3.116-3.414-5.082-4.439,2.983a13.714,13.714,0,0,0-4.557-3.065l1.106-5.63-6.008-1.178-1.138,5.8a13.65,13.65,0,0,0-3.655.712l-3.116-4.639-5.082,3.414,2.983,4.439a13.7,13.7,0,0,0-3.065,4.557l-4.921-.967-1.18,6.008,5.094,1a13.659,13.659,0,0,0,1.082,4.635l-4.44,2.983,3.414,5.082,4.639-3.115a13.712,13.712,0,0,0,4.476,2.6l-1.113,5.664,6.008,1.178,1.205-6.139a13.589,13.589,0,0,0,3.889-1.026l2.983,4.44,5.082-3.414-3.115-4.638a13.712,13.712,0,0,0,2.041-3.115Zm-15.089-2.406a5.612,5.612,0,1,1,1.529-7.787,5.617,5.617,0,0,1-1.529,7.787" transform="translate(-65.677 -16.279)" fill="#cbc4f8"/>
        <path id="Trazado_874601" data-name="Trazado 874601" d="M295.165,330.867c4-8.164,10.706-23.495,13.283-39.1,4.07-24.669,15.575-26.273,20.116-19.471,10.974,16.438-10.849,45.018-22.743,58.574Z" transform="translate(-45.351 -41.304)" fill="#99eca7"/>
        <path id="Trazado_874602" data-name="Trazado 874602" d="M315.008,307.282a162.749,162.749,0,0,1-13.983,26.443H299.7a160.724,160.724,0,0,0,14.284-26.853,169.449,169.449,0,0,0,6.813-19.047.549.549,0,0,1,1.06.289,170.607,170.607,0,0,1-6.853,19.168" transform="translate(-46.049 -44.161)" fill="#af9f9d"/>
        <path id="Trazado_874603" data-name="Trazado 874603" d="M299.83,328.3c9.539-9.966,25.82-28.559,36.5-49.369,17.147-33.422,34.342-30.434,37.716-18.62,7.229,25.315-26.807,52.45-50.814,67.989Z" transform="translate(-46.068 -38.74)" fill="#c4facd"/>
        <path id="Trazado_874604" data-name="Trazado 874604" d="M311.661,332.306h-2.587a245.883,245.883,0,0,0,29.979-29.622,254.646,254.646,0,0,0,18.489-24.121.825.825,0,0,1,1.383.9,256.367,256.367,0,0,1-18.6,24.275,249.689,249.689,0,0,1-28.662,28.568" transform="translate(-47.488 -42.743)" fill="#cdbfbc"/>
        <path id="Trazado_874605" data-name="Trazado 874605" d="M90.1,330.867c-4-8.164-10.706-23.495-13.282-39.1-4.071-24.669-15.576-26.273-20.117-19.471C45.731,288.73,67.554,317.31,79.448,330.867Z" transform="translate(-8.252 -41.304)" fill="#99eca7"/>
        <path id="Trazado_874606" data-name="Trazado 874606" d="M72.842,307.282a162.746,162.746,0,0,0,13.983,26.443h1.322a160.737,160.737,0,0,1-14.285-26.853,169.452,169.452,0,0,1-6.813-19.047.549.549,0,0,0-1.06.289,170.614,170.614,0,0,0,6.853,19.168" transform="translate(-10.136 -44.161)" fill="#af9f9d"/>
        <path id="Trazado_874607" data-name="Trazado 874607" d="M78.394,328.3c-9.539-9.966-25.82-28.559-36.5-49.369C24.751,245.511,7.555,248.5,4.182,260.313-3.047,285.628,30.989,312.763,55,328.3Z" transform="translate(-0.491 -38.74)" fill="#c4facd"/>
        <path id="Trazado_874608" data-name="Trazado 874608" d="M71.14,332.306h2.587A245.873,245.873,0,0,1,43.75,302.684a254.58,254.58,0,0,1-18.49-24.121.825.825,0,0,0-1.383.9,256.365,256.365,0,0,0,18.6,24.275A249.687,249.687,0,0,0,71.14,332.306" transform="translate(-3.648 -42.743)" fill="#cdbfbc"/>
        <path id="Trazado_874609" data-name="Trazado 874609" d="M438.354,292.256c-7.456-6.712-29.93,4.5-42.818,19.946l13.174-25.594a35.184,35.184,0,0,1,13.9-5.835c9.637-2.035,19.541-5.915,14.858-10.13-4.712-4.242-18.944,2.878-27.054,12.653l2.789-5.419c11.36-13.213,17.189-35.04,11.033-39.278s-9.3,8.51-9.974,22.1a56.213,56.213,0,0,1-3.023,14.466L405.819,285.7c1.47-11.116-1.106-22.968-6.444-24.15-6.152-1.362-3.555,8.953.389,17.978a38.706,38.706,0,0,1,3.209,11.7l-16.588,32.189h3.361l3.044-5.877c3.39-2.53,10.433-6.765,21.988-9.2,15.29-3.23,31-9.386,23.574-16.075" transform="translate(-59.367 -36.533)" fill="#c4facd"/>
        <path id="Trazado_874610" data-name="Trazado 874610" d="M174.784,294.989c7.456-6.712,29.93,4.505,42.818,19.946l-13.173-25.594a35.185,35.185,0,0,0-13.9-5.835c-9.637-2.035-19.541-5.915-14.858-10.13,4.712-4.242,18.944,2.878,27.054,12.653l-2.789-5.419c-11.36-13.213-17.189-35.04-11.033-39.278s9.3,8.509,9.974,22.1A56.212,56.212,0,0,0,201.9,277.9l5.419,10.529c-1.47-11.115,1.106-22.968,6.444-24.15,6.152-1.362,3.555,8.953-.389,17.978a38.706,38.706,0,0,0-3.209,11.7l16.588,32.189h-3.361l-3.044-5.877c-3.39-2.53-10.433-6.765-21.988-9.2-15.29-3.23-31-9.386-23.574-16.075" transform="translate(-26.563 -36.953)" fill="#c4facd"/>
        <path id="Trazado_874611" data-name="Trazado 874611" d="M318.556,7.338V185.265a6.058,6.058,0,0,1-6.057,6.057H233.032a6.058,6.058,0,0,1-6.057-6.057V7.338a4.517,4.517,0,0,1,4.517-4.518h82.546a4.518,4.518,0,0,1,4.518,4.518" transform="translate(-34.874 -0.433)" fill="#d4fefa"/>
        <g id="Grupo_1101384" data-name="Grupo 1101384" transform="translate(205.376 98.727)">
          <g id="Grupo_1101383" data-name="Grupo 1101383">
            <g id="Grupo_1101382" data-name="Grupo 1101382" clip-path="url(#clip-path-3)">
              <g id="Grupo_1101366" data-name="Grupo 1101366" opacity="0.3">
                <g id="Grupo_1101365" data-name="Grupo 1101365">
                  <g id="Grupo_1101364" data-name="Grupo 1101364" clip-path="url(#clip-path-4)">
                    <path id="Trazado_874612" data-name="Trazado 874612" d="M305.679,120.674H244.673a2.012,2.012,0,1,1,0-4.024h61.007a2.012,2.012,0,0,1,0,4.024" transform="translate(-242.66 -116.65)" fill="#123e3a"/>
                  </g>
                </g>
              </g>
              <g id="Grupo_1101369" data-name="Grupo 1101369" transform="translate(0 12.76)" opacity="0.3">
                <g id="Grupo_1101368" data-name="Grupo 1101368">
                  <g id="Grupo_1101367" data-name="Grupo 1101367" clip-path="url(#clip-path-4)">
                    <path id="Trazado_874613" data-name="Trazado 874613" d="M305.679,135.751H244.673a2.012,2.012,0,1,1,0-4.024h61.007a2.012,2.012,0,0,1,0,4.024" transform="translate(-242.66 -131.727)" fill="#123e3a"/>
                  </g>
                </g>
              </g>
              <g id="Grupo_1101372" data-name="Grupo 1101372" transform="translate(0 25.521)" opacity="0.3">
                <g id="Grupo_1101371" data-name="Grupo 1101371">
                  <g id="Grupo_1101370" data-name="Grupo 1101370" clip-path="url(#clip-path-4)">
                    <path id="Trazado_874614" data-name="Trazado 874614" d="M305.679,150.828H244.673a2.012,2.012,0,1,1,0-4.024h61.007a2.012,2.012,0,0,1,0,4.024" transform="translate(-242.66 -146.804)" fill="#123e3a"/>
                  </g>
                </g>
              </g>
              <g id="Grupo_1101375" data-name="Grupo 1101375" transform="translate(0 38.282)" opacity="0.3">
                <g id="Grupo_1101374" data-name="Grupo 1101374">
                  <g id="Grupo_1101373" data-name="Grupo 1101373" clip-path="url(#clip-path-4)">
                    <path id="Trazado_874615" data-name="Trazado 874615" d="M305.679,165.905H244.673a2.012,2.012,0,1,1,0-4.024h61.007a2.012,2.012,0,0,1,0,4.024" transform="translate(-242.66 -161.882)" fill="#123e3a"/>
                  </g>
                </g>
              </g>
              <g id="Grupo_1101378" data-name="Grupo 1101378" transform="translate(0 51.043)" opacity="0.3">
                <g id="Grupo_1101377" data-name="Grupo 1101377">
                  <g id="Grupo_1101376" data-name="Grupo 1101376" clip-path="url(#clip-path-4)">
                    <path id="Trazado_874616" data-name="Trazado 874616" d="M305.679,180.982H244.673a2.012,2.012,0,1,1,0-4.024h61.007a2.012,2.012,0,0,1,0,4.024" transform="translate(-242.66 -176.959)" fill="#123e3a"/>
                  </g>
                </g>
              </g>
              <g id="Grupo_1101381" data-name="Grupo 1101381" transform="translate(0 63.803)" opacity="0.3">
                <g id="Grupo_1101380" data-name="Grupo 1101380">
                  <g id="Grupo_1101379" data-name="Grupo 1101379" clip-path="url(#clip-path-4)">
                    <path id="Trazado_874617" data-name="Trazado 874617" d="M305.679,196.059H244.673a2.012,2.012,0,1,1,0-4.024h61.007a2.012,2.012,0,0,1,0,4.024" transform="translate(-242.66 -192.036)" fill="#123e3a"/>
                  </g>
                </g>
              </g>
            </g>
          </g>
        </g>
        <path id="Trazado_874618" data-name="Trazado 874618" d="M318.556,7.338V19.864H226.975V7.338a4.517,4.517,0,0,1,4.517-4.518h82.546a4.518,4.518,0,0,1,4.518,4.518" transform="translate(-34.874 -0.433)" fill="#99eca7"/>
        <path id="Trazado_874619" data-name="Trazado 874619" d="M307.9,11.378A2.977,2.977,0,1,1,304.921,8.4a2.977,2.977,0,0,1,2.977,2.977" transform="translate(-46.393 -1.291)" fill="#93fdf3"/>
        <path id="Trazado_874620" data-name="Trazado 874620" d="M319.3,11.378A2.977,2.977,0,1,1,316.324,8.4a2.977,2.977,0,0,1,2.978,2.977" transform="translate(-48.145 -1.291)" fill="#3fd1bc"/>
        <path id="Trazado_874621" data-name="Trazado 874621" d="M330.22,11.378A2.977,2.977,0,1,1,327.242,8.4a2.977,2.977,0,0,1,2.978,2.977" transform="translate(-49.822 -1.291)" fill="#002029"/>
        <path id="Trazado_874622" data-name="Trazado 874622" d="M290.961,73.31H264.043a6.247,6.247,0,0,1-6.229-6.229V66.66a6.247,6.247,0,0,1,6.229-6.229h26.917a6.247,6.247,0,0,1,6.229,6.229v.421a6.247,6.247,0,0,1-6.229,6.229" transform="translate(-39.612 -9.285)" fill="#3fd1bc"/>
        <rect id="Rectángulo_402054" data-name="Rectángulo 402054" width="2.553" height="17.848" transform="translate(209.866 36.61)" fill="#0c4e73"/>
        <path id="Trazado_874623" data-name="Trazado 874623" d="M251.833,42.733a2.886,2.886,0,1,1-2.886-2.886,2.886,2.886,0,0,1,2.886,2.886" transform="translate(-37.807 -6.122)" fill="#173953"/>
        <path id="Trazado_874624" data-name="Trazado 874624" d="M250.518,58.419V60.3c-.646.19-1.686.5-2.553.759V59.018s1.736-.461,2.553-.6" transform="translate(-38.099 -8.976)" fill="#173953"/>
        <path id="Trazado_874625" data-name="Trazado 874625" d="M244.724,69.853a2.888,2.888,0,0,1-2.211,2.807,2.846,2.846,0,0,1-.674.08,2.949,2.949,0,0,1-.524-.047,2.887,2.887,0,0,1-.039-5.671,2.932,2.932,0,0,1,.563-.055,2.846,2.846,0,0,1,.674.08,2.886,2.886,0,0,1,2.211,2.807" transform="translate(-36.714 -10.289)" fill="#173953"/>
        <path id="Trazado_874626" data-name="Trazado 874626" d="M265.755,68.849a8.444,8.444,0,0,1-8.418,8.418h-7.151a8.246,8.246,0,0,1-1.463-.13,8.42,8.42,0,0,1-.262-16.526,8.3,8.3,0,0,1,1.725-.179h7.151a8.441,8.441,0,0,1,8.418,8.418" transform="translate(-37.147 -9.285)" fill="#0c4e73"/>
        <path id="Trazado_874627" data-name="Trazado 874627" d="M253.791,76.852c-.014.146-.028.284-.047.414h-2.816a8.246,8.246,0,0,1-1.462-.129,17.976,17.976,0,0,1-2.816-8.287A10.678,10.678,0,0,1,249.2,60.61a8.223,8.223,0,0,1,1.724-.179h2.28c1.86,3.422.834,13.5.582,16.421" transform="translate(-37.89 -9.285)" fill="#173953"/>
        <rect id="Rectángulo_402055" data-name="Rectángulo 402055" width="2.553" height="17.848" transform="translate(264.23 36.61)" fill="#0c4e73"/>
        <path id="Trazado_874628" data-name="Trazado 874628" d="M310.3,42.733a2.886,2.886,0,1,0,2.886-2.886,2.886,2.886,0,0,0-2.886,2.886" transform="translate(-47.676 -6.122)" fill="#173953"/>
        <path id="Trazado_874629" data-name="Trazado 874629" d="M312.2,58.419V60.3c.646.19,1.686.5,2.553.759V59.018s-1.736-.461-2.553-.6" transform="translate(-47.968 -8.976)" fill="#173953"/>
        <path id="Trazado_874630" data-name="Trazado 874630" d="M317.4,69.853a2.886,2.886,0,1,0,2.885-2.886,2.886,2.886,0,0,0-2.885,2.886" transform="translate(-48.768 -10.289)" fill="#173953"/>
        <path id="Trazado_874631" data-name="Trazado 874631" d="M293.07,68.849a8.444,8.444,0,0,0,8.418,8.418h7.151a8.246,8.246,0,0,0,1.462-.13,8.42,8.42,0,0,0,.262-16.526,8.294,8.294,0,0,0-1.725-.179h-7.151a8.441,8.441,0,0,0-8.418,8.418" transform="translate(-45.029 -9.285)" fill="#0c4e73"/>
        <path id="Trazado_874632" data-name="Trazado 874632" d="M307.991,76.852c.014.146.028.284.047.414h2.815a8.245,8.245,0,0,0,1.462-.129,17.984,17.984,0,0,0,2.817-8.287,10.685,10.685,0,0,0-2.554-8.238,8.237,8.237,0,0,0-1.725-.179h-2.28c-1.86,3.422-.834,13.5-.582,16.421" transform="translate(-47.244 -9.285)" fill="#173953"/>
        <path id="Trazado_874633" data-name="Trazado 874633" d="M303.643,66.6a16.331,16.331,0,0,1-.386,3.546l0,.008a16.575,16.575,0,0,1-16.117,12.955H265.98a16.575,16.575,0,0,1-16.123-12.964,16.419,16.419,0,0,1,1.656-11.47A16.575,16.575,0,0,1,265.98,50.1h21.157a16.537,16.537,0,0,1,14.34,8.359l.006.005a16.371,16.371,0,0,1,2.161,8.142" transform="translate(-38.33 -7.697)" fill="#93fdf3"/>
        <path id="Trazado_874634" data-name="Trazado 874634" d="M264.555,71.955a4.784,4.784,0,1,1,0-9.567h26.5a4.784,4.784,0,0,1,0,9.567Z" transform="translate(-39.913 -9.586)" fill="#173953"/>
        <path id="Trazado_874635" data-name="Trazado 874635" d="M269.2,69.556a2.885,2.885,0,1,1,0-4.079,2.885,2.885,0,0,1,0,4.079" transform="translate(-40.605 -9.93)" fill="#fff"/>
        <path id="Trazado_874636" data-name="Trazado 874636" d="M269.357,69.71a2.885,2.885,0,0,1-4.081,0l4.081-4.08a2.885,2.885,0,0,1,0,4.079" transform="translate(-40.759 -10.084)" fill="#dfdfdf"/>
        <path id="Trazado_874637" data-name="Trazado 874637" d="M296.782,69.556a2.885,2.885,0,1,1,0-4.079,2.884,2.884,0,0,1,0,4.079" transform="translate(-44.843 -9.93)" fill="#fff"/>
        <path id="Trazado_874638" data-name="Trazado 874638" d="M296.935,69.71a2.884,2.884,0,0,1-4.08,0l4.08-4.08a2.885,2.885,0,0,1,0,4.079" transform="translate(-44.996 -10.084)" fill="#dfdfdf"/>
        <path id="Trazado_874639" data-name="Trazado 874639" d="M287.386,83.12h-17.52a2.543,2.543,0,0,1-2.536-2.537v-.171a2.544,2.544,0,0,1,2.537-2.537h17.519a2.544,2.544,0,0,1,2.536,2.537v.171a2.544,2.544,0,0,1-2.536,2.537" transform="translate(-41.075 -11.965)" fill="#3fd1bc"/>
        <path id="Trazado_874640" data-name="Trazado 874640" d="M288.421,80.725a1.448,1.448,0,0,1-.022.243,1.385,1.385,0,0,1-1.358,1.137H270.879a1.387,1.387,0,0,1-1.358-1.137,1.448,1.448,0,0,1-.022-.243,1.386,1.386,0,0,1,1.38-1.38h16.161a1.384,1.384,0,0,1,1.38,1.38" transform="translate(-41.408 -12.191)" fill="#dfdfdf"/>
        <path id="Trazado_874641" data-name="Trazado 874641" d="M280.789,96.4h-.3a4.454,4.454,0,0,1-4.454-4.454V89.1h9.208v2.841a4.454,4.454,0,0,1-4.453,4.454" transform="translate(-42.412 -13.691)" fill="#173953"/>
        <path id="Trazado_874642" data-name="Trazado 874642" d="M206.033,342.285c0,4.8-46.122,8.7-103.016,8.7S0,347.089,0,342.285s46.122-8.7,103.016-8.7,103.016,3.895,103.016,8.7" transform="translate(0 -51.254)" fill="#99eca7"/>
        <path id="Trazado_874643" data-name="Trazado 874643" d="M55.269,303.556a1.27,1.27,0,0,1-1.27-1.27V282.048a1.274,1.274,0,0,1,.372-.9l10.522-10.522V259.562L53.935,248.6a1.275,1.275,0,0,1-.372-.9V223.991a1.27,1.27,0,0,1,2.541,0V247.18l10.958,10.958a1.271,1.271,0,0,1,.372.9v12.119a1.272,1.272,0,0,1-.372.9L56.54,282.574v19.712a1.27,1.27,0,0,1-1.27,1.27" transform="translate(-8.23 -34.22)" fill="#93fdf3"/>
        <path id="Trazado_874644" data-name="Trazado 874644" d="M83.646,311.742a1.27,1.27,0,0,1-1.27-1.27V287.533a1.268,1.268,0,0,1,.372-.9L87.38,282V267.709a1.27,1.27,0,0,1,2.541,0v14.819a1.268,1.268,0,0,1-.372.9l-4.632,4.633v22.412a1.27,1.27,0,0,1-1.27,1.27" transform="translate(-12.657 -40.938)" fill="#93fdf3"/>
        <path id="Trazado_874645" data-name="Trazado 874645" d="M111.471,304.744a1.27,1.27,0,0,1-1.27-1.27v-52.1L99.16,240.337a1.269,1.269,0,0,1-.372-.9V222.164a1.27,1.27,0,1,1,2.541,0v16.748l11.041,11.042a1.266,1.266,0,0,1,.372.9v52.621a1.27,1.27,0,0,1-1.27,1.27" transform="translate(-15.178 -33.94)" fill="#93fdf3"/>
        <path id="Trazado_874646" data-name="Trazado 874646" d="M141.674,308.642a1.27,1.27,0,0,1-1.27-1.27V292.814l-8.486-8.486a1.271,1.271,0,0,1-.372-.9V259.089a1.271,1.271,0,0,1,.372-.9l8.029-8.029V235a1.27,1.27,0,1,1,2.54,0v15.689a1.268,1.268,0,0,1-.372.9l-8.029,8.029V282.9l8.486,8.486a1.269,1.269,0,0,1,.372.9v15.084a1.27,1.27,0,0,1-1.27,1.27" transform="translate(-20.212 -35.912)" fill="#93fdf3"/>
        <path id="Trazado_874647" data-name="Trazado 874647" d="M164.522,311.933a1.27,1.27,0,0,1-1.27-1.27V303.4a1.269,1.269,0,0,1,.372-.9l8.215-8.214V281.61l-7.769-7.769a1.268,1.268,0,0,1-.372-.9V251.249a1.27,1.27,0,0,1,2.541,0v21.167l7.768,7.769a1.267,1.267,0,0,1,.372.9v13.735a1.271,1.271,0,0,1-.372.9l-8.214,8.214v6.732a1.27,1.27,0,0,1-1.27,1.27" transform="translate(-25.083 -38.409)" fill="#93fdf3"/>
        <path id="Trazado_874648" data-name="Trazado 874648" d="M181.894,305.8a1.271,1.271,0,0,1-1.271-1.27v-31.71l-5.155-5.156a1.27,1.27,0,0,1-.373-.9v-6.216a1.268,1.268,0,0,1,.373-.9l4.474-4.476V238.579a1.271,1.271,0,0,1,2.542,0V255.7a1.268,1.268,0,0,1-.373.9l-4.475,4.476v5.164l5.156,5.156a1.271,1.271,0,0,1,.372.9v32.237a1.27,1.27,0,0,1-1.27,1.27" transform="translate(-26.903 -36.462)" fill="#93fdf3"/>
        <path id="Trazado_874649" data-name="Trazado 874649" d="M59.695,221.111a5.658,5.658,0,1,1-5.658-5.658,5.658,5.658,0,0,1,5.658,5.658" transform="translate(-7.433 -33.104)" fill="#173953"/>
        <path id="Trazado_874650" data-name="Trazado 874650" d="M94.421,263.171a5.658,5.658,0,1,1-5.658-5.658,5.658,5.658,0,0,1,5.658,5.658" transform="translate(-12.769 -39.566)" fill="#173953"/>
        <path id="Trazado_874651" data-name="Trazado 874651" d="M104.92,219.05a5.658,5.658,0,1,1-5.659-5.658,5.659,5.659,0,0,1,5.659,5.658" transform="translate(-14.382 -32.787)" fill="#173953"/>
        <path id="Trazado_874652" data-name="Trazado 874652" d="M147.6,232.42a5.658,5.658,0,1,1-5.658-5.658,5.658,5.658,0,0,1,5.658,5.658" transform="translate(-20.94 -34.841)" fill="#173953"/>
        <path id="Trazado_874653" data-name="Trazado 874653" d="M169.911,248.464a5.658,5.658,0,1,1-5.658-5.658,5.658,5.658,0,0,1,5.658,5.658" transform="translate(-24.368 -37.306)" fill="#173953"/>
        <path id="Trazado_874654" data-name="Trazado 874654" d="M186.953,234.2a5.658,5.658,0,1,1-5.658-5.657,5.658,5.658,0,0,1,5.658,5.657" transform="translate(-26.986 -35.115)" fill="#173953"/>
        <path id="Trazado_874655" data-name="Trazado 874655" d="M194.883,327.53v7.921a6.81,6.81,0,0,1-6.789,6.789H22.884a6.81,6.81,0,0,1-6.789-6.789V327.53a6.81,6.81,0,0,1,6.789-6.789H188.093a6.809,6.809,0,0,1,6.789,6.789" transform="translate(-2.473 -49.281)" fill="#173953"/>
        <path id="Trazado_874656" data-name="Trazado 874656" d="M194.883,333.108v4.244a6.81,6.81,0,0,1-6.789,6.789H22.884a6.81,6.81,0,0,1-6.789-6.789v-4.244Z" transform="translate(-2.473 -51.181)" fill="#002029"/>
        <path id="Trazado_874657" data-name="Trazado 874657" d="M174.971,283.822H42.537a8.393,8.393,0,0,1-8.392-8.393V130.11c0-41.171,33-75.193,74.174-75.43a74.693,74.693,0,0,1,75.045,74.609v146.14a8.393,8.393,0,0,1-8.392,8.393M45.932,276.467H171.577a4.432,4.432,0,0,0,4.432-4.432V130.029c0-37.112-29.75-67.78-66.861-67.993A67.329,67.329,0,0,0,41.5,129.289V272.035a4.431,4.431,0,0,0,4.432,4.432" transform="translate(-5.246 -8.401)" fill="#173953"/>
        <path id="Trazado_874658" data-name="Trazado 874658" d="M166.306,138.125v17.592H69.126a8.184,8.184,0,0,1-8.177-8.177v-5.654c0-.328,0-.654.013-.967.014-.913.054-1.826.124-2.728a46.733,46.733,0,0,1,.642-5c.162-.913.353-1.826.57-2.725a47.4,47.4,0,0,1,2.658-7.944c.394-.926.817-1.826,1.281-2.724a48.3,48.3,0,0,1,6.118-9.253c.79-.94,1.61-1.854,2.481-2.724a46.033,46.033,0,0,1,4.581-4.153v0a49.3,49.3,0,0,1,4.138-2.944,49.867,49.867,0,0,1,4.865-2.724,48.755,48.755,0,0,1,13.137-4.211c.9-.151,1.811-.271,2.724-.383a51.211,51.211,0,0,1,5.449-.3H121.3c1.308,0,2.589.054,3.87.178.913.067,1.811.163,2.713.3a44.839,44.839,0,0,1,26.679,14.241c.817.871,1.579,1.784,2.3,2.724a44.708,44.708,0,0,1,4.455,6.977c.464.9.9,1.8,1.3,2.724a44.665,44.665,0,0,1,3.556,14.415c.069.9.108,1.815.124,2.728.012.244.012.488.012.735" transform="translate(-9.365 -14.305)" fill="#93fdf3"/>
        <path id="Trazado_874659" data-name="Trazado 874659" d="M172.9,167.087c0,2.616-1.061,4.551-2.8,6.968-.066.1-.151.214-.232.332L160.85,183.4a23.237,23.237,0,0,1-16.417,6.8,17.957,17.957,0,0,1-10.675-3.162,54.847,54.847,0,0,1-7.562-6.95l-.465-.464H116.35a12.556,12.556,0,0,1-12.544-12.544Z" transform="translate(-15.949 -25.672)" fill="#93fdf3"/>
        <path id="Trazado_874660" data-name="Trazado 874660" d="M172.9,167.087c0,2.616-1.061,4.551-2.8,6.968-.066.1-.151.214-.232.332L160.85,183.4a23.237,23.237,0,0,1-16.417,6.8,17.957,17.957,0,0,1-10.675-3.162,54.847,54.847,0,0,1-7.562-6.95l-.465-.464H116.35a12.556,12.556,0,0,1-12.544-12.544Z" transform="translate(-15.949 -25.672)" fill="#3fd1bc"/>
        <path id="Trazado_874661" data-name="Trazado 874661" d="M168.6,181.909l-3.773,3.773a23.224,23.224,0,0,1-16.416,6.8,17.964,17.964,0,0,1-10.673-3.161,54.809,54.809,0,0,1-7.563-6.95l-.463-.463Z" transform="translate(-19.93 -27.95)" fill="#173953"/>
        <path id="Trazado_874662" data-name="Trazado 874662" d="M76.962,155.453H74.237a6.356,6.356,0,0,0-6.349-6.349H60.965c.014-.913.054-1.826.123-2.725h6.8a9.089,9.089,0,0,1,9.075,9.075" transform="translate(-9.367 -22.491)" fill="#173953"/>
        <path id="Trazado_874663" data-name="Trazado 874663" d="M89.759,121.954a15.435,15.435,0,0,1-1.117,5.791,14.726,14.726,0,0,1-1.418,2.725,15.614,15.614,0,0,1-13.135,7.154H61.866c.164-.913.355-1.826.573-2.725h11.65a12.957,12.957,0,0,0,12.945-12.945Z" transform="translate(-9.506 -18.738)" fill="#173953"/>
        <path id="Trazado_874664" data-name="Trazado 874664" d="M180.016,153.862v2.725H161.647A11.707,11.707,0,0,1,150.174,144.9H152.9a8.973,8.973,0,0,0,8.966,8.966Z" transform="translate(-23.074 -22.263)" fill="#173953"/>
        <path id="Trazado_874665" data-name="Trazado 874665" d="M78.546,124.643v2.725H65.681c.4-.927.818-1.826,1.281-2.725Z" transform="translate(-10.092 -19.151)" fill="#173953"/>
        <path id="Trazado_874666" data-name="Trazado 874666" d="M168.376,113.216H151.044A12.451,12.451,0,0,0,138.6,125.643h-2.725a15.035,15.035,0,0,1,1.907-7.331,14.277,14.277,0,0,1,1.731-2.48,15.062,15.062,0,0,1,11.528-5.341h15.03c.818.872,1.581,1.785,2.3,2.725" transform="translate(-20.877 -16.977)" fill="#173953"/>
        <path id="Trazado_874667" data-name="Trazado 874667" d="M177.483,124.679H157.725v-2.725h18.463c.464.9.9,1.8,1.295,2.725" transform="translate(-24.234 -18.738)" fill="#173953"/>
        <path id="Trazado_874668" data-name="Trazado 874668" d="M110.383,143.286v2.725A7.089,7.089,0,0,0,103.3,153.1v10.328h-2.725V153.1a2.212,2.212,0,0,1,.014-.3,9.155,9.155,0,0,1,.449-2.685,9.832,9.832,0,0,1,9.348-6.827" transform="translate(-15.453 -22.015)" fill="#173953"/>
        <path id="Trazado_874669" data-name="Trazado 874669" d="M119.99,108.882v2.725a11.073,11.073,0,0,1-11.064-11.064v-6.7c.9-.15,1.812-.273,2.725-.382v7.086a8.339,8.339,0,0,0,8.339,8.339" transform="translate(-16.736 -14.359)" fill="#173953"/>
        <path id="Trazado_874670" data-name="Trazado 874670" d="M138.032,93.613a11.07,11.07,0,0,1-11.01,10v-2.725a8.34,8.34,0,0,0,8.3-7.576c.913.068,1.812.163,2.712.3" transform="translate(-19.517 -14.337)" fill="#173953"/>
        <path id="Trazado_874671" data-name="Trazado 874671" d="M102.262,122.577H99.537a9.381,9.381,0,0,0-9.375-9.362H74.424c.79-.939,1.608-1.853,2.48-2.724H90.162a12.113,12.113,0,0,1,12.1,12.086" transform="translate(-11.435 -16.977)" fill="#173953"/>
        <path id="Trazado_874672" data-name="Trazado 874672" d="M139.237,118.419h-.245a8.952,8.952,0,0,1-8.942-8.942h2.724a6.224,6.224,0,0,0,6.217,6.216h.245Z" transform="translate(-19.982 -16.821)" fill="#173953"/>
        <path id="Trazado_874673" data-name="Trazado 874673" d="M100.949,152.421a7.716,7.716,0,0,1-7.707-7.708v-4.781h2.724v4.781a4.988,4.988,0,0,0,4.982,4.982Z" transform="translate(-14.326 -21.5)" fill="#173953"/>
        <path id="Trazado_874674" data-name="Trazado 874674" d="M134.2,176.469h-2.725V161.782a3.585,3.585,0,0,0-3.582-3.581,6.313,6.313,0,0,1-6.306-6.307V146.5h2.725v5.39a3.585,3.585,0,0,0,3.581,3.582,6.313,6.313,0,0,1,6.307,6.306Z" transform="translate(-18.681 -22.51)" fill="#173953"/>
        <path id="Trazado_874675" data-name="Trazado 874675" d="M134.879,171.959v-2.725a6.366,6.366,0,0,0,6.359-6.359V161.4h2.725v1.477a9.094,9.094,0,0,1-9.084,9.084" transform="translate(-20.724 -24.798)" fill="#173953"/>
        <path id="Trazado_874676" data-name="Trazado 874676" d="M125.121,141.514H122.4a10,10,0,0,0-9.993-9.993H90.954V128.8H112.4a12.732,12.732,0,0,1,12.718,12.718" transform="translate(-13.975 -19.789)" fill="#173953"/>
        <path id="Trazado_874677" data-name="Trazado 874677" d="M137.313,135.561H127.02v-2.724h10.293a7.268,7.268,0,0,0,7.26-7.26H147.3a10,10,0,0,1-9.985,9.984" transform="translate(-19.516 -19.295)" fill="#173953"/>
        <path id="Trazado_874678" data-name="Trazado 874678" d="M173.263,168.233a9.549,9.549,0,0,1-9.538-9.538V157.1h2.725v1.59a6.821,6.821,0,0,0,6.813,6.813Z" transform="translate(-25.156 -24.139)" fill="#173953"/>
        <path id="Trazado_874679" data-name="Trazado 874679" d="M162.756,133.1h-2.385v-2.725h2.385a6.821,6.821,0,0,0,6.813-6.813h2.725a9.55,9.55,0,0,1-9.538,9.538" transform="translate(-24.641 -18.985)" fill="#173953"/>
        <path id="Trazado_874680" data-name="Trazado 874680" d="M182.909,144.932H169.092v-2.725h13.694c.069.9.109,1.812.123,2.725" transform="translate(-25.98 -21.85)" fill="#173953"/>
        <path id="Trazado_874681" data-name="Trazado 874681" d="M101.012,105.8H98.287a4.2,4.2,0,0,0-4.2-4.2H87.658a50.045,50.045,0,0,1,4.865-2.725h1.567a6.932,6.932,0,0,1,6.922,6.922" transform="translate(-13.468 -15.193)" fill="#173953"/>
        <path id="Trazado_874682" data-name="Trazado 874682" d="M70.416,167.082V175a1.35,1.35,0,0,0,1.4,1.35h.028A1.351,1.351,0,0,0,73.141,175v-7.919Z" transform="translate(-10.819 -25.672)" fill="#173953"/>
        <path id="Trazado_874683" data-name="Trazado 874683" d="M76.591,167.082V175a1.351,1.351,0,0,0,1.4,1.35h.027A1.351,1.351,0,0,0,79.316,175v-7.919Z" transform="translate(-11.768 -25.672)" fill="#173953"/>
        <path id="Trazado_874684" data-name="Trazado 874684" d="M82.767,167.082V175a1.35,1.35,0,0,0,1.4,1.35H84.2A1.351,1.351,0,0,0,85.492,175v-7.919Z" transform="translate(-12.717 -25.672)" fill="#173953"/>
        <path id="Trazado_874685" data-name="Trazado 874685" d="M88.942,167.082V175a1.351,1.351,0,0,0,1.4,1.35h.027A1.351,1.351,0,0,0,91.667,175v-7.919Z" transform="translate(-13.666 -25.672)" fill="#173953"/>
        <path id="Trazado_874686" data-name="Trazado 874686" d="M95.118,167.082V175a1.35,1.35,0,0,0,1.4,1.35h.027A1.351,1.351,0,0,0,97.843,175v-7.919Z" transform="translate(-14.615 -25.672)" fill="#173953"/>
        <path id="Trazado_874687" data-name="Trazado 874687" d="M346.573,345.488c0,3.072,20.075,5.562,44.839,5.562s44.839-2.49,44.839-5.562-20.076-5.562-44.839-5.562-44.839,2.49-44.839,5.562" transform="translate(-53.25 -52.229)" fill="#99eca7"/>
        <path id="Trazado_874688" data-name="Trazado 874688" d="M314.881,106.529A85.836,85.836,0,0,0,329.8,113.59a75.908,75.908,0,0,0,16.42,3.861,6.259,6.259,0,0,0,5.772-2.48l.49-.664,18.6-25.1A8.915,8.915,0,1,0,356.76,78.59a9.791,9.791,0,0,0-.614.949l-13.426,23.948a62.946,62.946,0,0,1-9.508-1.421,74.7,74.7,0,0,1-13.634-4.6l-.028-.012a5.113,5.113,0,0,0-4.67,9.076" transform="translate(-47.995 -11.521)" fill="#3fd1bc"/>
        <path id="Trazado_874689" data-name="Trazado 874689" d="M307.824,106.376h0c.069-.008.14-.019.212-.03,0,0,.139.113.383.286,1.175.832,4.79,3.061,7.1.863q.27-.258.505-.528a7.516,7.516,0,0,0,.481-.615,9.865,9.865,0,0,0,1.71-5.376s-1.655-5.879-4.477-6.285c-1.633-.236-2.308.292-2.585.78a1.452,1.452,0,0,0-.2.686s-.186-.1-.505-.281c-1.815-1-7.952-4.321-9-4.013-1.231.363,5.872,5.739,5.872,5.739s-1.115.111-2.318,3c-1.178,2.828-.676,6.253,2.818,5.777" transform="translate(-46.295 -14.111)" fill="#fdbb92"/>
        <path id="Trazado_874690" data-name="Trazado 874690" d="M311.035,103.634a.314.314,0,0,0-.19-.6,3.289,3.289,0,0,1-2.338-.93.314.314,0,1,0-.383.5c1.7,1.305,2.818,1.055,2.864,1.044a.43.43,0,0,0,.047-.015" transform="translate(-47.324 -15.678)" fill="#fdbb92"/>
        <path id="Trazado_874691" data-name="Trazado 874691" d="M310.385,106.506a.314.314,0,0,0-.157-.6,3.725,3.725,0,0,1-2.743-.907.314.314,0,1,0-.435.453,4.3,4.3,0,0,0,3.253,1.078.322.322,0,0,0,.083-.021" transform="translate(-47.162 -16.119)" fill="#fdbb92"/>
        <path id="Trazado_874692" data-name="Trazado 874692" d="M312.2,100.388a1.7,1.7,0,0,0,1.414-.1,13.619,13.619,0,0,0,3.294-2.325.314.314,0,1,0-.426-.461c-1.237,1.145-3.358,2.68-3.98,2.338-.213-.116-.265-.581-.141-1.281l.38-2.426a1.452,1.452,0,0,0-.2.686s-.185-.1-.505-.281l-.3,1.919c-.068.375-.273,1.537.459,1.937" transform="translate(-47.886 -14.77)" fill="#fdbb92"/>
        <path id="Trazado_874693" data-name="Trazado 874693" d="M309.009,107.522c.069-.008.14-.019.212-.03,0,0,.14.113.383.286,3.643-4.784.676-8.325.643-8.361a.313.313,0,1,0-.475.409c.118.14,2.709,3.271-.763,7.7" transform="translate(-47.478 -15.258)" fill="#fdbb92"/>
        <path id="Trazado_874694" data-name="Trazado 874694" d="M391.4,199.191l6.755,102-11.09-.684L363.111,173.273l26.091.885Z" transform="translate(-55.791 -26.623)" fill="#002029"/>
        <path id="Trazado_874695" data-name="Trazado 874695" d="M401.913,323.433l.78,9.7a13.316,13.316,0,0,1-8.469,1.028L392.617,322.7Z" transform="translate(-60.324 -49.581)" fill="#fdbb92"/>
        <path id="Trazado_874696" data-name="Trazado 874696" d="M389.648,321.075a9.659,9.659,0,0,0,.447,5.947l13.289-.625a15.306,15.306,0,0,0,.113-5.839Z" transform="translate(-59.823 -49.253)" fill="#173953"/>
        <path id="Trazado_874697" data-name="Trazado 874697" d="M367.11,345.384c.719,1.534,32.317-.113,32.317-.113s1-9.382.013-12.27-5.6.355-8.754-.371c0,0-1.892-2.619-3.426-2.531-.565.034-2.552,1.312-5.04,2.949-.4.265-.818.54-1.247.819q-.444.295-.9.592c-.493.326-1,.653-1.5.979l-.57.366h0c-.461.3-.925.59-1.384.876-2.77,1.727-5.391,3.184-6.909,3.453-4.062.719-3.32,3.711-2.6,5.247" transform="translate(-56.318 -50.719)" fill="#3fd1bc"/>
        <path id="Trazado_874698" data-name="Trazado 874698" d="M380.755,336.233a2.919,2.919,0,0,1,1.731.339,7.709,7.709,0,0,1,2.442,2.662.553.553,0,0,0,.326.267.565.565,0,0,0,.667-.812,8.686,8.686,0,0,0-2.91-3.121,4.562,4.562,0,0,0-.755-.313c-.829.071-1.522.256-1.5.98" transform="translate(-58.502 -51.511)" fill="#fff"/>
        <path id="Trazado_874699" data-name="Trazado 874699" d="M383.593,334.4a3.071,3.071,0,0,1,1.044.337,7.689,7.689,0,0,1,2.442,2.663.567.567,0,1,0,.992-.548,8.686,8.686,0,0,0-2.909-3.121,3.292,3.292,0,0,0-.322-.15c-.531.043-1.126.011-1.247.818" transform="translate(-58.938 -51.255)" fill="#fff"/>
        <path id="Trazado_874700" data-name="Trazado 874700" d="M378.444,337.717a3.006,3.006,0,0,1,1.375.36,7.7,7.7,0,0,1,2.44,2.662.567.567,0,1,0,.994-.546,8.726,8.726,0,0,0-2.91-3.121,4.606,4.606,0,0,0-.515-.231h0c-.9-.087-1.435.141-1.384.876" transform="translate(-58.146 -51.752)" fill="#fff"/>
        <path id="Trazado_874701" data-name="Trazado 874701" d="M424.92,301.153l-9.865.451L389.76,241.841l-4.844-67.651,22.742-2.585.212-.053,1.173-.295.044-.01,3.95-.775c-1.685,13.829-4.253,65.1-4.253,65.1a215.473,215.473,0,0,1,7.617,22.126c3.385,12.026,8.519,43.459,8.519,43.459" transform="translate(-59.141 -26.193)" fill="#173953"/>
        <path id="Trazado_874702" data-name="Trazado 874702" d="M426.207,300.646a.524.524,0,0,1-.114.01.634.634,0,0,1-.625-.521c-.059-.33-6.029-33.124-9.569-43.535-2.328-6.855-8.19-20.555-8.249-20.693a.634.634,0,0,1-.051-.286l3.755-63.927,1.173-.295-3.652,64.145c.623,1.465,6.006,14.121,8.227,20.645,3.572,10.5,9.556,43.387,9.617,43.719a.633.633,0,0,1-.512.736" transform="translate(-62.626 -26.335)" fill="#002029"/>
        <path id="Trazado_874703" data-name="Trazado 874703" d="M428.983,323.25l2.862,9.869a13.32,13.32,0,0,1-8.469,1.029l-2.851-11.57Z" transform="translate(-64.613 -49.563)" fill="#fdbb92"/>
        <path id="Trazado_874704" data-name="Trazado 874704" d="M417.287,321.953c-.487,2.369-.348,4.127,1.455,5.569l13.886-.807a9.559,9.559,0,0,0-.484-5.658Z" transform="translate(-64.078 -49.33)" fill="#2a5b74"/>
        <path id="Trazado_874705" data-name="Trazado 874705" d="M397.213,345.384c.719,1.534,32.317-.113,32.317-.113s1-9.382.013-12.27-5.6.355-8.754-.371c0,0-1.892-2.619-3.426-2.531-.565.034-2.552,1.312-5.04,2.949-.4.265-.819.54-1.247.819q-.444.295-.9.592c-.493.326-1,.653-1.5.979l-.57.366h0c-.461.3-.925.59-1.384.876-2.77,1.727-5.391,3.184-6.909,3.453-4.062.719-3.32,3.711-2.6,5.247" transform="translate(-60.943 -50.719)" fill="#93fdf3"/>
        <path id="Trazado_874706" data-name="Trazado 874706" d="M410.859,336.233a2.92,2.92,0,0,1,1.731.339,7.709,7.709,0,0,1,2.442,2.662.553.553,0,0,0,.326.267.565.565,0,0,0,.667-.812,8.686,8.686,0,0,0-2.91-3.121,4.562,4.562,0,0,0-.755-.313c-.829.071-1.522.256-1.5.98" transform="translate(-63.127 -51.511)" fill="#fff"/>
        <path id="Trazado_874707" data-name="Trazado 874707" d="M413.7,334.4a3.071,3.071,0,0,1,1.044.337,7.689,7.689,0,0,1,2.442,2.663.567.567,0,1,0,.992-.548,8.686,8.686,0,0,0-2.909-3.121,3.292,3.292,0,0,0-.322-.15c-.531.043-1.126.011-1.247.818" transform="translate(-63.563 -51.255)" fill="#fff"/>
        <path id="Trazado_874708" data-name="Trazado 874708" d="M408.547,337.717a3.006,3.006,0,0,1,1.375.36,7.7,7.7,0,0,1,2.44,2.662.567.567,0,1,0,.994-.546,8.727,8.727,0,0,0-2.91-3.121,4.661,4.661,0,0,0-.514-.231h0c-.9-.087-1.435.141-1.384.876" transform="translate(-62.772 -51.752)" fill="#fff"/>
        <path id="Trazado_874709" data-name="Trazado 874709" d="M365.315,59.224c2.079-5.458-1.473-12.358-1.473-12.358,2.515-.745,9.086,3.209,10.523,11.325.058.326.1.669.142,1.025a40.615,40.615,0,0,1-9.192.008" transform="translate(-55.903 -7.187)" fill="#002029"/>
        <path id="Trazado_874710" data-name="Trazado 874710" d="M409.308,154.343c-3.489,4.1-19.952,2.682-30.062,5.968s-16.142,2.217-17.368-.928c-.934-2.4-.154-10.286.939-19.657.092-.815.19-1.641.288-2.477.129-1.069.258-2.155.387-3.247.1-.823.2-1.653.295-2.481.011-.093.021-.186.032-.279.042-.351.082-.7.123-1.055q.114-.975.224-1.953.129-1.134.251-2.266c.009-.074.017-.146.025-.22.032-.307.069-.616.1-.921.206-1.914.4-3.806.561-5.648q.032-.353.063-.7c.011-.124.021-.25.032-.374.019-.234.038-.466.057-.7.5-6.161.678-11.625.117-15.229-.034-.229-.07-.46-.1-.695v0c-1.1-7.431-.982-13.8-.849-20.964.1-5.511.485-7.306,1.186-9.541,1.022-3.254,7.53-11.663,13.161-12.606A17.032,17.032,0,0,1,390.6,60.725c4.534,2.834,10.528,7.412,13.165,13.042a21.92,21.92,0,0,1,1.782,7.534v0c.427,5.25-.22,11.351-.605,17.615v0a73.731,73.731,0,0,0,.258,14.91c.267,1.831.647,3.85,1.1,5.986.078.366.157.737.239,1.11.062.281.123.567.189.853.114.519.235,1.045.358,1.575q.362,1.581.757,3.205c.195.8.392,1.609.591,2.42.258,1.052.521,2.11.781,3.165q.3,1.212.6,2.42c2.6,10.534,1.554,17.35-.508,19.778" transform="translate(-55.537 -8.933)" fill="#93fdf3"/>
        <path id="Trazado_874711" data-name="Trazado 874711" d="M390.989,92.228a.53.53,0,0,0-1.038.214c.047.22,4.448,21.779.24,27.848-2.043.23-17.048,1.911-24.3,2.616-.019.23-.036.437-.056.669-.01.125-.025.268-.035.394,7.687-.741,24.548-2.631,24.741-2.652a.531.531,0,0,0,.36-.206c4.717-6.19.278-27.96.087-28.883" transform="translate(-56.204 -14.106)" fill="#3fd1bc"/>
        <path id="Trazado_874712" data-name="Trazado 874712" d="M368.124,158.253a.534.534,0,0,1-.108-1.057c.131-.027,13.217-2.878,19.685-15.195a.534.534,0,0,1,.945.5A31.157,31.157,0,0,1,375.9,155.214a30.621,30.621,0,0,1-7.671,3.027.607.607,0,0,1-.109.011" transform="translate(-56.479 -21.774)" fill="#3fd1bc"/>
        <path id="Trazado_874713" data-name="Trazado 874713" d="M375.844,76.191a2.286,2.286,0,0,1-2.168-1.654c-1.354-3.4.665-11.009,3.662-13.795l.437.469c-2.794,2.6-4.759,9.937-3.5,13.089a1.654,1.654,0,0,0,1.573,1.25h.017c6.587-.057,11.81-14.852,11.862-15l.605.21c-.218.628-5.429,15.371-12.463,15.432h-.022" transform="translate(-57.348 -9.303)" fill="#fff"/>
        <path id="Trazado_874714" data-name="Trazado 874714" d="M370.576,52.515s.276.575.758,1.5l.082.157c.005.011.012.021.017.033.346.654.785,1.462,1.3,2.356.185.323.378.66.582,1,.184.309.375.626.572.945a37.279,37.279,0,0,0,4.861,6.5c5.015-1.887,8.445-4.37,9.632-7.7,0,0-5.478-6.563-5.676-12.821Z" transform="translate(-56.938 -6.836)" fill="#fdbb92"/>
        <path id="Trazado_874715" data-name="Trazado 874715" d="M371.471,55.369c.026.052.054.1.082.157.005.01.012.02.017.033.346.653.785,1.462,1.3,2.355.185.324.378.661.583,1,.184.31.374.627.571.946a22.056,22.056,0,0,0,1.693-6.555Z" transform="translate(-57.075 -8.191)" fill="#fd967d"/>
        <path id="Trazado_874716" data-name="Trazado 874716" d="M360.462,49.627c.079.475.165.934.256,1.371.6,2.843,1.728,3.8,3.352,3.6,2.915-.355,15.545-7.555,20.367-12.507s1.1-13.317-4.507-14.439c-3.991-.8-11.449,1.491-15.412,2.877a6.026,6.026,0,0,0-3.882,4.238,30.089,30.089,0,0,0-.741,6.184v0l0,0c-.07.121-1.788,3.121-2.122,3.732-.265.482,1.432.863,2.232,1.014.026.344.056.69.09,1.029Z" transform="translate(-54.966 -4.224)" fill="#fdbb92"/>
        <path id="Trazado_874717" data-name="Trazado 874717" d="M365.36,40.663a.482.482,0,0,0,.212-.058.488.488,0,0,0,.2-.662,3.4,3.4,0,0,0-3.826-1.717.489.489,0,0,0,.256.944,2.437,2.437,0,0,1,2.71,1.237.487.487,0,0,0,.45.256" transform="translate(-55.556 -5.855)" fill="#002029"/>
        <path id="Trazado_874718" data-name="Trazado 874718" d="M360.464,41.233c0,.065,0,.13,0,.2s.005.15.008.223c.113,2.3.988,4.042,2.032,4.013,1.077-.03,1.869-1.939,1.8-4.343s-.962-4.269-2.039-4.239c-1.049.03-1.826,1.837-1.8,4.15m.43.587c-.009-.132-.014-.266-.019-.4,0-.035,0-.068,0-.1-.041-2.269.685-3.8,1.4-3.823s1.555,1.551,1.618,3.839-.69,3.9-1.4,3.923c-.688.019-1.458-1.342-1.6-3.436" transform="translate(-55.384 -5.698)" fill="#fff"/>
        <path id="Trazado_874719" data-name="Trazado 874719" d="M359.954,42.552a.2.2,0,0,0,.288-.03.392.392,0,0,1,.141-.117.151.151,0,0,1,.067-.016.37.37,0,0,1,.236.119.2.2,0,0,0,.118.064c-.009-.132-.014-.266-.019-.4,0-.035,0-.068,0-.1a.663.663,0,0,0-.342-.091c-.02,0-.043,0-.069.007a.691.691,0,0,0-.45.279.2.2,0,0,0,.03.288" transform="translate(-55.294 -6.45)" fill="#fff"/>
        <path id="Trazado_874720" data-name="Trazado 874720" d="M364.693,41.086l7.065-1.47c-.035.139-.222.216-.251.355l-6.79,1.523h-.006a.205.205,0,0,1-.017-.41" transform="translate(-56.004 -6.087)" fill="#fff"/>
        <path id="Trazado_874721" data-name="Trazado 874721" d="M362.137,52.367a3.1,3.1,0,0,0,2.367-1.295.308.308,0,1,0-.507-.349,2.376,2.376,0,0,1-2.23.994.308.308,0,1,0-.109.606,2.647,2.647,0,0,0,.479.044" transform="translate(-55.529 -7.773)" fill="#fd967d"/>
        <path id="Trazado_874722" data-name="Trazado 874722" d="M364.854,47.761c.157.68,1.364.982,2.7.675s2.284-1.109,2.127-1.789-1.364-.982-2.7-.675-2.284,1.109-2.127,1.789" transform="translate(-56.056 -7.045)" fill="#fd967d"/>
        <path id="Trazado_874723" data-name="Trazado 874723" d="M362.35,42.083c-.063.56.139,1.043.449,1.077s.61-.393.672-.953-.14-1.043-.449-1.077-.61.394-.671.954" transform="translate(-55.672 -6.319)" fill="#002029"/>
        <path id="Trazado_874724" data-name="Trazado 874724" d="M375.005,44.285a.341.341,0,0,0,.318-.289,5.672,5.672,0,0,1,2.044-3.515.34.34,0,0,0-.394-.554,6.255,6.255,0,0,0-2.322,3.969.339.339,0,0,0,.286.386.367.367,0,0,0,.068,0" transform="translate(-57.563 -6.125)" fill="#fd967d"/>
        <path id="Trazado_874725" data-name="Trazado 874725" d="M377.7,42.857a.34.34,0,0,0,.131-.645,3.79,3.79,0,0,0-2.052-.371.34.34,0,1,0,.142.664,3.073,3.073,0,0,1,1.611.317.34.34,0,0,0,.167.034" transform="translate(-57.697 -6.423)" fill="#fd967d"/>
        <path id="Trazado_874726" data-name="Trazado 874726" d="M361.482,32.679c1.922,1.9,6,4.379,9.475,4.369,0,0,2.616-4.218,6.042-1.56s-1.014,8.9-4.686,8.069a8.983,8.983,0,0,0,2,8.016c8.672,4.513,19.336-.5,19.336-.5a45.074,45.074,0,0,0-.576-13.785l0-.01c-.917-8.425-3.886-20.222-20.378-15.688-8.216,2.26-10.641,4.92-11.361,7.164-.62,1.933-.49,3.289.151,3.921" transform="translate(-55.456 -3.163)" fill="#002029"/>
        <path id="Trazado_874727" data-name="Trazado 874727" d="M374.056,47.252a1.087,1.087,0,1,0,1.087-1.087,1.086,1.086,0,0,0-1.087,1.087" transform="translate(-57.473 -7.093)" fill="#fff"/>
        <path id="Trazado_874728" data-name="Trazado 874728" d="M404.889,114.445a48.453,48.453,0,0,1-1.678,7.189c-.379,1.192-.818,2.376-1.3,3.548s-1.039,2.325-1.634,3.459l-.4.7a7.079,7.079,0,0,1-6.143,3.546c-4.058-.007-8.074-.038-12.107-.079s-8.061-.095-12.092-.165c-8.062-.146-19.266-1.761-27.365-2.127-1.215-.187-1.413-.87-1.3-3.436a4.652,4.652,0,0,1,4.2-4.421l.019,0c7.911-.764,15.848-1.694,23.776-2.678q5.95-.74,11.895-1.527c2.287-.3,4.581-.607,6.867-.918,0-.008.007-.017.008-.025.089-.25.172-.5.255-.756.027-.089.057-.18.082-.271A32.291,32.291,0,0,0,389,111.966a45.824,45.824,0,0,0,.326-10.441,68.855,68.855,0,0,0-1.75-10.862c-.436-1.808-.938-3.61-1.5-5.385-.282-.885-.576-1.768-.887-2.63-.155-.432-.313-.859-.472-1.275l-.239-.611-.2-.493-.1-.25a8.04,8.04,0,0,1,14.851-6.163l.212.5.173.426.322.824c.207.542.4,1.075.6,1.611.383,1.069.739,2.134,1.08,3.2q1.013,3.208,1.8,6.476a84.633,84.633,0,0,1,2.152,13.426,61.794,61.794,0,0,1-.474,14.12" transform="translate(-52.369 -10.591)" fill="#93fdf3"/>
        <path id="Trazado_874729" data-name="Trazado 874729" d="M340.961,138.481c1.233-.817,3.363-5.681.211-9.366-2.92-3.413-2.969-4.751-5.426-6.946-2.128-1.9-1.474.472-.819,2.687s1.446,2.933-.62,3.038-10.215-3.025-12.454-2.531,8.119,4.487,8.119,4.487-9.26-1.91-10.028-.84c-.918,1.281,8.857,3.885,8.857,3.885s-8.1-.5-8.208.117c-.219,1.189,7.766,2.952,7.766,2.952s-5.589-.057-5.208.873,11.108,3.56,17.809,1.644" transform="translate(-49.149 -18.664)" fill="#fdbb92"/>
        <path id="Trazado_874730" data-name="Trazado 874730" d="M407.155,132.977c-1.27,3.26-4.729,10.325-10.887,10.555-.656.024-1.454.036-2.365.036-7.89,0-24.224-.84-29.658-1.131.042-.351.082-.7.123-1.055,6.126.328,25.589,1.324,31.86,1.091,7.093-.265,10.442-11.288,10.476-11.4a.3.3,0,0,1,.024-.059c.078.366.157.737.239,1.11.062.282.123.567.189.853" transform="translate(-55.965 -20.13)" fill="#3fd1bc"/>
        <path id="Trazado_874731" data-name="Trazado 874731" d="M403.449,129.266a.53.53,0,0,1-.747.049,14.779,14.779,0,0,0-6.573-3.171c.089-.25.171-.5.254-.756.027-.089.057-.18.082-.271a10.746,10.746,0,0,1,1.269.288,12.743,12.743,0,0,1,1.367.481,16.914,16.914,0,0,1,4.3,2.636.526.526,0,0,1,.049.745" transform="translate(-60.864 -19.224)" fill="#3fd1bc"/>
        <path id="Trazado_874732" data-name="Trazado 874732" d="M398.025,126.31a.529.529,0,0,1-.312-.956c1.76-1.285,5.144-1.556,5.287-1.567a.529.529,0,0,1,.081,1.055c-.032,0-3.228.259-4.745,1.366a.527.527,0,0,1-.312.1" transform="translate(-61.074 -19.019)" fill="#3fd1bc"/>
        <path id="Trazado_874733" data-name="Trazado 874733" d="M314.663,345.278c0,2.747-18.764,4.975-41.911,4.975s-41.912-2.228-41.912-4.975S249.6,340.3,272.751,340.3s41.911,2.228,41.911,4.975" transform="translate(-35.468 -52.287)" fill="#99eca7"/>
        <path id="Trazado_874734" data-name="Trazado 874734" d="M231.446,282.513H218.441a1.058,1.058,0,1,1,0-2.117h11.946V238.529a1.058,1.058,0,0,1,1.059-1.058h38.377a1.059,1.059,0,0,1,1.059,1.058v9.061a1.058,1.058,0,0,1-2.117,0v-8H232.5v41.867a1.059,1.059,0,0,1-1.059,1.059" transform="translate(-33.4 -36.487)" fill="#93fdf3"/>
        <path id="Trazado_874736" data-name="Trazado 874736" d="M250.926,256.221v72.973a2.9,2.9,0,0,0,2.9,2.9h42.293a2.905,2.905,0,0,0,2.9-2.9V256.221a2.9,2.9,0,0,0-2.9-2.9H253.83a2.9,2.9,0,0,0-2.9,2.9" transform="translate(-38.554 -38.921)" fill="#93fdf3"/>
        <path id="Trazado_874737" data-name="Trazado 874737" d="M266.135,269.218h28.244a2,2,0,0,0,0-4H266.135a2,2,0,1,0,0,4" transform="translate(-40.584 -40.75)" fill="#6cdfd4"/>
        <path id="Trazado_874738" data-name="Trazado 874738" d="M266.135,279.977h28.244a2,2,0,0,0,2-2h0a2,2,0,0,0-2-2H266.135a2,2,0,0,0-2,2h0a2,2,0,0,0,2,2" transform="translate(-40.584 -42.403)" fill="#6cdfd4"/>
        <path id="Trazado_874739" data-name="Trazado 874739" d="M266.135,290.736h28.244a2,2,0,0,0,0-4H266.135a2,2,0,1,0,0,4" transform="translate(-40.584 -44.057)" fill="#6cdfd4"/>
        <path id="Trazado_874740" data-name="Trazado 874740" d="M266.135,301.494h28.244a2,2,0,0,0,0-4H266.135a2,2,0,1,0,0,4" transform="translate(-40.584 -45.71)" fill="#6cdfd4"/>
        <path id="Trazado_874741" data-name="Trazado 874741" d="M266.135,312.253h28.244a2,2,0,0,0,0-4H266.135a2,2,0,1,0,0,4" transform="translate(-40.584 -47.363)" fill="#6cdfd4"/>
        <path id="Trazado_874742" data-name="Trazado 874742" d="M266.135,323.012h28.244a2,2,0,0,0,0-4H266.135a2,2,0,1,0,0,4" transform="translate(-40.584 -49.016)" fill="#6cdfd4"/>
        <path id="Trazado_874743" data-name="Trazado 874743" d="M266.135,333.77h28.244a2,2,0,0,0,0-4H266.135a2,2,0,1,0,0,4" transform="translate(-40.584 -50.669)" fill="#6cdfd4"/>
        <path id="Trazado_874744" data-name="Trazado 874744" d="M257.391,266.077a.855.855,0,1,0,.855-.856.855.855,0,0,0-.855.856" transform="translate(-39.547 -40.75)" fill="#173953"/>
        <path id="Trazado_874745" data-name="Trazado 874745" d="M257.391,268.778a.855.855,0,1,0,.855-.856.855.855,0,0,0-.855.856" transform="translate(-39.547 -41.165)" fill="#6cdfd4"/>
        <path id="Trazado_874746" data-name="Trazado 874746" d="M257.391,276.836a.855.855,0,1,0,.855-.856.855.855,0,0,0-.855.856" transform="translate(-39.547 -42.403)" fill="#fff"/>
        <path id="Trazado_874747" data-name="Trazado 874747" d="M257.391,279.537a.855.855,0,1,0,.855-.856.855.855,0,0,0-.855.856" transform="translate(-39.547 -42.818)" fill="#6cdfd4"/>
        <path id="Trazado_874748" data-name="Trazado 874748" d="M257.391,298.353a.855.855,0,1,0,.855-.856.855.855,0,0,0-.855.856" transform="translate(-39.547 -45.71)" fill="#fff"/>
        <path id="Trazado_874749" data-name="Trazado 874749" d="M257.391,301.054a.855.855,0,1,0,.855-.856.855.855,0,0,0-.855.856" transform="translate(-39.547 -46.125)" fill="#6cdfd4"/>
        <path id="Trazado_874750" data-name="Trazado 874750" d="M257.391,287.595a.855.855,0,1,0,.855-.856.855.855,0,0,0-.855.856" transform="translate(-39.547 -44.057)" fill="#173953"/>
        <path id="Trazado_874751" data-name="Trazado 874751" d="M257.391,290.3a.855.855,0,1,0,.855-.856.855.855,0,0,0-.855.856" transform="translate(-39.547 -44.472)" fill="#6cdfd4"/>
        <path id="Trazado_874752" data-name="Trazado 874752" d="M257.391,309.112a.855.855,0,1,0,.855-.856.855.855,0,0,0-.855.856" transform="translate(-39.547 -47.363)" fill="#173953"/>
        <path id="Trazado_874753" data-name="Trazado 874753" d="M257.391,311.813a.855.855,0,1,0,.855-.856.855.855,0,0,0-.855.856" transform="translate(-39.547 -47.778)" fill="#6cdfd4"/>
        <path id="Trazado_874754" data-name="Trazado 874754" d="M257.391,319.871a.855.855,0,1,0,.855-.856.855.855,0,0,0-.855.856" transform="translate(-39.547 -49.016)" fill="#fff"/>
        <path id="Trazado_874755" data-name="Trazado 874755" d="M257.391,322.572a.855.855,0,1,0,.855-.856.855.855,0,0,0-.855.856" transform="translate(-39.547 -49.431)" fill="#6cdfd4"/>
        <path id="Trazado_874756" data-name="Trazado 874756" d="M257.391,330.629a.855.855,0,1,0,.855-.856.855.855,0,0,0-.855.856" transform="translate(-39.547 -50.669)" fill="#173953"/>
        <path id="Trazado_874757" data-name="Trazado 874757" d="M257.391,333.33a.855.855,0,1,0,.855-.856.855.855,0,0,0-.855.856" transform="translate(-39.547 -51.084)" fill="#6cdfd4"/>
        <path id="Trazado_874758" data-name="Trazado 874758" d="M261.766,252.719h29.753a3.293,3.293,0,0,0-3.292-3.292H265.058a3.293,3.293,0,0,0-3.292,3.292" transform="translate(-40.22 -38.324)" fill="#173953"/>
      </g>
    </g>
  </g>
</svg>
