<svg xmlns="http://www.w3.org/2000/svg" xmlns:xlink="http://www.w3.org/1999/xlink" width="145" height="145" viewBox="0 0 145 145">
  <defs>
    <clipPath id="clip-path">
      <rect id="Rectángulo_401124" data-name="Rectángulo 401124" width="79.045" height="79.046" fill="#075214"/>
    </clipPath>
    <clipPath id="clip-path-2">
      <rect id="Rectángulo_400938" data-name="Rectángulo 400938" width="145" height="145" transform="translate(0 -0.281)" fill="none"/>
    </clipPath>
    <clipPath id="clip-path-3">
      <rect id="Rectángulo_401902" data-name="Rectángulo 401902" width="91.555" height="71.626" fill="#123e3a"/>
    </clipPath>
  </defs>
  <g id="img17" transform="translate(-175 -9540.719)">
    <g id="Grupo_1099404" data-name="Grupo 1099404" transform="translate(175 9541)">
      <g id="Grupo_1099472" data-name="Grupo 1099472" transform="translate(0 -0.281)" clip-path="url(#clip-path)">
        <path id="Trazado_873498" data-name="Trazado 873498" d="M23.156,78.743q.49.4.991.773L79.516,24.147q-.378-.5-.773-.991Z" transform="translate(-8.429 -8.429)" fill="#075214"/>
        <path id="Trazado_873499" data-name="Trazado 873499" d="M44.424,93.595c.459.136.921.261,1.383.38L93.974,45.808c-.12-.462-.244-.924-.38-1.383Z" transform="translate(-16.17 -16.171)" fill="#075214"/>
        <path id="Trazado_873500" data-name="Trazado 873500" d="M29.485,83.9q.549.339,1.106.658L84.559,30.591q-.32-.557-.658-1.106Z" transform="translate(-10.733 -10.733)" fill="#075214"/>
        <path id="Trazado_873501" data-name="Trazado 873501" d="M36.544,88.859q.612.277,1.231.532L89.39,37.776q-.255-.619-.532-1.231Z" transform="translate(-13.302 -13.302)" fill="#075214"/>
        <path id="Trazado_873502" data-name="Trazado 873502" d="M53.3,98.058q.784.112,1.572.191L98.248,54.874c-.054-.525-.116-1.049-.191-1.572Z" transform="translate(-19.402 -19.402)" fill="#075214"/>
        <path id="Trazado_873503" data-name="Trazado 873503" d="M17.941,73.849c.148.148.3.291.446.436l55.9-55.9c-.145-.149-.288-.3-.436-.446s-.3-.291-.446-.435l-55.9,55.9c.144.149.287.3.435.446" transform="translate(-6.372 -6.372)" fill="#075214"/>
        <path id="Trazado_873504" data-name="Trazado 873504" d="M63.5,102.161q.924-.02,1.848-.084l36.726-36.726q.063-.923.083-1.847Z" transform="translate(-23.115 -23.116)" fill="#075214"/>
        <path id="Trazado_873505" data-name="Trazado 873505" d="M105.688,75.821,75.82,105.689q1.2-.268,2.375-.611L105.077,78.2q.343-1.179.611-2.375" transform="translate(-27.599 -27.599)" fill="#075214"/>
        <path id="Trazado_873506" data-name="Trazado 873506" d="M.084,36.81Q.021,37.733,0,38.658L38.657,0q-.924.02-1.848.084Z" transform="translate(0 0)" fill="#075214"/>
        <path id="Trazado_873507" data-name="Trazado 873507" d="M.313,43.687c.054.525.116,1.049.191,1.573L45.26.5Q44.475.392,43.687.313Z" transform="translate(-0.114 -0.114)" fill="#075214"/>
        <path id="Trazado_873508" data-name="Trazado 873508" d="M93.715,107.7A39.84,39.84,0,0,0,107.7,93.715Z" transform="translate(-34.112 -34.113)" fill="#075214"/>
        <path id="Trazado_873509" data-name="Trazado 873509" d="M2.113,29q-.342,1.179-.611,2.375L31.37,1.5q-1.194.268-2.375.611Z" transform="translate(-0.547 -0.547)" fill="#075214"/>
        <path id="Trazado_873510" data-name="Trazado 873510" d="M22.567,8.582A39.821,39.821,0,0,0,8.581,22.568Z" transform="translate(-3.124 -3.124)" fill="#075214"/>
        <path id="Trazado_873511" data-name="Trazado 873511" d="M8.207,62.176q.32.557.658,1.106L63.281,8.866q-.549-.339-1.106-.658Z" transform="translate(-2.987 -2.988)" fill="#075214"/>
        <path id="Trazado_873512" data-name="Trazado 873512" d="M12.512,67.882q.378.5.773.991L68.872,13.286q-.49-.4-.991-.773Z" transform="translate(-4.554 -4.555)" fill="#075214"/>
        <path id="Trazado_873513" data-name="Trazado 873513" d="M1.953,50.12c.119.463.244.925.38,1.384L51.5,2.334c-.459-.137-.921-.261-1.384-.38Z" transform="translate(-0.711 -0.711)" fill="#075214"/>
        <path id="Trazado_873514" data-name="Trazado 873514" d="M4.649,56.264q.255.619.532,1.231L57.5,5.181q-.612-.277-1.231-.532Z" transform="translate(-1.692 -1.692)" fill="#075214"/>
      </g>
      <g id="Grupo_1099379" data-name="Grupo 1099379" transform="translate(0 0)">
        <rect id="Rectángulo_401103" data-name="Rectángulo 401103" width="145" height="145" transform="translate(0 -0.281)" fill="none"/>
        <path id="Trazado_873425" data-name="Trazado 873425" d="M60.362,0A60.362,60.362,0,1,1,0,60.362,60.362,60.362,0,0,1,60.362,0Z" transform="translate(17.974 21.56)" fill="#99eca7"/>
        <circle id="Elipse_11503" data-name="Elipse 11503" cx="63" cy="63" r="63" transform="translate(9 9.719)" fill="#e6fffd"/>
      </g>
    </g>
    <g id="Grupo_1101077" data-name="Grupo 1101077" transform="translate(205.861 9576.95)">
      <g id="Grupo_1101076" data-name="Grupo 1101076" transform="translate(1)" clip-path="url(#clip-path-3)">
        <path id="Trazado_874279" data-name="Trazado 874279" d="M273.422,92.132c.618.628,1.282,4.727,1.55,5.034.234.268,4.551,1.14,5.035,1.551a2,2,0,0,1,.362,1.212c-.161,1.52-4.251,1.653-5.159,2.3-.756.541-.983,4.641-2,5.16-2.453,1.249-2.4-3.924-3.3-5.012-.79-.948-5.336-.716-5.286-2.736.039-1.569,4.765-1.881,5.372-2.488.418-.418,1.2-7.294,3.431-5.022m1.213,7.379a2.005,2.005,0,0,1-1.311-.265c-.531-.37-.415-1.313-.975-1.454a2.518,2.518,0,0,1-.7,1.454c-.525.369-1.275.019-1.311.545a5.343,5.343,0,0,1,1.642.651c.281.344.068,1.322.644,1.356a2.421,2.421,0,0,1,.566-1.3c.486-.529,1.231-.452,1.441-.989" transform="translate(-188.818 -65.413)" fill="#123e3a"/>
        <path id="Trazado_874280" data-name="Trazado 874280" d="M186.453,30.95c.6.6.9,3.575,1.358,4.225.688.97,4.947.433,4.736,2.721-.128,1.387-4.363,1.57-4.824,2.21-.428.594-.648,4.144-1.68,4.486-2.4.8-2.03-3.362-2.944-4.418-1.045-1.207-4.971-.552-4.614-2.839.216-1.389,3.848-1.431,4.539-1.928.62-.447,1.06-6.839,3.429-4.457m.352,6.523c-.908.049-.847-.9-1.426-1.149.049.908-.9.847-1.149,1.426.908-.049.847.9,1.426,1.149-.049-.907.9-.847,1.149-1.426" transform="translate(-127.342 -21.706)" fill="#123e3a"/>
        <path id="Trazado_874281" data-name="Trazado 874281" d="M7.9,35.815,0,12.333.147,10.8,31.328.058a1.183,1.183,0,0,1,.923.083C33.316.66,34.288,6.1,35.105,7.334c.818.567,6.2-1.615,7.107-.669.8.839,1.126,6.524,1.65,7.945l7.869,7.885V36.388c1.961.5,2.372-.832,3.753-1.547,2.648-1.369,4.255-.5,6.854.274,1.779-4.557,3.017-9.319,4.731-13.9.684-1.827,1.25-4.567,3.081-5.512a4.187,4.187,0,0,1,6.2,3.392c-1.456,6.227-4,12.219-6,18.3.012.928,2.04,1.121,2.781,1.505,6.237,3.231,1.664,10.773.3,15.593a46.178,46.178,0,0,0-1.941,10.09c-.072,1.745.488,4.072.315,5.465-.156,1.256-.886,1.5-2.037,1.157L58.18,67.32c-.553,1.574.822,4.265-1.718,4.306L6.332,71.618C4.17,71.761.17,68.719.17,66.608V36.245a2.861,2.861,0,0,1,.43-.43ZM32.54,8.027c.192-.194-1.528-5.082-1.855-5.115L2.747,12.328l10.6,31.793.548-.4L8.39,12.978l.39-.494ZM17.07,44.122V15.334a4.8,4.8,0,0,1,.716-.716H41.132c.042-.792-.633-5.388-1.042-5.466L11.172,14.6l5.252,29.164ZM41.992,17.2H19.649V44.122H30.677c.974-1.017,4.165-7.734,5.156-7.734H49.439V24.357H42.994a4.844,4.844,0,0,1-1-1.289ZM68.057,36.961l5.673-17.12a1.671,1.671,0,0,0-3.038-1.3L64.973,35.176c-.952,1.08,2.93,1.924,3.084,1.785M47.434,21.776l-2.862-2.862,0,2.866Zm26.64,22.63a4.45,4.45,0,0,0-1.909-3.1,114.493,114.493,0,0,0-13.458-4.61,3.933,3.933,0,0,0-3.247,1.269ZM8.62,38.393H2.461v27.07c0,.9,1.67,3.315,2.865,3.294v-22.2a11.1,11.1,0,0,1,.856-1.436c1.294-1.492,2.821-.906,4.586-1-.342-.88-1.567-5.549-2.147-5.727m43.4.573H36.979C34.97,41.348,33.9,44.413,31.823,46.7H7.9V69.043H55.455c-.132-.633.21-2.436-.04-2.825-.4-.619-12.379-3.656-13.867-4.893-1.4-1.347,1.361-3.159,2.154-4.179,4.14-5.322,6.588-11.7,8.315-18.181m21.2,7.736-18.9-6.3c-1.6,5.069-3.351,10.348-6.186,14.871-.4.645-3.5,4.638-3.27,4.891,1.367-.063,5.022,2.019,6,1.587,2.2-.968,4-8.174,4.881-8.61a1.147,1.147,0,0,1,1.666.642c.437,1.463-1.6,5.272-2.376,6.675-.254.459-1.737,2.36-1.579,2.57l6.871,2.294c-.069-1.736,1.024-8.65,2.083-9.662a1.441,1.441,0,0,1,2.2.911c.029.58-1.142,3.6-1.334,4.681a16.76,16.76,0,0,0-.332,4.89L69.2,68.182c-1.049-7.4,2.085-14.509,4.012-21.48" transform="translate(0 0)" fill="#123e3a"/>
        <path id="Trazado_874282" data-name="Trazado 874282" d="M74.147,111.046c-1.482-.419-.771-2.392,1.418-2.592,7.353-.669,15.734.513,23.2.032,2.146.343,1.485,2.56.877,2.56Z" transform="translate(-52.35 -77.237)" fill="#123e3a"/>
        <path id="Trazado_874283" data-name="Trazado 874283" d="M74.251,93.027H99.745c.58,0,1.427,2.172-1.173,2.551-7.366-.457-15.647.7-22.9.041-1.732-.158-3.041-1.143-1.418-2.592" transform="translate(-52.454 -66.379)" fill="#123e3a"/>
        <rect id="Rectángulo_401901" data-name="Rectángulo 401901" width="18.963" height="2.608" transform="translate(21.052 21.761)" fill="#123e3a"/>
      </g>
    </g>
  </g>
</svg>
