<svg xmlns="http://www.w3.org/2000/svg" xmlns:xlink="http://www.w3.org/1999/xlink" width="145" height="145" viewBox="0 0 145 145">
  <defs>
    <clipPath id="clip-path">
      <rect id="Rectángulo_401124" data-name="Rectángulo 401124" width="79.045" height="79.046" fill="#075214"/>
    </clipPath>
    <clipPath id="clip-path-2">
      <rect id="Rectángulo_400938" data-name="Rectángulo 400938" width="145" height="145" transform="translate(0 -0.281)" fill="none"/>
    </clipPath>
    <clipPath id="clip-path-3">
      <rect id="Rectángulo_401900" data-name="Rectángulo 401900" width="77.029" height="73.799" fill="#123e3a"/>
    </clipPath>
  </defs>
  <g id="img16" transform="translate(-175 -9540.719)">
    <g id="Grupo_1099404" data-name="Grupo 1099404" transform="translate(175 9541)">
      <g id="Grupo_1099472" data-name="Grupo 1099472" transform="translate(0 -0.281)" clip-path="url(#clip-path)">
        <path id="Trazado_873498" data-name="Trazado 873498" d="M23.156,78.743q.49.4.991.773L79.516,24.147q-.378-.5-.773-.991Z" transform="translate(-8.429 -8.429)" fill="#075214"/>
        <path id="Trazado_873499" data-name="Trazado 873499" d="M44.424,93.595c.459.136.921.261,1.383.38L93.974,45.808c-.12-.462-.244-.924-.38-1.383Z" transform="translate(-16.17 -16.171)" fill="#075214"/>
        <path id="Trazado_873500" data-name="Trazado 873500" d="M29.485,83.9q.549.339,1.106.658L84.559,30.591q-.32-.557-.658-1.106Z" transform="translate(-10.733 -10.733)" fill="#075214"/>
        <path id="Trazado_873501" data-name="Trazado 873501" d="M36.544,88.859q.612.277,1.231.532L89.39,37.776q-.255-.619-.532-1.231Z" transform="translate(-13.302 -13.302)" fill="#075214"/>
        <path id="Trazado_873502" data-name="Trazado 873502" d="M53.3,98.058q.784.112,1.572.191L98.248,54.874c-.054-.525-.116-1.049-.191-1.572Z" transform="translate(-19.402 -19.402)" fill="#075214"/>
        <path id="Trazado_873503" data-name="Trazado 873503" d="M17.941,73.849c.148.148.3.291.446.436l55.9-55.9c-.145-.149-.288-.3-.436-.446s-.3-.291-.446-.435l-55.9,55.9c.144.149.287.3.435.446" transform="translate(-6.372 -6.372)" fill="#075214"/>
        <path id="Trazado_873504" data-name="Trazado 873504" d="M63.5,102.161q.924-.02,1.848-.084l36.726-36.726q.063-.923.083-1.847Z" transform="translate(-23.115 -23.116)" fill="#075214"/>
        <path id="Trazado_873505" data-name="Trazado 873505" d="M105.688,75.821,75.82,105.689q1.2-.268,2.375-.611L105.077,78.2q.343-1.179.611-2.375" transform="translate(-27.599 -27.599)" fill="#075214"/>
        <path id="Trazado_873506" data-name="Trazado 873506" d="M.084,36.81Q.021,37.733,0,38.658L38.657,0q-.924.02-1.848.084Z" transform="translate(0 0)" fill="#075214"/>
        <path id="Trazado_873507" data-name="Trazado 873507" d="M.313,43.687c.054.525.116,1.049.191,1.573L45.26.5Q44.475.392,43.687.313Z" transform="translate(-0.114 -0.114)" fill="#075214"/>
        <path id="Trazado_873508" data-name="Trazado 873508" d="M93.715,107.7A39.84,39.84,0,0,0,107.7,93.715Z" transform="translate(-34.112 -34.113)" fill="#075214"/>
        <path id="Trazado_873509" data-name="Trazado 873509" d="M2.113,29q-.342,1.179-.611,2.375L31.37,1.5q-1.194.268-2.375.611Z" transform="translate(-0.547 -0.547)" fill="#075214"/>
        <path id="Trazado_873510" data-name="Trazado 873510" d="M22.567,8.582A39.821,39.821,0,0,0,8.581,22.568Z" transform="translate(-3.124 -3.124)" fill="#075214"/>
        <path id="Trazado_873511" data-name="Trazado 873511" d="M8.207,62.176q.32.557.658,1.106L63.281,8.866q-.549-.339-1.106-.658Z" transform="translate(-2.987 -2.988)" fill="#075214"/>
        <path id="Trazado_873512" data-name="Trazado 873512" d="M12.512,67.882q.378.5.773.991L68.872,13.286q-.49-.4-.991-.773Z" transform="translate(-4.554 -4.555)" fill="#075214"/>
        <path id="Trazado_873513" data-name="Trazado 873513" d="M1.953,50.12c.119.463.244.925.38,1.384L51.5,2.334c-.459-.137-.921-.261-1.384-.38Z" transform="translate(-0.711 -0.711)" fill="#075214"/>
        <path id="Trazado_873514" data-name="Trazado 873514" d="M4.649,56.264q.255.619.532,1.231L57.5,5.181q-.612-.277-1.231-.532Z" transform="translate(-1.692 -1.692)" fill="#075214"/>
      </g>
      <g id="Grupo_1099379" data-name="Grupo 1099379" transform="translate(0 0)">
        <rect id="Rectángulo_401103" data-name="Rectángulo 401103" width="145" height="145" transform="translate(0 -0.281)" fill="none"/>
        <path id="Trazado_873425" data-name="Trazado 873425" d="M60.362,0A60.362,60.362,0,1,1,0,60.362,60.362,60.362,0,0,1,60.362,0Z" transform="translate(17.974 21.56)" fill="#99eca7"/>
        <circle id="Elipse_11503" data-name="Elipse 11503" cx="63" cy="63" r="63" transform="translate(9 9.719)" fill="#e6fffd"/>
      </g>
    </g>
    <g id="Grupo_1101075" data-name="Grupo 1101075" transform="translate(208.986 9576.319)">
      <g id="Grupo_1101075-2" data-name="Grupo 1101075" clip-path="url(#clip-path-3)">
        <path id="Trazado_874272" data-name="Trazado 874272" d="M49.344,428.747c-.956-.954-.861-3.782-.722-5.107a2.529,2.529,0,0,1,2.391-2.437c4.519-.4,9.631.313,14.214.005a2.419,2.419,0,0,1,2.065,1.522,15.28,15.28,0,0,1,.175,4.582,2.469,2.469,0,0,1-2.511,2.179c-4.462-.3-9.4.381-13.8,0a2.766,2.766,0,0,1-1.808-.744m15.539-4.917H51.226v3.035H64.882Z" transform="translate(-41.839 -362.991)" fill="#123e3a"/>
        <path id="Trazado_874273" data-name="Trazado 874273" d="M7.593,9.454l9.1-9.11.659-.307L49.741,0c1.136.1,2.047.528,2.275,1.726l.057,33.74c.19.273,2.626.074,3.18.131.508.053,1.161.421,1.505.409.321-.012.884-.308,1.293-.372a12.016,12.016,0,0,1,4.17.1c1.29-7.043,2.515-14.108,3.906-21.133a35.97,35.97,0,0,1,1.2-5.564c1.372-3.186,6.631-2.079,6.488,1.653l-4.97,26.352a9.383,9.383,0,0,1,7.476,5.771c.647,1.632,1.675,5.862-1.267,5.473A20.059,20.059,0,0,1,73.17,58.34c-1.026,2.018-1.229,1.861-3.5,1.4.112.245-.2,1.172-.138,1.24.043.046.934.255,1.2.391,5.889,3.055,3.913,11.82-3.336,12.3-5.4.357-11.012-.122-16.408-.143-8.962-.034-17.959.159-26.9-.138-6.733-.42-14.194.582-20.841.012A3.456,3.456,0,0,1,0,70.156v-36.7c-.017-1.387,1.587-3.236,2.972-3.236H7.386a1.384,1.384,0,0,0,.207-.207ZM49.529,2.626H18.767V9.592c0,.639-1.213,1.724-1.862,1.724H10.076v18.9h7.38c1.549,0,3.948,3.948,5.115,4.955a4.139,4.139,0,0,0,.679.425H49.529ZM16.146,8.7V4.557L12.007,8.7ZM66.358,36.561,71.17,10.955c.386-1.262-1.322-1.891-1.662-.559L64.721,35.683c-.326.9.992.721,1.638.878m-13.1,1.517H22.7a6.437,6.437,0,0,1-1.452-.755c-1-.771-3.663-4.436-4.371-4.6L3.794,32.693c-1,.092-1.218.31-1.31,1.31V69.6c-.06.519.353,1.305.9,1.305H28.078a.229.229,0,0,0,.139-.273c-.109-.3-.469-.732-.625-1.173-1.151-3.25.364-7.247,3.727-8.35-2.277-5.62,2.747-11.538,8.607-10.881a21.47,21.47,0,0,1,2.613.8A9.746,9.746,0,0,1,52.7,46.769V44.01c-3.742-.507-.669-4.345.552-5.932m21.1,7.449a6.583,6.583,0,0,0-4.382-5.618,57.311,57.311,0,0,0-9.345-1.829,6.593,6.593,0,0,0-6.681,3.386ZM72.4,47.764l-17.216-3.2a22.965,22.965,0,0,1-.508,6.045c-.271,1.235-.761,2.394-1.01,3.611l4.533.67a14.919,14.919,0,0,0,1.4-4.6c.08-.982-.316-2.857.5-3.5,1.089-.849,2,.2,2.12,1.291.273,2.554-.739,4.971-1.377,7.375.595.09,3.932.914,4.21.71a13.506,13.506,0,0,0,1.426-4.515c.109-.8.025-2.334.216-2.956a1.255,1.255,0,0,1,2.354,0c.521,2.244-.517,5.918-1.449,8l3.18.626A15.527,15.527,0,0,0,72.4,47.764M54.625,56.846c-.912-.261-3.793-.309-4.1-1.346-.249-.836.9-2.741,1.218-3.691.259-.77.4-1.585.659-2.355-2.468-1.021-5.5.259-7.151,2.209-.608.719-1.212,2.4-2.032,2.531-.722.119-1.473-.772-2.2-1.048a5.6,5.6,0,0,0-7.563,6.183c.275,1.76.69,1.2,2.008,1.579A6.587,6.587,0,0,1,39.7,64.663c.442,1.1.7,3.011-1,2.945-1.186-.046-1.137-1.335-1.47-2.13a3.931,3.931,0,0,0-7.179.1,3.974,3.974,0,0,0,3.127,5.473l34.768,0A3.949,3.949,0,0,0,68.976,63.4c-.631-.21-1.653-.157-2.049-.709-.719-1,.537-2.251.2-3.373L57.116,57.39c-.272,1.33,1.009,4.426-1.558,3.833-1.336-.308-1.016-3.364-.933-4.378" transform="translate(0)" fill="#123e3a"/>
        <path id="Trazado_874274" data-name="Trazado 874274" d="M299.18,417.137c2.269-.222,5.257.774,6.572,2.728a1.275,1.275,0,0,1-1.647,1.922c-1-.663-1.221-1.519-2.716-1.973-1.726-.523-2.017.1-3.372.173a1.342,1.342,0,0,1-1.22-1.922c.267-.593,1.79-.869,2.383-.927" transform="translate(-255.75 -359.568)" fill="#123e3a"/>
        <path id="Trazado_874275" data-name="Trazado 874275" d="M397.385,461.254c1.343-.116,3.7.544,2.313,2.174-.6.71-1.2.247-1.917.278a4.333,4.333,0,0,0-2.3,1.025c-.6.622-.9,2.06-1.968,1.97-1.632-.137-1.251-1.785-.631-2.776a6.412,6.412,0,0,1,4.5-2.671" transform="translate(-338.229 -397.615)" fill="#123e3a"/>
        <path id="Trazado_874276" data-name="Trazado 874276" d="M102.764,113.069l29.074-.033c2.025.232,1.658,2.7-.271,2.626H103.278c-1.832.086-2.3-2.119-.514-2.593" transform="translate(-87.62 -97.443)" fill="#123e3a"/>
        <path id="Trazado_874277" data-name="Trazado 874277" d="M102.384,171.045l29.494-.033a1.251,1.251,0,0,1,.138,2.489H102.627a1.267,1.267,0,0,1-.243-2.457" transform="translate(-87.519 -147.421)" fill="#123e3a"/>
        <path id="Trazado_874278" data-name="Trazado 874278" d="M177.842,56.045l19.287-.032a1.252,1.252,0,0,1-.138,2.489H178.362a1.278,1.278,0,0,1-.52-2.458" transform="translate(-152.632 -48.286)" fill="#123e3a"/>
      </g>
    </g>
  </g>
</svg>
