<svg xmlns="http://www.w3.org/2000/svg" xmlns:xlink="http://www.w3.org/1999/xlink" width="295" height="289.816" viewBox="0 0 295 289.816">
  <defs>
    <clipPath id="clip-path">
      <rect id="Rectángulo_401892" data-name="Rectángulo 401892" width="295" height="279.119" fill="none"/>
    </clipPath>
    <clipPath id="clip-path-3">
      <rect id="Rectángulo_401867" data-name="Rectángulo 401867" width="295" height="276.923" fill="none"/>
    </clipPath>
    <clipPath id="clip-path-6">
      <rect id="Rectángulo_401870" data-name="Rectángulo 401870" width="90.886" height="109.799" fill="none"/>
    </clipPath>
    <clipPath id="clip-path-7">
      <rect id="Rectángulo_401871" data-name="Rectángulo 401871" width="90.885" height="109.799" fill="none"/>
    </clipPath>
  </defs>
  <g id="img4" transform="translate(-284.711 -2427)">
    <rect id="Rectángulo_401731" data-name="Rectángulo 401731" width="295" height="289.816" transform="translate(284.711 2427)" fill="none"/>
    <g id="Grupo_1101058" data-name="Grupo 1101058" transform="translate(284.711 2432)">
      <g id="Grupo_1101057" data-name="Grupo 1101057" clip-path="url(#clip-path)">
        <g id="Grupo_1101034" data-name="Grupo 1101034">
          <g id="Grupo_1101033" data-name="Grupo 1101033" clip-path="url(#clip-path)">
            <path id="Trazado_874023" data-name="Trazado 874023" d="M278.2,187.983c-12.622,25.45-35.006,51.835-62.24,56.906-41.15,7.666-50.5,41.892-120.7,29.267a132.034,132.034,0,0,1-29.888-8.972,112.455,112.455,0,0,1-13.663-7.147C12.883,234.224-3.279,191.029.547,148.592,5.569,92.776,44.406,71.019,69.42,58.582S130.082-10.2,199.2,1.619a127.951,127.951,0,0,1,30.724,9.2c22.448,10.043,44.166,28.543,54.99,52.8q1.218,2.734,2.285,5.561c13.9,36.827,8.211,84.1-9,118.8" transform="translate(0 0)" fill="#93fdf3"/>
            <g id="Grupo_1101032" data-name="Grupo 1101032" opacity="0.7">
              <g id="Grupo_1101031" data-name="Grupo 1101031">
                <g id="Grupo_1101030" data-name="Grupo 1101030" clip-path="url(#clip-path-3)">
                  <path id="Trazado_874024" data-name="Trazado 874024" d="M278.2,187.983c-12.622,25.45-35.006,51.835-62.24,56.906-41.15,7.666-50.5,41.892-120.7,29.267a132.034,132.034,0,0,1-29.888-8.972,112.455,112.455,0,0,1-13.663-7.147C12.883,234.224-3.279,191.029.547,148.592,5.569,92.776,44.406,71.019,69.42,58.582S130.082-10.2,199.2,1.619a127.951,127.951,0,0,1,30.724,9.2c22.448,10.043,44.166,28.543,54.99,52.8q1.218,2.734,2.285,5.561c13.9,36.827,8.211,84.1-9,118.8" transform="translate(0 0)" fill="#99eca7"/>
                </g>
              </g>
            </g>
          </g>
        </g>
        <line id="Línea_3236" data-name="Línea 3236" x2="8.189" transform="translate(280.896 266.091)" fill="none" stroke="#263238" stroke-linecap="round" stroke-linejoin="round" stroke-width="1"/>
        <g id="Grupo_1101036" data-name="Grupo 1101036">
          <g id="Grupo_1101035" data-name="Grupo 1101035" clip-path="url(#clip-path)">
            <line id="Línea_3237" data-name="Línea 3237" x2="274.07" transform="translate(0.82 266.091)" fill="none" stroke="#263238" stroke-linecap="round" stroke-linejoin="round" stroke-width="1"/>
          </g>
        </g>
        <g id="Grupo_1101044" data-name="Grupo 1101044">
          <g id="Grupo_1101043" data-name="Grupo 1101043" clip-path="url(#clip-path)">
            <g id="Grupo_1101039" data-name="Grupo 1101039" transform="translate(185.144 0.619)" opacity="0.2">
              <g id="Grupo_1101038" data-name="Grupo 1101038">
                <g id="Grupo_1101037" data-name="Grupo 1101037" clip-path="url(#clip-path-6)">
                  <path id="Trazado_874025" data-name="Trazado 874025" d="M316.687,27.764c1.817,1.927,7.332,4.131,7.337,4.133.057.023.35-4.076.339-4.337-.131-3.018-2.157-8.772-5.419-9.67a4,4,0,0,0-4.922,3.357c-.4,2.355,1.117,4.875,2.665,6.517" transform="translate(-307.216 -7.521)"/>
                  <path id="Trazado_874026" data-name="Trazado 874026" d="M405.43,64.577c.035.051,2.54-3.207,2.675-3.431,1.556-2.589,3.04-8.506.814-11.055a4,4,0,0,0-5.956.084c-1.631,1.744-1.758,4.684-1.372,6.906.453,2.61,3.837,7.491,3.839,7.494" transform="translate(-341.218 -19.595)"/>
                  <path id="Trazado_874027" data-name="Trazado 874027" d="M391.877,33.147c-2.953-1.651-8.436,1.023-10.648,3.08-.191.178-2.862,3.3-2.8,3.325l.067.028c-.869.415-1.8.871-2.8,1.389-1.843.971-3.918,2.086-6.094,3.451a71.007,71.007,0,0,0-6.812,4.736A52.156,52.156,0,0,0,356,55.482c-.024.027-.046.059-.07.086.4-.9,1.45-3.472,1.508-3.678.817-2.909.686-9.008-2.133-10.877a4,4,0,0,0-5.723,1.654c-1.112,2.113-.458,4.981.5,7.024,1.081,2.3,5.284,5.878,5.62,6.161a70.808,70.808,0,0,0-5.649,7.582c-1.007,1.538-1.972,3.119-2.921,4.716.325-.793.609-1.505.638-1.609.817-2.909.686-9.008-2.133-10.877a4,4,0,0,0-5.723,1.654c-1.112,2.113-.458,4.981.5,7.024.973,2.072,4.495,5.191,5.438,6-.357.616-.721,1.228-1.076,1.846-1.7,2.964-3.391,5.93-5.136,8.788-.614,1.007-1.256,1.977-1.895,2.949.287-.7.524-1.3.55-1.4.817-2.909.686-9.008-2.133-10.877a4,4,0,0,0-5.724,1.654c-1.112,2.113-.458,4.981.5,7.023.928,1.977,4.154,4.886,5.269,5.858-.684.976-1.367,1.955-2.074,2.87-.5.614-.933,1.239-1.466,1.828l-1.532,1.764c-1.015,1.086-2.056,2.212-3.073,3.247-.7.725-1.383,1.4-2.068,2.087.623-1,1.8-2.97,1.881-3.146a15.541,15.541,0,0,0,1.046-7.774,4.685,4.685,0,0,0,.3-.836,4,4,0,0,0-3.172-5.043c-3.349-.48-7.5,3.986-8.83,6.7-.078.16-.732,1.992-1.125,3.155.127-.719.259-1.415.381-2.156.251-1.464.459-2.933.689-4.513q.126-1.15.254-2.323c.1-.774.11-1.6.17-2.413.1-1.88.106-3.789.072-5.713,1.283.217,5.85.922,8.044.358s4.812-1.886,5.732-4.089a4,4,0,0,0-2.371-5.465c-3.237-.982-8.022,2.8-9.743,5.286-.107.155-1.142,2.074-1.69,3.14-.03-1.156-.054-2.31-.122-3.479-.2-3.374-.5-6.783-.788-10.185-.089-1.042-.165-2.081-.245-3.122.455.083,5.866,1.037,8.324.405,2.185-.562,4.812-1.886,5.732-4.089a4,4,0,0,0-2.371-5.465c-3.237-.982-8.022,2.8-9.743,5.285-.13.188-1.614,2.953-1.958,3.674-.175-2.291-.328-4.575-.388-6.834a70.412,70.412,0,0,1,.3-9.138c.212.039,5.854,1.061,8.372.414,2.185-.562,4.812-1.886,5.732-4.089a4,4,0,0,0-2.371-5.465c-3.237-.982-8.022,2.8-9.743,5.285-.113.163-1.247,2.27-1.763,3.283l-.185-.056a51.539,51.539,0,0,1,1.958-8.986c.485-1.62,1.039-3.141,1.612-4.608,1.031.3,5.759,1.609,8.09,1.276,2.234-.318,4.99-1.345,6.147-3.434a4,4,0,0,0-1.757-5.693c-3.11-1.331-8.281,1.905-10.264,4.184-.108.123-1.065,1.5-1.747,2.52.268-.658.533-1.342.8-1.968,1.007-2.352,2.073-4.443,3.033-6.288.554-1.045,1.076-1.978,1.574-2.846,1.164-.235,5.846-1.243,7.727-2.587,1.835-1.312,3.809-3.494,3.872-5.881a4,4,0,0,0-4.182-4.243c-3.374.252-6.471,5.507-7.182,8.443-.061.254-.565,4.333-.5,4.321l.07-.014c-.5.826-1.017,1.717-1.568,2.7-1,1.827-2.118,3.9-3.179,6.24a70.95,70.95,0,0,0-3.069,7.708,52.216,52.216,0,0,0-2.175,9.024c0,.036,0,.075-.01.111-.161-.977-.706-3.7-.771-3.9-.923-2.876-4.4-7.891-7.779-7.9a4,4,0,0,0-3.861,4.537c.238,2.376,2.366,4.407,4.292,5.581,2.172,1.324,7.65,1.988,8.086,2.039a70.785,70.785,0,0,0-.529,9.44c.009,1.838.075,3.69.165,5.545-.167-.841-.323-1.592-.355-1.694-.924-2.876-4.4-7.891-7.78-7.895a4,4,0,0,0-3.861,4.537c.238,2.376,2.366,4.407,4.292,5.582,1.955,1.191,6.613,1.851,7.848,2.008.042.711.076,1.422.12,2.134.215,3.412.443,6.817.565,10.162.043,1.179.043,2.341.047,3.505-.15-.746-.282-1.375-.312-1.468-.923-2.876-4.4-7.891-7.78-7.9a4,4,0,0,0-3.861,4.537c.238,2.376,2.366,4.407,4.292,5.581,1.865,1.137,6.16,1.785,7.626,1.98-.032,1.191-.062,2.385-.147,3.538-.076.786-.094,1.549-.214,2.334q-.153,1.17-.3,2.317c-.248,1.466-.493,2.98-.771,4.4-.185.991-.38,1.933-.574,2.882-.029-1.174-.136-3.472-.167-3.663-.476-2.983-3.15-8.466-6.494-8.983a4,4,0,0,0-4.5,3.9c-.125,2.385,1.67,4.715,3.4,6.167,1.9,1.6,7,3.05,7.637,3.227-.326,1.569-.658,3.093-.994,4.525-1.143,4.921-2.281,8.981-3.122,11.827l2.109.9c.018-.066.034-.124.053-.191.79-2.9,1.861-7.06,2.917-12.1.338-1.592.666-3.3.988-5.058a43.477,43.477,0,0,0,5.108-.188c.859,2.4,4.08,6.161,4.5,6.644-1.137,1.129-2.255,2.216-3.325,3.225-3.668,3.474-6.858,6.232-9.129,8.142l2.315.986c2.173-1.928,5.008-4.523,8.206-7.687,1.16-1.142,2.377-2.385,3.614-3.674.533.372,4.908,3.386,7.356,3.833,2.219.405,5.159.3,6.918-1.311a4,4,0,0,0,.136-5.956c-2.528-2.248-8.458-.816-11.061.718-.153.09-1.709,1.258-2.679,2.01.5-.529,1-1.037,1.507-1.588,1.018-1.082,2-2.194,3.064-3.384l1.494-1.8c.512-.589.977-1.277,1.473-1.919,1.118-1.514,2.178-3.1,3.211-4.726.95.889,4.371,4,6.513,4.737s5.053,1.082,7.037-.248a4,4,0,0,0,1.037-5.867c-2.158-2.6-8.237-2.087-11.042-.966-.175.07-2.1,1.1-3.142,1.687.613-.981,1.23-1.956,1.818-2.969,1.7-2.923,3.325-5.933,4.962-8.93.5-.919,1.011-1.827,1.518-2.739.334.32,4.32,4.1,6.719,4.93,2.132.737,5.053,1.082,7.037-.248a4,4,0,0,0,1.037-5.867c-2.158-2.6-8.238-2.088-11.042-.966-.211.084-2.975,1.571-3.66,1.984,1.118-2.008,2.25-4,3.446-5.914a70.564,70.564,0,0,1,5.3-7.455c.156.15,4.3,4.115,6.755,4.964,2.132.736,5.054,1.082,7.037-.248a4,4,0,0,0,1.037-5.867c-2.159-2.6-8.238-2.087-11.042-.966-.184.073-2.29,1.2-3.28,1.766l-.123-.15a51.53,51.53,0,0,1,6.589-6.413c1.3-1.083,2.6-2.046,3.886-2.954.7.818,3.916,4.519,6.043,5.528,2.039.966,4.9,1.631,7.021.527a4,4,0,0,0,1.675-5.718c-1.859-2.826-7.958-2.979-10.869-2.173-.158.044-1.718.667-2.848,1.138.587-.4,1.186-.826,1.755-1.2,2.137-1.406,4.18-2.561,6-3.571,1.039-.565,1.989-1.056,2.883-1.506,1.1.446,5.562,2.189,7.872,2.106,2.255-.082,5.1-.813,6.474-2.769a4,4,0,0,0-1.148-5.846" transform="translate(-302.927 -1.013)"/>
                </g>
              </g>
            </g>
            <g id="Grupo_1101042" data-name="Grupo 1101042" transform="translate(15.591 1.801)" opacity="0.2">
              <g id="Grupo_1101041" data-name="Grupo 1101041">
                <g id="Grupo_1101040" data-name="Grupo 1101040" clip-path="url(#clip-path-7)">
                  <path id="Trazado_874028" data-name="Trazado 874028" d="M153.833,29.7c-1.817,1.927-7.332,4.131-7.337,4.133-.057.023-.35-4.076-.339-4.337.131-3.018,2.157-8.772,5.419-9.67A4,4,0,0,1,156.5,23.18c.4,2.355-1.117,4.875-2.665,6.517" transform="translate(-72.419 -9.455)"/>
                  <path id="Trazado_874029" data-name="Trazado 874029" d="M66.213,66.511c-.035.051-2.54-3.207-2.675-3.431-1.556-2.589-3.04-8.506-.814-11.054a4,4,0,0,1,5.956.084c1.631,1.744,1.758,4.684,1.372,6.906-.453,2.61-3.837,7.491-3.839,7.494" transform="translate(-39.539 -21.529)"/>
                  <path id="Trazado_874030" data-name="Trazado 874030" d="M27.445,35.081C30.4,33.43,35.881,36.1,38.093,38.16c.191.178,2.862,3.3,2.8,3.325l-.067.028c.869.415,1.8.871,2.8,1.389,1.843.971,3.918,2.086,6.094,3.451a71.007,71.007,0,0,1,6.812,4.736,52.156,52.156,0,0,1,6.791,6.327c.024.027.046.059.07.086-.4-.9-1.45-3.472-1.508-3.678-.817-2.908-.686-9.008,2.133-10.877A4,4,0,0,1,69.745,44.6c1.112,2.113.458,4.981-.5,7.024-1.081,2.3-5.284,5.878-5.62,6.161a70.81,70.81,0,0,1,5.649,7.582c1.007,1.538,1.972,3.119,2.921,4.716-.325-.793-.609-1.505-.637-1.609-.817-2.909-.686-9.008,2.133-10.877a4,4,0,0,1,5.723,1.654c1.112,2.113.458,4.981-.5,7.024-.973,2.072-4.495,5.191-5.438,6,.357.616.721,1.228,1.076,1.846,1.7,2.964,3.391,5.93,5.136,8.788.614,1.007,1.256,1.977,1.895,2.949-.287-.7-.524-1.3-.55-1.4-.817-2.909-.686-9.008,2.133-10.877a4,4,0,0,1,5.724,1.654c1.112,2.113.458,4.981-.5,7.023-.928,1.978-4.154,4.886-5.269,5.858.684.976,1.367,1.955,2.074,2.87.5.614.933,1.239,1.466,1.828l1.532,1.764c1.015,1.086,2.056,2.213,3.073,3.247.7.725,1.383,1.4,2.068,2.087-.623-1-1.8-2.97-1.881-3.146A15.541,15.541,0,0,1,90.4,89a4.685,4.685,0,0,1-.3-.836,4,4,0,0,1,3.172-5.043c3.349-.48,7.5,3.986,8.83,6.7.078.16.732,1.992,1.125,3.155-.127-.719-.259-1.415-.381-2.156-.251-1.464-.459-2.933-.689-4.513q-.126-1.15-.254-2.323c-.1-.773-.11-1.6-.17-2.413-.1-1.88-.106-3.789-.072-5.713-1.283.217-5.85.922-8.044.358s-4.812-1.886-5.732-4.089a4,4,0,0,1,2.371-5.465c3.237-.982,8.022,2.8,9.742,5.286.108.155,1.142,2.074,1.691,3.141.03-1.157.054-2.311.122-3.48.2-3.374.5-6.783.788-10.185.089-1.042.165-2.081.245-3.122-.456.083-5.866,1.037-8.324.405-2.185-.562-4.812-1.886-5.732-4.089a4,4,0,0,1,2.371-5.465c3.237-.982,8.022,2.8,9.743,5.286.13.187,1.614,2.952,1.958,3.673.175-2.291.328-4.575.388-6.834a70.424,70.424,0,0,0-.3-9.139c-.212.039-5.854,1.061-8.372.414-2.185-.562-4.812-1.885-5.732-4.089A4,4,0,0,1,91.217,33c3.237-.982,8.022,2.8,9.743,5.285.113.163,1.247,2.27,1.763,3.284l.185-.056a51.542,51.542,0,0,0-1.958-8.986c-.485-1.62-1.039-3.141-1.612-4.608-1.031.3-5.759,1.609-8.09,1.276-2.234-.318-4.99-1.345-6.147-3.434a4,4,0,0,1,1.757-5.693c3.11-1.331,8.281,1.905,10.264,4.184.108.123,1.065,1.5,1.747,2.52-.268-.658-.533-1.342-.8-1.968-1.007-2.352-2.073-4.443-3.033-6.287-.554-1.045-1.076-1.978-1.574-2.847-1.164-.235-5.846-1.243-7.727-2.587C83.9,11.769,81.923,9.588,81.86,7.2a4,4,0,0,1,4.182-4.243c3.374.252,6.471,5.507,7.182,8.443.061.254.565,4.333.5,4.321l-.07-.014c.5.826,1.017,1.717,1.568,2.7,1,1.827,2.118,3.9,3.179,6.24a70.964,70.964,0,0,1,3.069,7.708,52.233,52.233,0,0,1,2.175,9.024c0,.036,0,.075.01.111.161-.978.706-3.7.771-3.9.923-2.876,4.4-7.891,7.779-7.9a4,4,0,0,1,3.861,4.537c-.238,2.376-2.366,4.407-4.292,5.581-2.172,1.324-7.65,1.988-8.086,2.039a70.785,70.785,0,0,1,.529,9.44c-.009,1.838-.075,3.69-.165,5.545.167-.84.323-1.591.355-1.694.924-2.876,4.4-7.891,7.78-7.895a4,4,0,0,1,3.861,4.537c-.238,2.376-2.366,4.407-4.292,5.582-1.955,1.191-6.613,1.851-7.848,2.008-.042.711-.076,1.422-.12,2.134-.215,3.412-.443,6.817-.565,10.162-.043,1.18-.043,2.341-.047,3.505.15-.746.282-1.375.312-1.468.923-2.876,4.4-7.891,7.78-7.895a4,4,0,0,1,3.861,4.537c-.238,2.376-2.366,4.407-4.292,5.582-1.865,1.137-6.16,1.784-7.626,1.979.032,1.191.062,2.385.147,3.538.076.786.094,1.549.214,2.333q.153,1.171.3,2.317c.248,1.466.493,2.98.771,4.4.185.992.38,1.933.574,2.882.029-1.174.136-3.472.167-3.663.476-2.983,3.15-8.466,6.494-8.983a4,4,0,0,1,4.5,3.9c.125,2.385-1.67,4.715-3.4,6.167-1.9,1.6-7,3.05-7.637,3.227.326,1.569.658,3.093.994,4.525,1.143,4.921,2.281,8.981,3.122,11.827l-2.109.9c-.018-.065-.034-.123-.053-.191-.79-2.9-1.861-7.06-2.917-12.1-.338-1.592-.666-3.3-.988-5.058a43.475,43.475,0,0,1-5.108-.188c-.859,2.4-4.08,6.161-4.5,6.644,1.137,1.129,2.255,2.216,3.325,3.225,3.668,3.474,6.857,6.232,9.129,8.142l-2.315.986c-2.173-1.928-5.008-4.523-8.206-7.687-1.16-1.142-2.377-2.385-3.614-3.674-.533.372-4.908,3.386-7.356,3.833-2.219.405-5.159.3-6.918-1.311a4,4,0,0,1-.136-5.956c2.528-2.248,8.458-.816,11.061.718.153.09,1.709,1.258,2.679,2.01-.5-.529-1-1.037-1.507-1.588-1.018-1.082-2-2.193-3.064-3.384l-1.494-1.8c-.512-.589-.977-1.277-1.473-1.919-1.118-1.514-2.178-3.1-3.211-4.726-.95.889-4.371,4-6.513,4.736s-5.053,1.082-7.037-.248a4,4,0,0,1-1.037-5.867c2.158-2.6,8.237-2.087,11.042-.966.175.07,2.1,1.1,3.142,1.687-.613-.981-1.23-1.956-1.818-2.969-1.7-2.923-3.325-5.933-4.962-8.93-.5-.919-1.011-1.827-1.518-2.739-.334.32-4.32,4.1-6.719,4.93-2.132.737-5.053,1.082-7.037-.248A4,4,0,0,1,57.2,70.784c2.158-2.6,8.238-2.088,11.042-.966.211.084,2.975,1.571,3.66,1.984-1.118-2.007-2.25-4-3.446-5.914a70.567,70.567,0,0,0-5.3-7.455c-.155.15-4.3,4.115-6.755,4.964-2.132.736-5.054,1.082-7.037-.248a4,4,0,0,1-1.037-5.867c2.159-2.6,8.238-2.087,11.042-.966.184.073,2.29,1.2,3.28,1.766l.123-.149a51.537,51.537,0,0,0-6.589-6.414c-1.3-1.083-2.6-2.046-3.886-2.954-.7.818-3.916,4.519-6.043,5.528-2.039.966-4.9,1.631-7.021.527A4,4,0,0,1,37.564,48.9c1.859-2.826,7.958-2.979,10.869-2.173.158.044,1.718.667,2.848,1.138-.587-.4-1.186-.826-1.755-1.2-2.137-1.406-4.181-2.561-6-3.571-1.039-.565-1.989-1.056-2.883-1.506-1.1.447-5.562,2.189-7.872,2.106-2.255-.082-5.1-.813-6.474-2.769a4,4,0,0,1,1.148-5.846" transform="translate(-25.509 -2.947)"/>
                </g>
              </g>
            </g>
          </g>
        </g>
        <g id="Grupo_1101046" data-name="Grupo 1101046">
          <g id="Grupo_1101045" data-name="Grupo 1101045" clip-path="url(#clip-path)">
            <path id="Trazado_874031" data-name="Trazado 874031" d="M433.59,149.526v2.783a1.3,1.3,0,1,1-2.6,0v-2.783h-7.6v2.783a1.3,1.3,0,1,1-2.593,0v-2.783h-7.6v2.783a1.3,1.3,0,1,1-2.6,0v-2.783h-7.591v2.783a1.3,1.3,0,1,1-2.6,0v-2.783h-7.6v2.783a1.3,1.3,0,1,1-2.594,0v-2.783h-3.491v36.061H437.08V149.526ZM395.05,180.382h-3.922v-3.916h3.922Zm0-5.681h-3.922v-3.922h3.922Zm0-5.687h-3.922V165.1h3.922Zm0-5.682h-3.922v-3.922h3.922Zm6.274,17.05H397.4v-3.916h3.922Zm0-5.681H397.4v-3.922h3.922Zm0-5.687H397.4V165.1h3.922Zm0-5.682H397.4v-3.922h3.922Zm6.268,17.05h-3.916v-3.916h3.916Zm0-5.681h-3.916v-3.922h3.916Zm0-5.687h-3.916V165.1h3.916Zm0-5.682h-3.916v-3.922h3.916Zm6.274,17.05h-3.922v-3.916h3.922Zm0-5.681h-3.922v-3.922h3.922Zm0-5.687h-3.922V165.1h3.922Zm0-5.682h-3.922v-3.922h3.922Zm6.274,17.05h-3.922v-3.916h3.922Zm0-5.681h-3.922v-3.922h3.922Zm0-5.687h-3.922V165.1h3.922Zm0-5.682h-3.922v-3.922h3.922Zm6.274,17.05h-3.922v-3.916h3.922Zm0-5.681h-3.922v-3.922h3.922Zm0-5.687h-3.922V165.1h3.922Zm0-5.682h-3.922v-3.922h3.922Zm6.268,17.05h-3.916v-3.916h3.916Zm0-5.681h-3.916v-3.922h3.916Zm0-5.687h-3.916V165.1h3.916Zm0-5.682h-3.916v-3.922h3.916Z" transform="translate(-150.368 -58.138)" fill="none" stroke="#263238" stroke-linecap="round" stroke-linejoin="round" stroke-width="1"/>
            <path id="Trazado_874032" data-name="Trazado 874032" d="M461.743,143.91v5.71a1.3,1.3,0,0,1-2.6,0v-5.71a1.3,1.3,0,1,1,2.6,0Z" transform="translate(-178.522 -55.449)" fill="none" stroke="#263238" stroke-linecap="round" stroke-linejoin="round" stroke-width="1"/>
            <path id="Trazado_874033" data-name="Trazado 874033" d="M445.066,143.91v5.71a1.3,1.3,0,1,1-2.593,0v-5.71a1.3,1.3,0,1,1,2.593,0Z" transform="translate(-172.04 -55.449)" fill="none" stroke="#263238" stroke-linecap="round" stroke-linejoin="round" stroke-width="1"/>
            <path id="Trazado_874034" data-name="Trazado 874034" d="M428.389,143.91v5.71a1.3,1.3,0,0,1-2.6,0v-5.71a1.3,1.3,0,1,1,2.6,0Z" transform="translate(-165.554 -55.449)" fill="none" stroke="#263238" stroke-linecap="round" stroke-linejoin="round" stroke-width="1"/>
            <path id="Trazado_874035" data-name="Trazado 874035" d="M411.717,143.91v5.71a1.3,1.3,0,0,1-2.6,0v-5.71a1.3,1.3,0,1,1,2.6,0Z" transform="translate(-159.071 -55.449)" fill="none" stroke="#263238" stroke-linecap="round" stroke-linejoin="round" stroke-width="1"/>
            <path id="Trazado_874036" data-name="Trazado 874036" d="M395.04,143.91v5.71a1.3,1.3,0,1,1-2.593,0v-5.71a1.3,1.3,0,1,1,2.593,0Z" transform="translate(-152.589 -55.449)" fill="none" stroke="#263238" stroke-linecap="round" stroke-linejoin="round" stroke-width="1"/>
          </g>
        </g>
        <g id="Grupo_1101048" data-name="Grupo 1101048">
          <g id="Grupo_1101047" data-name="Grupo 1101047" clip-path="url(#clip-path)">
            <circle id="Elipse_11566" data-name="Elipse 11566" cx="20.689" cy="20.689" r="20.689" transform="matrix(0.973, -0.23, 0.23, 0.973, 11.85, 94.315)" fill="none" stroke="#263238" stroke-linecap="round" stroke-linejoin="round" stroke-width="1"/>
            <circle id="Elipse_11567" data-name="Elipse 11567" cx="18.301" cy="18.301" r="18.301" transform="translate(18.438 91.396)" fill="none" stroke="#263238" stroke-linecap="round" stroke-linejoin="round" stroke-width="1"/>
            <path id="Trazado_874037" data-name="Trazado 874037" d="M60.746,178.37A1.748,1.748,0,1,0,59,180.118a1.748,1.748,0,0,0,1.748-1.748" transform="translate(-22.26 -68.673)" fill="#263238"/>
            <circle id="Elipse_11568" data-name="Elipse 11568" cx="1.748" cy="1.748" r="1.748" transform="translate(34.455 108.751) rotate(-22.5)" fill="none" stroke="#263238" stroke-linecap="round" stroke-linejoin="round" stroke-width="1"/>
            <path id="Trazado_874038" data-name="Trazado 874038" d="M59.724,182.6l-6.37-3.114L42.735,191.091" transform="translate(-16.616 -69.785)" fill="none" stroke="#263238" stroke-linecap="round" stroke-linejoin="round" stroke-width="1"/>
          </g>
        </g>
        <g id="Grupo_1101050" data-name="Grupo 1101050">
          <g id="Grupo_1101049" data-name="Grupo 1101049" clip-path="url(#clip-path)">
            <path id="Trazado_874039" data-name="Trazado 874039" d="M268.414,281.232H120.853a3.716,3.716,0,0,1-3.715-3.715V55.456a3.716,3.716,0,0,1,3.715-3.716h147.56a3.716,3.716,0,0,1,3.715,3.716V277.517a3.716,3.716,0,0,1-3.715,3.715" transform="translate(-45.545 -20.117)" fill="#263238"/>
            <path id="Rectángulo_401875" data-name="Rectángulo 401875" d="M6.079,0H148.912a6.079,6.079,0,0,1,6.079,6.079V223.412a6.08,6.08,0,0,1-6.08,6.08H6.079A6.079,6.079,0,0,1,0,223.413V6.079A6.079,6.079,0,0,1,6.079,0Z" transform="translate(71.593 31.623)" fill="none" stroke="#263238" stroke-linecap="round" stroke-linejoin="round" stroke-width="1"/>
            <rect id="Rectángulo_401876" data-name="Rectángulo 401876" width="139.239" height="215.476" transform="translate(79.469 36.804)" fill="#fff"/>
            <rect id="Rectángulo_401877" data-name="Rectángulo 401877" width="139.239" height="215.476" transform="translate(79.469 36.804)" fill="none" stroke="#263238" stroke-linecap="round" stroke-linejoin="round" stroke-width="1"/>
            <line id="Línea_3238" data-name="Línea 3238" x2="10.812" transform="translate(168.532 92.7)" fill="none" stroke="#263238" stroke-miterlimit="10" stroke-width="1"/>
            <line id="Línea_3239" data-name="Línea 3239" x2="66.615" transform="translate(93.547 92.7)" fill="none" stroke="#263238" stroke-miterlimit="10" stroke-width="1"/>
            <line id="Línea_3240" data-name="Línea 3240" x2="26.855" transform="translate(152.489 101.071)" fill="none" stroke="#263238" stroke-miterlimit="10" stroke-width="1"/>
            <line id="Línea_3241" data-name="Línea 3241" x2="33.831" transform="translate(111.334 101.071)" fill="none" stroke="#263238" stroke-miterlimit="10" stroke-width="1"/>
            <line id="Línea_3242" data-name="Línea 3242" x2="11.509" transform="translate(93.547 101.071)" fill="none" stroke="#263238" stroke-miterlimit="10" stroke-width="1"/>
            <line id="Línea_3243" data-name="Línea 3243" x2="52.316" transform="translate(127.029 109.441)" fill="none" stroke="#263238" stroke-miterlimit="10" stroke-width="1"/>
            <line id="Línea_3244" data-name="Línea 3244" x2="21.972" transform="translate(93.547 109.441)" fill="none" stroke="#263238" stroke-miterlimit="10" stroke-width="1"/>
            <circle id="Elipse_11569" data-name="Elipse 11569" cx="9.068" cy="9.068" r="9.068" transform="matrix(0.987, -0.16, 0.16, 0.987, 190.648, 92.875)" fill="none" stroke="#263238" stroke-miterlimit="10" stroke-width="1"/>
            <line id="Línea_3245" data-name="Línea 3245" x1="10.812" transform="translate(93.547 130.019)" fill="none" stroke="#263238" stroke-miterlimit="10" stroke-width="1"/>
            <line id="Línea_3246" data-name="Línea 3246" x1="66.615" transform="translate(112.729 130.019)" fill="none" stroke="#263238" stroke-miterlimit="10" stroke-width="1"/>
            <line id="Línea_3247" data-name="Línea 3247" x1="26.855" transform="translate(93.547 138.389)" fill="none" stroke="#263238" stroke-miterlimit="10" stroke-width="1"/>
            <line id="Línea_3248" data-name="Línea 3248" x1="33.831" transform="translate(127.726 138.389)" fill="none" stroke="#263238" stroke-miterlimit="10" stroke-width="1"/>
            <line id="Línea_3249" data-name="Línea 3249" x1="11.509" transform="translate(167.835 138.389)" fill="none" stroke="#263238" stroke-miterlimit="10" stroke-width="1"/>
            <line id="Línea_3250" data-name="Línea 3250" x1="52.316" transform="translate(93.547 146.76)" fill="none" stroke="#263238" stroke-miterlimit="10" stroke-width="1"/>
            <line id="Línea_3251" data-name="Línea 3251" x1="21.972" transform="translate(157.372 146.76)" fill="none" stroke="#263238" stroke-miterlimit="10" stroke-width="1"/>
            <circle id="Elipse_11570" data-name="Elipse 11570" cx="9.068" cy="9.068" r="9.068" transform="translate(190.648 130.193) rotate(-9.217)" fill="none" stroke="#263238" stroke-miterlimit="10" stroke-width="1"/>
            <line id="Línea_3252" data-name="Línea 3252" x2="10.812" transform="translate(168.532 167.337)" fill="none" stroke="#263238" stroke-miterlimit="10" stroke-width="1"/>
            <line id="Línea_3253" data-name="Línea 3253" x2="66.615" transform="translate(93.547 167.337)" fill="none" stroke="#263238" stroke-miterlimit="10" stroke-width="1"/>
            <line id="Línea_3254" data-name="Línea 3254" x2="26.855" transform="translate(152.489 175.708)" fill="none" stroke="#263238" stroke-miterlimit="10" stroke-width="1"/>
            <line id="Línea_3255" data-name="Línea 3255" x2="33.831" transform="translate(111.334 175.708)" fill="none" stroke="#263238" stroke-miterlimit="10" stroke-width="1"/>
            <line id="Línea_3256" data-name="Línea 3256" x2="11.509" transform="translate(93.547 175.708)" fill="none" stroke="#263238" stroke-miterlimit="10" stroke-width="1"/>
            <line id="Línea_3257" data-name="Línea 3257" x2="52.316" transform="translate(127.029 184.078)" fill="none" stroke="#263238" stroke-miterlimit="10" stroke-width="1"/>
            <line id="Línea_3258" data-name="Línea 3258" x2="21.972" transform="translate(93.547 184.078)" fill="none" stroke="#263238" stroke-miterlimit="10" stroke-width="1"/>
            <circle id="Elipse_11571" data-name="Elipse 11571" cx="9.068" cy="9.068" r="9.068" transform="translate(190.648 167.512) rotate(-9.217)" fill="none" stroke="#263238" stroke-miterlimit="10" stroke-width="1"/>
            <path id="Trazado_874040" data-name="Trazado 874040" d="M250.818,15.575a1.183,1.183,0,0,1-1.183-1.183V7.731a2.521,2.521,0,0,0-2.521-2.521H236.378a2.521,2.521,0,0,0-2.521,2.521v6.661a1.183,1.183,0,0,1-1.183,1.183,1.183,1.183,0,0,0-1.183,1.183V34.8H252V16.758a1.183,1.183,0,0,0-1.183-1.183m-9.072-.621a3.308,3.308,0,1,1,3.308-3.308,3.308,3.308,0,0,1-3.308,3.308" transform="translate(-90.007 -2.026)" fill="#263238"/>
            <path id="Trazado_874041" data-name="Trazado 874041" d="M250.818,15.575a1.183,1.183,0,0,1-1.183-1.183V7.731a2.521,2.521,0,0,0-2.521-2.521H236.378a2.521,2.521,0,0,0-2.521,2.521v6.661a1.183,1.183,0,0,1-1.183,1.183,1.183,1.183,0,0,0-1.183,1.183V34.8H252V16.758A1.183,1.183,0,0,0,250.818,15.575Zm-9.072-.621a3.308,3.308,0,1,1,3.308-3.308A3.308,3.308,0,0,1,241.746,14.954Z" transform="translate(-90.007 -2.026)" fill="none" stroke="#263238" stroke-linecap="round" stroke-linejoin="round" stroke-width="1"/>
            <path id="Trazado_874042" data-name="Trazado 874042" d="M259.923,55.609H195.87V49.531a5.285,5.285,0,0,1,5.286-5.285h53.482a5.285,5.285,0,0,1,5.285,5.285Z" transform="translate(-76.157 -17.204)" fill="#fff"/>
            <path id="Trazado_874043" data-name="Trazado 874043" d="M259.923,55.609H195.87V49.531a5.285,5.285,0,0,1,5.286-5.285h53.482a5.285,5.285,0,0,1,5.285,5.285Z" transform="translate(-76.157 -17.204)" fill="none" stroke="#263238" stroke-linecap="round" stroke-linejoin="round" stroke-width="1"/>
            <path id="Trazado_874044" data-name="Trazado 874044" d="M198.466,46.211h60.88a6.009,6.009,0,0,0-4.445-1.965H202.911a6.01,6.01,0,0,0-4.445,1.965" transform="translate(-77.167 -17.204)" fill="#263238"/>
            <path id="Trazado_874045" data-name="Trazado 874045" d="M198.466,46.211h60.88a6.009,6.009,0,0,0-4.445-1.965H202.911A6.01,6.01,0,0,0,198.466,46.211Z" transform="translate(-77.167 -17.204)" fill="none" stroke="#263238" stroke-linecap="round" stroke-linejoin="round" stroke-width="1"/>
            <rect id="Rectángulo_401878" data-name="Rectángulo 401878" width="64.053" height="3.736" transform="translate(119.713 38.352)" fill="#fff"/>
            <rect id="Rectángulo_401879" data-name="Rectángulo 401879" width="64.053" height="3.736" transform="translate(119.713 38.352)" fill="none" stroke="#263238" stroke-linecap="round" stroke-linejoin="round" stroke-width="1"/>
            <path id="Trazado_874046" data-name="Trazado 874046" d="M323.3,219.865l2.465,4.382,9.311-9.037" transform="translate(-125.704 -83.677)" fill="none" stroke="#93fdf3" stroke-linecap="round" stroke-miterlimit="10" stroke-width="6"/>
            <path id="Trazado_874047" data-name="Trazado 874047" d="M323.3,158.16l2.465,4.382,9.311-9.037" transform="translate(-125.704 -59.685)" fill="none" stroke="#93fdf3" stroke-linecap="round" stroke-miterlimit="10" stroke-width="6"/>
            <line id="Línea_3259" data-name="Línea 3259" x2="10.812" transform="translate(168.532 55.808)" fill="none" stroke="#263238" stroke-miterlimit="10" stroke-width="1"/>
            <line id="Línea_3260" data-name="Línea 3260" x2="66.615" transform="translate(93.547 55.808)" fill="none" stroke="#263238" stroke-miterlimit="10" stroke-width="1"/>
            <line id="Línea_3261" data-name="Línea 3261" x2="26.855" transform="translate(152.489 64.178)" fill="none" stroke="#263238" stroke-miterlimit="10" stroke-width="1"/>
            <line id="Línea_3262" data-name="Línea 3262" x2="33.831" transform="translate(111.334 64.178)" fill="none" stroke="#263238" stroke-miterlimit="10" stroke-width="1"/>
            <line id="Línea_3263" data-name="Línea 3263" x2="11.509" transform="translate(93.547 64.178)" fill="none" stroke="#263238" stroke-miterlimit="10" stroke-width="1"/>
            <line id="Línea_3264" data-name="Línea 3264" x2="52.316" transform="translate(127.029 72.549)" fill="none" stroke="#263238" stroke-miterlimit="10" stroke-width="1"/>
            <line id="Línea_3265" data-name="Línea 3265" x2="21.972" transform="translate(93.547 72.549)" fill="none" stroke="#263238" stroke-miterlimit="10" stroke-width="1"/>
            <circle id="Elipse_11572" data-name="Elipse 11572" cx="9.068" cy="9.068" r="9.068" transform="matrix(0.987, -0.16, 0.16, 0.987, 190.648, 55.982)" fill="none" stroke="#263238" stroke-miterlimit="10" stroke-width="1"/>
            <path id="Trazado_874048" data-name="Trazado 874048" d="M323.3,97.8l2.465,4.382,9.311-9.037" transform="translate(-125.704 -36.215)" fill="none" stroke="#93fdf3" stroke-linecap="round" stroke-miterlimit="10" stroke-width="6"/>
            <path id="Trazado_874049" data-name="Trazado 874049" d="M321.165,278.088l2.465,4.382,9.311-9.037" transform="translate(-124.874 -106.315)" fill="none" stroke="#93fdf3" stroke-linecap="round" stroke-miterlimit="10" stroke-width="6"/>
          </g>
        </g>
        <g id="Grupo_1101052" data-name="Grupo 1101052">
          <g id="Grupo_1101051" data-name="Grupo 1101051" clip-path="url(#clip-path)">
            <path id="Trazado_874050" data-name="Trazado 874050" d="M390.684,184.361s3.3,2.8,3.049,5.252-3.557,8.47-4.319,10.249,1.016,6.015,1.016,6.015L379.418,209.6a4.782,4.782,0,0,0,0-1.948c-.255-.593-.678-2.2-.678-2.2s-1.694.593-2.2.762-2.287-.678-2.371-1.44-.084-1.271-.169-2.372a21.4,21.4,0,0,0-.424-3.388c-.169-.339-1.864-1.44-1.779-2.033s2.032-2.88,2.2-3.642-.255-2.456-.086-3.388a31.6,31.6,0,0,1,1.78-4.151s-1.016-.847,1.779-3.134,9.826-2.965,13.214,1.694" transform="translate(-144.558 -70.335)" fill="#fff"/>
            <path id="Trazado_874051" data-name="Trazado 874051" d="M390.684,184.361s3.3,2.8,3.049,5.252-3.557,8.47-4.319,10.249,1.016,6.015,1.016,6.015L379.418,209.6a4.782,4.782,0,0,0,0-1.948c-.255-.593-.678-2.2-.678-2.2s-1.694.593-2.2.762-2.287-.678-2.371-1.44-.084-1.271-.169-2.372a21.4,21.4,0,0,0-.424-3.388c-.169-.339-1.864-1.44-1.779-2.033s2.032-2.88,2.2-3.642-.255-2.456-.086-3.388a31.6,31.6,0,0,1,1.78-4.151s-1.016-.847,1.779-3.134S387.3,179.7,390.684,184.361Z" transform="translate(-144.558 -70.335)" fill="none" stroke="#263238" stroke-linecap="round" stroke-linejoin="round" stroke-width="1"/>
            <path id="Trazado_874052" data-name="Trazado 874052" d="M391.639,184.361c-3.388-4.659-10.419-3.981-13.214-1.694s-1.779,3.134-1.779,3.134l2.541,1.948s-2.372,2.711-2.033,3.049,2.2,2.711,2.2,2.711l-.163.79-.336-1.283s-1.052,4.214-1.251,5.267-.2,1.449-.658,1.58-2.42-.847-2.42-.847-.016,2.493-.082,3.546-.131,1.909-.2,2.83a2.539,2.539,0,0,0,2.963,2.107c1.645-.329,2.53-1.195,2.483-2.046s.545-3.813.282-4.405a10.027,10.027,0,0,1-.282-4.828s1.1-2.372,2.287-2.372,1.356,3.219,1.016,3.981-.508,1.186-.508,1.186,0,.508,3.3,1.609c2.48.826,3.861.365,4.4.083a2.584,2.584,0,0,1,.178-.845c.762-1.779,4.066-7.793,4.319-10.25s-3.049-5.252-3.049-5.252" transform="translate(-145.513 -70.335)" fill="#263238"/>
            <path id="Trazado_874053" data-name="Trazado 874053" d="M391.639,184.361c-3.388-4.659-10.419-3.981-13.214-1.694s-1.779,3.134-1.779,3.134l2.541,1.948s-2.372,2.711-2.033,3.049,2.2,2.711,2.2,2.711l-.163.79-.336-1.283s-1.052,4.214-1.251,5.267-.2,1.449-.658,1.58-2.42-.847-2.42-.847-.016,2.493-.082,3.546-.131,1.909-.2,2.83a2.539,2.539,0,0,0,2.963,2.107c1.645-.329,2.53-1.195,2.483-2.046s.545-3.813.282-4.405a10.027,10.027,0,0,1-.282-4.828s1.1-2.372,2.287-2.372,1.356,3.219,1.016,3.981-.508,1.186-.508,1.186,0,.508,3.3,1.609c2.48.826,3.861.365,4.4.083a2.584,2.584,0,0,1,.178-.845c.762-1.779,4.066-7.793,4.319-10.25S391.639,184.361,391.639,184.361Z" transform="translate(-145.513 -70.335)" fill="none" stroke="#263238" stroke-linecap="round" stroke-linejoin="round" stroke-width="1"/>
            <path id="Trazado_874054" data-name="Trazado 874054" d="M386.117,210.543s-.762,1.186-1.44,1.44-1.1-.678-1.1-.678" transform="translate(-149.14 -81.862)" fill="none" stroke="#263238" stroke-linecap="round" stroke-linejoin="round" stroke-width="1"/>
            <path id="Trazado_874055" data-name="Trazado 874055" d="M375.815,200.972c0,.608.152,1.1.339,1.1s.339-.493.339-1.1-.152-1.1-.339-1.1-.339.493-.339,1.1" transform="translate(-146.123 -77.713)" fill="#263238"/>
            <path id="Trazado_874056" data-name="Trazado 874056" d="M376.724,198.993s.169-1.1-1.186-.593" transform="translate(-146.015 -77.089)" fill="none" stroke="#263238" stroke-linecap="round" stroke-linejoin="round" stroke-width="1"/>
            <path id="Trazado_874057" data-name="Trazado 874057" d="M376.157,214.115a3.054,3.054,0,0,0,1.271-.678" transform="translate(-146.256 -82.988)" fill="none" stroke="#fff" stroke-linecap="round" stroke-linejoin="round" stroke-width="1"/>
            <path id="Trazado_874058" data-name="Trazado 874058" d="M325.408,250H344.58l4.448,15.025H329.856Z" transform="translate(-126.523 -97.202)" fill="#fff"/>
            <path id="Trazado_874059" data-name="Trazado 874059" d="M325.408,250H344.58l4.448,15.025H329.856Z" transform="translate(-126.523 -97.202)" fill="none" stroke="#263238" stroke-linecap="round" stroke-linejoin="round" stroke-width="1"/>
            <path id="Trazado_874060" data-name="Trazado 874060" d="M327.636,251.414H344.6l3.935,13.292H331.571Z" transform="translate(-127.39 -97.753)" fill="#fff"/>
            <path id="Trazado_874061" data-name="Trazado 874061" d="M327.636,251.414H344.6l3.935,13.292H331.571Z" transform="translate(-127.39 -97.753)" fill="none" stroke="#263238" stroke-linecap="round" stroke-linejoin="round" stroke-width="1"/>
            <rect id="Rectángulo_401881" data-name="Rectángulo 401881" width="23.398" height="1.018" transform="translate(203.471 167.975)" fill="#fff"/>
            <rect id="Rectángulo_401882" data-name="Rectángulo 401882" width="23.398" height="1.018" transform="translate(203.471 167.975)" fill="none" stroke="#263238" stroke-linecap="round" stroke-linejoin="round" stroke-width="1"/>
            <path id="Trazado_874062" data-name="Trazado 874062" d="M378.043,433.8s-2.065,2.89-3.459,3.65-4.814,1.647-4.814,2.533.254,1.013,1.774,1.52a22.687,22.687,0,0,0,5.827.507,26.634,26.634,0,0,1,3.673.127,36.392,36.392,0,0,0,4.561.38c1.266,0,1.2-3.368,1.2-3.368Z" transform="translate(-143.773 -168.667)" fill="#fff"/>
            <path id="Trazado_874063" data-name="Trazado 874063" d="M378.043,433.8s-2.065,2.89-3.459,3.65-4.814,1.647-4.814,2.533.254,1.013,1.774,1.52a22.687,22.687,0,0,0,5.827.507,26.634,26.634,0,0,1,3.673.127,36.392,36.392,0,0,0,4.561.38c1.266,0,1.2-3.368,1.2-3.368Z" transform="translate(-143.773 -168.667)" fill="none" stroke="#263238" stroke-linecap="round" stroke-linejoin="round" stroke-width="1"/>
            <path id="Trazado_874064" data-name="Trazado 874064" d="M403.689,316.352s-3,23.638-5.821,31.513-1.634,10.253-3.566,18.276-2.229,26.9-2.229,27.341-.892,0-4.012-1.634a15.792,15.792,0,0,1-4.755-3.715,22.63,22.63,0,0,1,.446-2.823c.3-1.189.892-4.31.892-4.31s-1.189-10.1.149-26.3,1.932-35.4,1.932-35.4,10.873-1.461,16.965-2.947" transform="translate(-149.035 -123.002)" fill="#263238"/>
            <path id="Trazado_874065" data-name="Trazado 874065" d="M403.689,316.352s-3,23.638-5.821,31.513-1.634,10.253-3.566,18.276-2.229,26.9-2.229,27.341-.892,0-4.012-1.634a15.792,15.792,0,0,1-4.755-3.715,22.63,22.63,0,0,1,.446-2.823c.3-1.189.892-4.31.892-4.31s-1.189-10.1.149-26.3,1.932-35.4,1.932-35.4S397.6,317.838,403.689,316.352Z" transform="translate(-149.035 -123.002)" fill="none" stroke="#263238" stroke-linecap="round" stroke-linejoin="round" stroke-width="1"/>
            <path id="Trazado_874066" data-name="Trazado 874066" d="M386.39,442.126a20.435,20.435,0,0,1-3.472,2.938c-1.335.712-5.52,2.225-5.609,2.848a2.85,2.85,0,0,0,.623,1.959,45.844,45.844,0,0,0,7.211.8c3.383.089,7.3-.356,8.279-.356s3.294.891,3.383-1.78a21.615,21.615,0,0,0-1.335-6.5,17.7,17.7,0,0,1-9.08.089" transform="translate(-146.699 -171.871)" fill="#fff"/>
            <path id="Trazado_874067" data-name="Trazado 874067" d="M386.39,442.126a20.435,20.435,0,0,1-3.472,2.938c-1.335.712-5.52,2.225-5.609,2.848a2.85,2.85,0,0,0,.623,1.959,45.844,45.844,0,0,0,7.211.8c3.383.089,7.3-.356,8.279-.356s3.294.891,3.383-1.78a21.615,21.615,0,0,0-1.335-6.5A17.7,17.7,0,0,1,386.39,442.126Z" transform="translate(-146.699 -171.871)" fill="none" stroke="#263238" stroke-linecap="round" stroke-linejoin="round" stroke-width="1"/>
            <path id="Trazado_874068" data-name="Trazado 874068" d="M392.007,324.473s-1.082,15.288-1.623,19.887.541,14.34,1.758,21.1,1.623,20.7,1.623,20.7a1.083,1.083,0,0,1,.406,1.353,19.025,19.025,0,0,0-.812,2.029s1.488.541,1.353,1.488-.541,2.706-.541,2.706a28.079,28.079,0,0,1-3.653.135,25.006,25.006,0,0,1-5.141-.541l-1.082-.542s-.271-2.164-.271-3.382,1.353-2.435,1.217-3.112-.812-4.464-1.353-7.576-.136-5.006-1.082-8.252-6.223-22.592-6.223-22.592-2.435-22.458-2.57-25.57-.136-4.464-.136-4.464,4.194-3.382,5.141-3.382,12.987,10.011,12.987,10.011" transform="translate(-145.37 -122.268)" fill="#263238"/>
            <path id="Trazado_874069" data-name="Trazado 874069" d="M392.007,324.473s-1.082,15.288-1.623,19.887.541,14.34,1.758,21.1,1.623,20.7,1.623,20.7a1.083,1.083,0,0,1,.406,1.353,19.025,19.025,0,0,0-.812,2.029s1.488.541,1.353,1.488-.541,2.706-.541,2.706a28.079,28.079,0,0,1-3.653.135,25.006,25.006,0,0,1-5.141-.541l-1.082-.542s-.271-2.164-.271-3.382,1.353-2.435,1.217-3.112-.812-4.464-1.353-7.576-.136-5.006-1.082-8.252-6.223-22.592-6.223-22.592-2.435-22.458-2.57-25.57-.136-4.464-.136-4.464,4.194-3.382,5.141-3.382S392.007,324.473,392.007,324.473Z" transform="translate(-145.37 -122.268)" fill="none" stroke="#263238" stroke-linecap="round" stroke-linejoin="round" stroke-width="1"/>
            <path id="Trazado_874070" data-name="Trazado 874070" d="M373.093,316.21s-.464,3.4,0,4.1,4.486,1.779,9.513,2.32,11.445,0,13.61-.773,3.558-1.469,3.867-2.011.077-3.4.077-3.4-20.03,1.159-27.067-.232" transform="translate(-144.984 -122.947)" fill="#93fdf3"/>
            <path id="Trazado_874071" data-name="Trazado 874071" d="M373.093,316.21s-.464,3.4,0,4.1,4.486,1.779,9.513,2.32,11.445,0,13.61-.773,3.558-1.469,3.867-2.011.077-3.4.077-3.4S380.13,317.6,373.093,316.21Z" transform="translate(-144.984 -122.947)" fill="none" stroke="#263238" stroke-linecap="round" stroke-linejoin="round" stroke-width="1"/>
            <path id="Trazado_874072" data-name="Trazado 874072" d="M391.961,225.057s7.116,4.755,8.438,12.309c1.178,6.735-.73,30.468-.73,31.738s.977,11.563.977,11.563c1.005,2.165-7.235,4.142-11.755,4.563-4,.372-12.813-.516-15.355-1.771-.8-.4-1.576-.827-1.595-1.724-.09-4.147-.3-15.22-.027-16.866.339-2.033-.03-13.891-.03-17.957s-1.524-10.25-.169-12.875,4.828-4.4,4.828-4.4a23.335,23.335,0,0,1,15.417-4.574" transform="translate(-144.311 -87.482)" fill="#93fdf3"/>
            <path id="Trazado_874073" data-name="Trazado 874073" d="M391.961,225.057s7.116,4.755,8.438,12.309c1.178,6.735-.73,30.468-.73,31.738s.977,11.563.977,11.563c1.005,2.165-7.235,4.142-11.755,4.563-4,.372-12.813-.516-15.355-1.771-.8-.4-1.576-.827-1.595-1.724-.09-4.147-.3-15.22-.027-16.866.339-2.033-.03-13.891-.03-17.957s-1.524-10.25-.169-12.875,4.828-4.4,4.828-4.4A23.335,23.335,0,0,1,391.961,225.057Z" transform="translate(-144.311 -87.482)" fill="none" stroke="#263238" stroke-linecap="round" stroke-linejoin="round" stroke-width="1"/>
            <path id="Trazado_874074" data-name="Trazado 874074" d="M404.139,264.409a18.616,18.616,0,0,1-1.831,2.943" transform="translate(-156.423 -102.806)" fill="none" stroke="#263238" stroke-linecap="round" stroke-linejoin="round" stroke-width="1"/>
            <path id="Trazado_874075" data-name="Trazado 874075" d="M411.085,247.832s-1.63,3.713-3.36,7.235" transform="translate(-158.53 -96.361)" fill="none" stroke="#263238" stroke-linecap="round" stroke-linejoin="round" stroke-width="1"/>
            <line id="Línea_3266" data-name="Línea 3266" x1="3.602" y2="4.803" transform="translate(245.618 163.212)" fill="none" stroke="#263238" stroke-linecap="round" stroke-linejoin="round" stroke-width="1"/>
            <path id="Trazado_874076" data-name="Trazado 874076" d="M395.474,219.393l1.609,4.066s-3.388.17-6.522.593-10.589,3.388-10.589,3.388.763-3.049,1.356-3.642a13.8,13.8,0,0,1,7.03-3.727,25.909,25.909,0,0,1,7.115-.678" transform="translate(-147.739 -85.291)" fill="#93fdf3"/>
            <path id="Trazado_874077" data-name="Trazado 874077" d="M395.474,219.393l1.609,4.066s-3.388.17-6.522.593-10.589,3.388-10.589,3.388.763-3.049,1.356-3.642a13.8,13.8,0,0,1,7.03-3.727A25.909,25.909,0,0,1,395.474,219.393Z" transform="translate(-147.739 -85.291)" fill="none" stroke="#263238" stroke-linecap="round" stroke-linejoin="round" stroke-width="1"/>
            <path id="Trazado_874078" data-name="Trazado 874078" d="M365.318,277.7s-.542,6.4-1.246,6.712-18.161-5.773-19.412-6.4a6.1,6.1,0,0,0-2.191-.626,14.4,14.4,0,0,1-3.13-.469,10.127,10.127,0,0,1-1.8-1.565c-.235-.156-2.113-.235-2.661-.626s-1.252-.7-.782-.939a24.271,24.271,0,0,1,2.817-.7s.078-1.1,1.018-1.252.626.235,2.9-1.1,2.035-.235,3.991,1.173a22.085,22.085,0,0,1,3.13,3.052c.235.078,7.356,2.739,7.356,2.739Z" transform="translate(-129.841 -105.034)" fill="#fff"/>
            <path id="Trazado_874079" data-name="Trazado 874079" d="M365.318,277.7s-.542,6.4-1.246,6.712-18.161-5.773-19.412-6.4a6.1,6.1,0,0,0-2.191-.626,14.4,14.4,0,0,1-3.13-.469,10.127,10.127,0,0,1-1.8-1.565c-.235-.156-2.113-.235-2.661-.626s-1.252-.7-.782-.939a24.271,24.271,0,0,1,2.817-.7s.078-1.1,1.018-1.252.626.235,2.9-1.1,2.035-.235,3.991,1.173a22.085,22.085,0,0,1,3.13,3.052c.235.078,7.356,2.739,7.356,2.739Z" transform="translate(-129.841 -105.034)" fill="none" stroke="#263238" stroke-linecap="round" stroke-linejoin="round" stroke-width="1"/>
            <line id="Línea_3267" data-name="Línea 3267" y1="0.469" x2="3.835" transform="translate(207.071 167.584)" fill="#fff"/>
            <line id="Línea_3268" data-name="Línea 3268" y1="0.469" x2="3.835" transform="translate(207.071 167.584)" fill="none" stroke="#263238" stroke-linecap="round" stroke-linejoin="round" stroke-width="1"/>
            <path id="Trazado_874080" data-name="Trazado 874080" d="M357.458,278.62s-1.079-.93-1.806-.623a4.2,4.2,0,0,0-1.887,3.367c-.106,1.689,2.638,1.9,2.638,1.9Z" transform="translate(-137.548 -108.065)" fill="#93fdf3"/>
            <path id="Trazado_874081" data-name="Trazado 874081" d="M357.458,278.62s-1.079-.93-1.806-.623a4.2,4.2,0,0,0-1.887,3.367c-.106,1.689,2.638,1.9,2.638,1.9Z" transform="translate(-137.548 -108.065)" fill="none" stroke="#263238" stroke-linecap="round" stroke-linejoin="round" stroke-width="1"/>
            <path id="Trazado_874082" data-name="Trazado 874082" d="M372.873,233.833c-1.411,0-5.13,1.026-6.284,2.308s-1.282,5-.9,10,2.343,14.363,2.352,14.408c-.022-.106-.241.5-.3.6-.257.458.4.535-.211.633a12.212,12.212,0,0,1-1.609.12q-1.344-.23-2.688-.455a40.794,40.794,0,0,0-5.432-.576c-.571,0-2.074,4.6-1.217,5.6s17.847,7.6,18.989,7.315,3.326-15.3,3.292-15.372c.334-4.116.732-8.946.8-9.452" transform="translate(-138.545 -90.918)" fill="#93fdf3"/>
            <path id="Trazado_874083" data-name="Trazado 874083" d="M372.873,233.833c-1.411,0-5.13,1.026-6.284,2.308s-1.282,5-.9,10,2.343,14.363,2.352,14.408c-.022-.106-.241.5-.3.6-.257.458.4.535-.211.633a12.212,12.212,0,0,1-1.609.12q-1.344-.23-2.688-.455a40.794,40.794,0,0,0-5.432-.576c-.571,0-2.074,4.6-1.217,5.6s17.847,7.6,18.989,7.315,3.326-15.3,3.292-15.372c.334-4.116.732-8.946.8-9.452" transform="translate(-138.545 -90.918)" fill="none" stroke="#263238" stroke-linecap="round" stroke-linejoin="round" stroke-width="1"/>
            <path id="Trazado_874084" data-name="Trazado 874084" d="M374.659,279.574a34.845,34.845,0,0,0,3.588,3.271" transform="translate(-145.673 -108.703)" fill="none" stroke="#263238" stroke-linecap="round" stroke-linejoin="round" stroke-width="1"/>
            <path id="Trazado_874085" data-name="Trazado 874085" d="M377.249,284.408a11.271,11.271,0,0,0,2.533,1.794" transform="translate(-146.68 -110.582)" fill="none" stroke="#263238" stroke-linecap="round" stroke-linejoin="round" stroke-width="1"/>
          </g>
        </g>
        <g id="Grupo_1101054" data-name="Grupo 1101054">
          <g id="Grupo_1101053" data-name="Grupo 1101053" clip-path="url(#clip-path)">
            <path id="Trazado_874086" data-name="Trazado 874086" d="M265.631,211.66c-.35-2.1-1.75-3.5-2.1-4.783a16.123,16.123,0,0,0-1.167-2.8,37.071,37.071,0,0,0-2.734,7.642l-.309-.725-5.8,4.545-.341,10.113,9.4.443s-.385-1.674-.515-2.917a13.081,13.081,0,0,1,.213-3.674s2.655.06,2.888-.873a24.482,24.482,0,0,0,.46-6.972" transform="translate(-98.443 -79.349)" fill="#fff"/>
            <path id="Trazado_874087" data-name="Trazado 874087" d="M265.631,211.66c-.35-2.1-1.75-3.5-2.1-4.783a16.123,16.123,0,0,0-1.167-2.8,37.071,37.071,0,0,0-2.734,7.642l-.309-.725-5.8,4.545-.341,10.113,9.4.443s-.385-1.674-.515-2.917a13.081,13.081,0,0,1,.213-3.674s2.655.06,2.888-.873A24.482,24.482,0,0,0,265.631,211.66Z" transform="translate(-98.443 -79.349)" fill="none" stroke="#263238" stroke-linecap="round" stroke-linejoin="round" stroke-width="1"/>
            <path id="Trazado_874088" data-name="Trazado 874088" d="M271.073,210.4a4.886,4.886,0,0,0,1.1.274c.342,0,.958.068.753.89a1.738,1.738,0,0,1-.685,1.1Z" transform="translate(-105.397 -81.805)" fill="#fff"/>
            <path id="Trazado_874089" data-name="Trazado 874089" d="M271.073,210.4a4.886,4.886,0,0,0,1.1.274c.342,0,.958.068.753.89a1.738,1.738,0,0,1-.685,1.1Z" transform="translate(-105.397 -81.805)" fill="none" stroke="#263238" stroke-linecap="round" stroke-linejoin="round" stroke-width="1"/>
            <path id="Trazado_874090" data-name="Trazado 874090" d="M264.793,401.616s-1.284,21.842-1.284,22.188-1.616,5.77-1.385,6.577,2.077,1.039,3.346,1.154,3.923.462,4.962.462a38,38,0,0,0,5.423-.462c.692-.23,1.615-.923.808-1.5s-2.769-.807-5.077-3.462a22.443,22.443,0,0,1-2.885-3.808l4.861-20.918Z" transform="translate(-101.909 -156.154)" fill="#fff"/>
            <path id="Trazado_874091" data-name="Trazado 874091" d="M264.793,401.616s-1.284,21.842-1.284,22.188-1.616,5.77-1.385,6.577,2.077,1.039,3.346,1.154,3.923.462,4.962.462a38,38,0,0,0,5.423-.462c.692-.23,1.615-.923.808-1.5s-2.769-.807-5.077-3.462a22.443,22.443,0,0,1-2.885-3.808l4.861-20.918Z" transform="translate(-101.909 -156.154)" fill="none" stroke="#263238" stroke-linecap="round" stroke-linejoin="round" stroke-width="1"/>
            <path id="Trazado_874092" data-name="Trazado 874092" d="M203.814,395.008s-8.988,22.364-9.681,23.288-5.357,6.82-5.473,7.974,5.855,1.263,6.894.571,2.271-6.7,2.964-7.968,16.027-22.25,16.027-22.25Z" transform="translate(-73.354 -153.585)" fill="#fff"/>
            <path id="Trazado_874093" data-name="Trazado 874093" d="M203.814,395.008s-8.988,22.364-9.681,23.288-5.357,6.82-5.473,7.974,5.855,1.263,6.894.571,2.271-6.7,2.964-7.968,16.027-22.25,16.027-22.25Z" transform="translate(-73.354 -153.585)" fill="none" stroke="#263238" stroke-linecap="round" stroke-linejoin="round" stroke-width="1"/>
            <path id="Trazado_874094" data-name="Trazado 874094" d="M224.979,285.952l-.171,3.754s-4.677,10.1-9.234,22.637C210.612,325.994,204.16,349.6,204.16,349.6s4.266,3.925,15.87,5.8,18.824,2.673,25.134,2.481a117.769,117.769,0,0,0,17.356-2.31s-5.46-33.447-9.9-48.634-5.492-16.7-5.492-16.7l-1.511-8.467Z" transform="translate(-79.38 -109.56)" fill="#8f8f8f"/>
            <path id="Trazado_874095" data-name="Trazado 874095" d="M224.979,285.952l-.171,3.754s-4.677,10.1-9.234,22.637C210.612,325.994,204.16,349.6,204.16,349.6s4.266,3.925,15.87,5.8,18.824,2.673,25.134,2.481a117.769,117.769,0,0,0,17.356-2.31s-5.46-33.447-9.9-48.634-5.492-16.7-5.492-16.7l-1.511-8.467Z" transform="translate(-79.38 -109.56)" fill="none" stroke="#263238" stroke-linecap="round" stroke-linejoin="round" stroke-width="1"/>
            <line id="Línea_3269" data-name="Línea 3269" x1="1.271" y2="44.804" transform="translate(151.571 202.236)" fill="none" stroke="#263238" stroke-linecap="round" stroke-linejoin="round" stroke-width="1"/>
            <line id="Línea_3270" data-name="Línea 3270" x1="0.05" y2="1.761" transform="translate(152.886 198.918)" fill="none" stroke="#263238" stroke-linecap="round" stroke-linejoin="round" stroke-width="1"/>
            <path id="Trazado_874096" data-name="Trazado 874096" d="M266.082,295.843c.713-.149,1.412-.326,2.085-.534" transform="translate(-103.457 -114.821)" fill="none" stroke="#263238" stroke-linecap="round" stroke-linejoin="round" stroke-width="1"/>
            <path id="Trazado_874097" data-name="Trazado 874097" d="M241.294,296.7a56.33,56.33,0,0,0,12.538.106" transform="translate(-93.819 -115.363)" fill="none" stroke="#263238" stroke-linecap="round" stroke-linejoin="round" stroke-width="1"/>
            <path id="Trazado_874098" data-name="Trazado 874098" d="M306.564,207.57a29.719,29.719,0,0,1-.585-3.761c-.084-1.5-1.5-3.51-1.337-4.346a.889.889,0,0,1,1.421-.5,4.093,4.093,0,0,1,.919,1.087,25.686,25.686,0,0,0,1.17-5.181c0-1.588,1-1.421,1.42-.334s-.167,5.265-.167,5.265a21.392,21.392,0,0,1,2.34.752,2.744,2.744,0,0,1,1.922,3.092c-.251,2.09-.5,3.259-1,3.259s-.92-.669-.92-.669,0,2.257-.752,2.925a4.438,4.438,0,0,1-2.257.752s.167-1.671-2.173-2.34" transform="translate(-118.444 -75.312)" fill="#fff"/>
            <path id="Trazado_874099" data-name="Trazado 874099" d="M306.564,207.57a29.719,29.719,0,0,1-.585-3.761c-.084-1.5-1.5-3.51-1.337-4.346a.889.889,0,0,1,1.421-.5,4.093,4.093,0,0,1,.919,1.087,25.686,25.686,0,0,0,1.17-5.181c0-1.588,1-1.421,1.42-.334s-.167,5.265-.167,5.265a21.392,21.392,0,0,1,2.34.752,2.744,2.744,0,0,1,1.922,3.092c-.251,2.09-.5,3.259-1,3.259s-.92-.669-.92-.669,0,2.257-.752,2.925a4.438,4.438,0,0,1-2.257.752S308.9,208.239,306.564,207.57Z" transform="translate(-118.444 -75.312)" fill="none" stroke="#263238" stroke-linecap="round" stroke-linejoin="round" stroke-width="1"/>
            <path id="Trazado_874100" data-name="Trazado 874100" d="M316.272,212.826s.5-1.922.5-2.173" transform="translate(-122.971 -81.905)" fill="none" stroke="#263238" stroke-linecap="round" stroke-linejoin="round" stroke-width="1"/>
            <line id="Línea_3271" data-name="Línea 3271" x1="0.501" y2="2.34" transform="translate(188.036 124.737)" fill="none" stroke="#263238" stroke-linecap="round" stroke-linejoin="round" stroke-width="1"/>
            <path id="Trazado_874101" data-name="Trazado 874101" d="M304.4,218.2l1.574-2.664a1.743,1.743,0,0,1,2.059-.364l.043.015a2.653,2.653,0,0,1,1.691,3.2l-.4,1.507s-3.149-1.816-4.965-1.7" transform="translate(-118.354 -83.604)" fill="#93fdf3"/>
            <path id="Trazado_874102" data-name="Trazado 874102" d="M304.4,218.2l1.574-2.664a1.743,1.743,0,0,1,2.059-.364l.043.015a2.653,2.653,0,0,1,1.691,3.2l-.4,1.507S306.212,218.08,304.4,218.2Z" transform="translate(-118.354 -83.604)" fill="none" stroke="#263238" stroke-linecap="round" stroke-linejoin="round" stroke-width="1"/>
            <path id="Trazado_874103" data-name="Trazado 874103" d="M192.109,307.151s.38,2,.57,3.422,1.141,4.278,1.806,4.658,1.521.856.571,1.141a2.18,2.18,0,0,1-2.377-.285,8.507,8.507,0,0,1-1.426-1.426s-.666,2.947-1.14,4.373a23.657,23.657,0,0,1-1.9,3.707,1.345,1.345,0,0,1-.617,1.046c-.57.285-.977-.85-.977-.85s-.765,1.784-1.258-.1a48.121,48.121,0,0,1-.76-6.654c.095-.951,3.939-9.762,3.939-9.762Z" transform="translate(-71.771 -119.141)" fill="#fff"/>
            <path id="Trazado_874104" data-name="Trazado 874104" d="M192.109,307.151s.38,2,.57,3.422,1.141,4.278,1.806,4.658,1.521.856.571,1.141a2.18,2.18,0,0,1-2.377-.285,8.507,8.507,0,0,1-1.426-1.426s-.666,2.947-1.14,4.373a23.657,23.657,0,0,1-1.9,3.707,1.345,1.345,0,0,1-.617,1.046c-.57.285-.977-.85-.977-.85s-.765,1.784-1.258-.1a48.121,48.121,0,0,1-.76-6.654c.095-.951,3.939-9.762,3.939-9.762Z" transform="translate(-71.771 -119.141)" fill="none" stroke="#263238" stroke-linecap="round" stroke-linejoin="round" stroke-width="1"/>
            <path id="Trazado_874105" data-name="Trazado 874105" d="M187.681,324.726a4.829,4.829,0,0,0-.587,1.52c0,.38.5,3.81.5,3.81" transform="translate(-72.745 -126.258)" fill="none" stroke="#263238" stroke-linecap="round" stroke-linejoin="round" stroke-width="1"/>
            <path id="Trazado_874106" data-name="Trazado 874106" d="M190.2,329.616l-.49-3.329.87-2.185" transform="translate(-73.764 -126.016)" fill="none" stroke="#263238" stroke-linecap="round" stroke-linejoin="round" stroke-width="1"/>
            <path id="Trazado_874107" data-name="Trazado 874107" d="M191.6,328.536s.039-1.791.162-2.612.331-.673.6-1.665" transform="translate(-74.499 -126.076)" fill="none" stroke="#263238" stroke-linecap="round" stroke-linejoin="round" stroke-width="1"/>
            <path id="Trazado_874108" data-name="Trazado 874108" d="M191.406,316.948a2.817,2.817,0,0,1-.761,1.521,20.711,20.711,0,0,1-2,1.617" transform="translate(-73.35 -123.234)" fill="none" stroke="#263238" stroke-linecap="round" stroke-linejoin="round" stroke-width="1"/>
            <path id="Trazado_874109" data-name="Trazado 874109" d="M217.816,232.961s-7.751,3.755-8.236,4.723-10.173,18.288-11.5,19.983-5.45,3.876-5.935,5.571-.121,6.3-.121,6.3l-.969,3.149s.121,1.09,1.816,1.453l1.7.363,2.907-2.785s6.3-1.574,8.841-4.6,8.72-17.2,8.72-17.2l-.969,9.567a66.326,66.326,0,0,0,13.807.364c7.508-.606,15.744-1.817,15.744-1.817l-1.09-11.142s17.924-2.907,18.893-3.755a8.73,8.73,0,0,0,1.938-4c.122-.848,3.149-17.076,3.149-17.076a5.589,5.589,0,0,0-3.633-2.3c-2.543-.485-5.087.848-5.208,1.574s-5.329,11.264-5.329,11.264-.363-.243-1.7.363-3.678-.342-3.678-.342-4.679-1.354-7.343-1.112-5.208.606-5.208.606-4.723-2.18-8.235-1.211-8.357,2.059-8.357,2.059" transform="translate(-74.284 -85.406)" fill="#93fdf3"/>
            <path id="Trazado_874110" data-name="Trazado 874110" d="M217.816,232.961s-7.751,3.755-8.236,4.723-10.173,18.288-11.5,19.983-5.45,3.876-5.935,5.571-.121,6.3-.121,6.3l-.969,3.149s.121,1.09,1.816,1.453l1.7.363,2.907-2.785s6.3-1.574,8.841-4.6,8.72-17.2,8.72-17.2l-.969,9.567a66.326,66.326,0,0,0,13.807.364c7.508-.606,15.744-1.817,15.744-1.817l-1.09-11.142s17.924-2.907,18.893-3.755a8.73,8.73,0,0,0,1.938-4c.122-.848,3.149-17.076,3.149-17.076a5.589,5.589,0,0,0-3.633-2.3c-2.543-.485-5.087.848-5.208,1.574s-5.329,11.264-5.329,11.264-.363-.243-1.7.363-3.678-.342-3.678-.342-4.679-1.354-7.343-1.112-5.208.606-5.208.606-4.723-2.18-8.235-1.211S217.816,232.961,217.816,232.961Z" transform="translate(-74.284 -85.406)" fill="none" stroke="#263238" stroke-linecap="round" stroke-linejoin="round" stroke-width="1"/>
            <path id="Trazado_874111" data-name="Trazado 874111" d="M262.188,265.3l7.993-1.09L264.853,267" transform="translate(-101.943 -102.73)" fill="none" stroke="#263238" stroke-linecap="round" stroke-linejoin="round" stroke-width="1"/>
            <path id="Trazado_874112" data-name="Trazado 874112" d="M229.251,260.25l-.121,5.45-1.816-2.3" transform="translate(-88.383 -101.189)" fill="none" stroke="#263238" stroke-linecap="round" stroke-linejoin="round" stroke-width="1"/>
            <path id="Trazado_874113" data-name="Trazado 874113" d="M194.419,302.06s.363,1.211,3.27,1.211" transform="translate(-75.593 -117.445)" fill="none" stroke="#263238" stroke-linecap="round" stroke-linejoin="round" stroke-width="1"/>
            <path id="Trazado_874114" data-name="Trazado 874114" d="M241.918,212.265c3.977,3.068,7.323,1.215,8.756-.219,1.746-1.746,1.731-4.033,2.867-6.212.152-.8,2.784-3.581,2.987-4.242.467-1.516-.437-4.175-.437-4.175s2.566.35,1.4-2.216-2.216-3.5-4.666-3.733a4.468,4.468,0,0,0-3.85,1.75s-2.916-1.4-4.9-.35-4.858.021-7.2,7.111a11.138,11.138,0,0,0-.717,2.509c-.1,2.057,1.076,3.53,2.247,5.224,1.8,2.609,1.013,2.624,3.512,4.553" transform="translate(-91.82 -74.439)" fill="#263238"/>
            <path id="Trazado_874115" data-name="Trazado 874115" d="M241.918,212.265c3.977,3.068,7.323,1.215,8.756-.219,1.746-1.746,1.731-4.033,2.867-6.212.152-.8,2.784-3.581,2.987-4.242.467-1.516-.437-4.175-.437-4.175s2.566.35,1.4-2.216-2.216-3.5-4.666-3.733a4.468,4.468,0,0,0-3.85,1.75s-2.916-1.4-4.9-.35-4.858.021-7.2,7.111a11.138,11.138,0,0,0-.717,2.509c-.1,2.057,1.076,3.53,2.247,5.224C240.209,210.321,239.419,210.337,241.918,212.265Z" transform="translate(-91.82 -74.439)" fill="none" stroke="#263238" stroke-linecap="round" stroke-linejoin="round" stroke-width="1"/>
            <path id="Trazado_874116" data-name="Trazado 874116" d="M249.613,218.163a2.954,2.954,0,1,1-2.954-2.954,2.954,2.954,0,0,1,2.954,2.954" transform="translate(-94.756 -83.676)" fill="#fff"/>
            <circle id="Elipse_11573" data-name="Elipse 11573" cx="2.954" cy="2.954" r="2.954" transform="matrix(0.23, -0.973, 0.973, 0.23, 148.348, 136.684)" fill="none" stroke="#263238" stroke-linecap="round" stroke-linejoin="round" stroke-width="1"/>
            <path id="Trazado_874117" data-name="Trazado 874117" d="M233.864,224.947c.021,1.835.02,3.635-1.638,4.878-1.818,1.364-8.864,6.6-5,11.939s4.414,3.863,4.073,5.682-7.84,6.818-6.477,11.249,6.931,6.931,6.136,8.636,1.7,10.113,11.363,5.682,8.989-12.062,5.113-20.681c-.895-1.991-.475-4.537,3.161-8.628s.9-11.95-2.934-15.916c-2.26-2.341-3.181-4.2-3.068-4.659s-3.523-5.8-6.591-4.2a7.624,7.624,0,0,0-4.075,5.1,5.071,5.071,0,0,0-.064.925" transform="translate(-87.35 -85.007)" fill="#263238"/>
            <path id="Trazado_874118" data-name="Trazado 874118" d="M233.864,224.947c.021,1.835.02,3.635-1.638,4.878-1.818,1.364-8.864,6.6-5,11.939s4.414,3.863,4.073,5.682-7.84,6.818-6.477,11.249,6.931,6.931,6.136,8.636,1.7,10.113,11.363,5.682,8.989-12.062,5.113-20.681c-.895-1.991-.475-4.537,3.161-8.628s.9-11.95-2.934-15.916c-2.26-2.341-3.181-4.2-3.068-4.659s-3.523-5.8-6.591-4.2a7.624,7.624,0,0,0-4.075,5.1A5.071,5.071,0,0,0,233.864,224.947Z" transform="translate(-87.35 -85.007)" fill="none" stroke="#263238" stroke-linecap="round" stroke-linejoin="round" stroke-width="1"/>
            <path id="Trazado_874119" data-name="Trazado 874119" d="M263.113,214.534s-1.195-1.673-2.031.119a3.666,3.666,0,0,0,1.016,4.242c.836.657,1.433-1.732,1.433-1.732" transform="translate(-101.391 -83.138)" fill="#fff"/>
            <path id="Trazado_874120" data-name="Trazado 874120" d="M263.113,214.534s-1.195-1.673-2.031.119a3.666,3.666,0,0,0,1.016,4.242c.836.657,1.433-1.732,1.433-1.732" transform="translate(-101.391 -83.138)" fill="none" stroke="#263238" stroke-linecap="round" stroke-linejoin="round" stroke-width="1"/>
            <path id="Trazado_874121" data-name="Trazado 874121" d="M275.855,447.412c.692-.231,1.615-.923.808-1.5s-2.769-.808-5.077-3.462l-.122,2.066a58.732,58.732,0,0,1-8.892-1.074,10.005,10.005,0,0,0-.447,2.816c.23.808,2.077,1.038,3.346,1.154s3.923.461,4.962.461a38.016,38.016,0,0,0,5.423-.461" transform="translate(-101.909 -172.031)" fill="#93fdf3"/>
            <path id="Trazado_874122" data-name="Trazado 874122" d="M275.855,447.412c.692-.231,1.615-.923.808-1.5s-2.769-.808-5.077-3.462l-.122,2.066a58.732,58.732,0,0,1-8.892-1.074,10.005,10.005,0,0,0-.447,2.816c.23.808,2.077,1.038,3.346,1.154s3.923.461,4.962.461A38.016,38.016,0,0,0,275.855,447.412Z" transform="translate(-101.909 -172.031)" fill="none" stroke="#263238" stroke-linecap="round" stroke-linejoin="round" stroke-width="1"/>
            <path id="Trazado_874123" data-name="Trazado 874123" d="M195.554,444.76a7.073,7.073,0,0,0,1.335-2.874,19.747,19.747,0,0,1-6.412-.791,11.9,11.9,0,0,0-1.816,3.094c-.116,1.154,5.855,1.264,6.894.571" transform="translate(-73.354 -171.504)" fill="#93fdf3"/>
            <path id="Trazado_874124" data-name="Trazado 874124" d="M195.554,444.76a7.073,7.073,0,0,0,1.335-2.874,19.747,19.747,0,0,1-6.412-.791,11.9,11.9,0,0,0-1.816,3.094C188.545,445.343,194.516,445.453,195.554,444.76Z" transform="translate(-73.354 -171.504)" fill="none" stroke="#263238" stroke-linecap="round" stroke-linejoin="round" stroke-width="1"/>
          </g>
        </g>
        <rect id="Rectángulo_401885" data-name="Rectángulo 401885" width="5.128" height="9.102" transform="translate(36.898 216.777)" fill="#263238"/>
        <rect id="Rectángulo_401886" data-name="Rectángulo 401886" width="5.128" height="9.102" transform="translate(36.898 216.777)" fill="none" stroke="#263238" stroke-linecap="round" stroke-linejoin="round" stroke-width="1"/>
        <g id="Grupo_1101056" data-name="Grupo 1101056">
          <g id="Grupo_1101055" data-name="Grupo 1101055" clip-path="url(#clip-path)">
            <path id="Trazado_874125" data-name="Trazado 874125" d="M59.013,334.354H52.579a9.554,9.554,0,0,1-9.554-9.554V304.833a9.554,9.554,0,0,1,9.554-9.554h6.434a9.554,9.554,0,0,1,9.554,9.555V324.8a9.554,9.554,0,0,1-9.554,9.554" transform="translate(-16.729 -114.809)" fill="#939393"/>
            <rect id="Rectángulo_401887" data-name="Rectángulo 401887" width="25.542" height="39.075" rx="12.771" transform="translate(26.296 180.47)" fill="none" stroke="#263238" stroke-linecap="round" stroke-linejoin="round" stroke-width="1"/>
            <path id="Trazado_874126" data-name="Trazado 874126" d="M48.635,446.236a2.169,2.169,0,1,0-2.169,2.169,2.169,2.169,0,0,0,2.169-2.169" transform="translate(-17.223 -172.66)" fill="#263238"/>
            <path id="Trazado_874127" data-name="Trazado 874127" d="M48.635,446.236a2.169,2.169,0,1,0-2.169,2.169A2.169,2.169,0,0,0,48.635,446.236Z" transform="translate(-17.223 -172.66)" fill="none" stroke="#263238" stroke-linecap="round" stroke-linejoin="round" stroke-width="1"/>
            <path id="Trazado_874128" data-name="Trazado 874128" d="M117.971,446.236a2.169,2.169,0,1,0-2.169,2.169,2.169,2.169,0,0,0,2.169-2.169" transform="translate(-44.182 -172.66)" fill="#263238"/>
            <path id="Trazado_874129" data-name="Trazado 874129" d="M117.971,446.236a2.169,2.169,0,1,0-2.169,2.169A2.169,2.169,0,0,0,117.971,446.236Z" transform="translate(-44.182 -172.66)" fill="none" stroke="#263238" stroke-linecap="round" stroke-linejoin="round" stroke-width="1"/>
            <path id="Trazado_874130" data-name="Trazado 874130" d="M82.955,446.236c0-1.2-.451-2.169-1.008-2.169s-1.008.971-1.008,2.169.451,2.169,1.008,2.169,1.008-.971,1.008-2.169" transform="translate(-31.47 -172.66)" fill="#263238"/>
            <ellipse id="Elipse_11574" data-name="Elipse 11574" cx="1.008" cy="2.169" rx="1.008" ry="2.169" transform="translate(49.469 271.407)" fill="none" stroke="#263238" stroke-linecap="round" stroke-linejoin="round" stroke-width="1"/>
            <path id="Trazado_874131" data-name="Trazado 874131" d="M69.742,408.574V377.48H65.485V408.7l-21.011,8.31V419.1h3.053v-1.768l20.248-4.178,20.248,4.178V419.1h3.053v-2.089Z" transform="translate(-17.292 -146.77)" fill="#263238"/>
            <path id="Trazado_874132" data-name="Trazado 874132" d="M69.742,408.574V377.48H65.485V408.7l-21.011,8.31V419.1h3.053v-1.768l20.248-4.178,20.248,4.178V419.1h3.053v-2.089Z" transform="translate(-17.292 -146.77)" fill="none" stroke="#263238" stroke-linecap="round" stroke-linejoin="round" stroke-width="1"/>
            <path id="Trazado_874133" data-name="Trazado 874133" d="M80.555,439.147h2.13l.456-10.094H80.1Z" transform="translate(-31.143 -166.822)" fill="#263238"/>
            <path id="Trazado_874134" data-name="Trazado 874134" d="M80.555,439.147h2.13l.456-10.094H80.1Z" transform="translate(-31.143 -166.822)" fill="none" stroke="#263238" stroke-linecap="round" stroke-linejoin="round" stroke-width="1"/>
            <rect id="Rectángulo_401888" data-name="Rectángulo 401888" width="10.826" height="6.428" transform="translate(44.903 229.526)" fill="#263238"/>
            <rect id="Rectángulo_401889" data-name="Rectángulo 401889" width="10.826" height="6.428" transform="translate(44.903 229.526)" fill="none" stroke="#263238" stroke-linecap="round" stroke-linejoin="round" stroke-width="1"/>
            <path id="Trazado_874135" data-name="Trazado 874135" d="M84.959,374.143H53.281a3.614,3.614,0,0,1-3.614-3.613v-1.062a3.614,3.614,0,0,1,3.614-3.614H84.959a3.614,3.614,0,0,1,3.613,3.614v1.062a3.613,3.613,0,0,1-3.613,3.613" transform="translate(-19.311 -142.25)" fill="#939393"/>
            <path id="Rectángulo_401890" data-name="Rectángulo 401890" d="M4.144,0H34.761a4.144,4.144,0,0,1,4.144,4.144v0a4.144,4.144,0,0,1-4.144,4.144H4.144A4.144,4.144,0,0,1,0,4.145v0A4.144,4.144,0,0,1,4.144,0Z" transform="translate(30.356 223.605)" fill="none" stroke="#263238" stroke-linecap="round" stroke-linejoin="round" stroke-width="1"/>
            <path id="Trazado_874136" data-name="Trazado 874136" d="M153.772,397.3,157,402.089l3.829-.24s5.614.071,6.571-.169,1.316.6.838,1.556-4.647,3.945-6.8,5.261a52.843,52.843,0,0,1-7.427,3.523c-.6.12-1.316-1.077-2.633-4.786a41.758,41.758,0,0,0-3.709-7.419Z" transform="translate(-57.416 -154.477)" fill="#fff"/>
            <path id="Trazado_874137" data-name="Trazado 874137" d="M153.772,397.3,157,402.089l3.829-.24s5.614.071,6.571-.169,1.316.6.838,1.556-4.647,3.945-6.8,5.261a52.843,52.843,0,0,1-7.427,3.523c-.6.12-1.316-1.077-2.633-4.786a41.758,41.758,0,0,0-3.709-7.419Z" transform="translate(-57.416 -154.477)" fill="none" stroke="#263238" stroke-linecap="round" stroke-linejoin="round" stroke-width="1"/>
            <path id="Trazado_874138" data-name="Trazado 874138" d="M170.6,406c.479-.957.12-1.8-.837-1.555s-6.571.168-6.571.168l-3.829.24a10.047,10.047,0,0,0,.6,3.231s-5.385,1.316-6.222,1.915c1.316,3.709,2.034,4.906,2.632,4.787a52.765,52.765,0,0,0,7.428-3.524c2.154-1.316,6.323-4.3,6.8-5.261" transform="translate(-59.776 -157.237)" fill="#fff"/>
            <path id="Trazado_874139" data-name="Trazado 874139" d="M170.6,406c.479-.957.12-1.8-.837-1.555s-6.571.168-6.571.168l-3.829.24a10.047,10.047,0,0,0,.6,3.231s-5.385,1.316-6.222,1.915c1.316,3.709,2.034,4.906,2.632,4.787a52.765,52.765,0,0,0,7.428-3.524C165.953,409.941,170.122,406.953,170.6,406Z" transform="translate(-59.776 -157.237)" fill="none" stroke="#263238" stroke-linecap="round" stroke-linejoin="round" stroke-width="1"/>
            <path id="Trazado_874140" data-name="Trazado 874140" d="M171.326,404.547a24.58,24.58,0,0,1-4.355,3.473,71.913,71.913,0,0,1-10.938,5.513c.508,1.01.888,1.372,1.23,1.3a52.8,52.8,0,0,0,7.428-3.523c2.154-1.316,6.323-4.3,6.8-5.261.339-.678.251-1.288-.166-1.506" transform="translate(-60.668 -157.294)" fill="#93fdf3"/>
            <path id="Trazado_874141" data-name="Trazado 874141" d="M171.326,404.547a24.58,24.58,0,0,1-4.355,3.473,71.913,71.913,0,0,1-10.938,5.513c.508,1.01.888,1.372,1.23,1.3a52.8,52.8,0,0,0,7.428-3.523c2.154-1.316,6.323-4.3,6.8-5.261C171.832,405.375,171.743,404.765,171.326,404.547Z" transform="translate(-60.668 -157.294)" fill="none" stroke="#263238" stroke-linecap="round" stroke-linejoin="round" stroke-width="1"/>
            <path id="Trazado_874142" data-name="Trazado 874142" d="M135.908,334.56c.449-1,4.025,12.079,6.892,24.559,1.933,8.417,3.629,13.466,3.629,13.466a30.785,30.785,0,0,1-4.415,3.184c-1.675.838-4.547,1.915-4.547,1.915s-4.278-9.3-6.672-13.969-3.063-7.789-4.978-11.259-2.4-9.72-2.4-9.72-1.2-5.983,3.351-7.539,7.824-2.313,9.141-.637" transform="translate(-47.931 -129.714)" fill="#93fdf3"/>
            <path id="Trazado_874143" data-name="Trazado 874143" d="M135.908,334.56c.449-1,4.025,12.079,6.892,24.559,1.933,8.417,3.629,13.466,3.629,13.466a30.785,30.785,0,0,1-4.415,3.184c-1.675.838-4.547,1.915-4.547,1.915s-4.278-9.3-6.672-13.969-3.063-7.789-4.978-11.259-2.4-9.72-2.4-9.72-1.2-5.983,3.351-7.539S134.591,332.885,135.908,334.56Z" transform="translate(-47.931 -129.714)" fill="none" stroke="#263238" stroke-linecap="round" stroke-linejoin="round" stroke-width="1"/>
            <path id="Trazado_874144" data-name="Trazado 874144" d="M121.276,417.439s-.826,5.13-1.384,7-2.1,5.276-1.615,6.124,3.038,1.714,4.341,1.821,2.969,2.238,5.394,3.119,5.624.641,5.55,0-7.174-8.464-7.522-10.36.9-7.848.9-7.848Z" transform="translate(-45.952 -162.253)" fill="#fff"/>
            <path id="Trazado_874145" data-name="Trazado 874145" d="M121.276,417.439s-.826,5.13-1.384,7-2.1,5.276-1.615,6.124,3.038,1.714,4.341,1.821,2.969,2.238,5.394,3.119,5.624.641,5.55,0-7.174-8.464-7.522-10.36.9-7.848.9-7.848Z" transform="translate(-45.952 -162.253)" fill="none" stroke="#263238" stroke-linecap="round" stroke-linejoin="round" stroke-width="1"/>
            <path id="Trazado_874146" data-name="Trazado 874146" d="M125.154,431.406l-.2.539a33.006,33.006,0,0,1-5.54-1.115c-.66,1.835-1.521,4.064-1.142,4.727.485.848,3.038,1.714,4.341,1.821s2.969,2.238,5.394,3.119,5.624.641,5.55,0-7.174-8.463-7.522-10.359a4.967,4.967,0,0,0-.886,1.264" transform="translate(-45.952 -167.246)" fill="#fff"/>
            <path id="Trazado_874147" data-name="Trazado 874147" d="M125.154,431.406l-.2.539a33.006,33.006,0,0,1-5.54-1.115c-.66,1.835-1.521,4.064-1.142,4.727.485.848,3.038,1.714,4.341,1.821s2.969,2.238,5.394,3.119,5.624.641,5.55,0-7.174-8.463-7.522-10.359A4.967,4.967,0,0,0,125.154,431.406Z" transform="translate(-45.952 -167.246)" fill="none" stroke="#263238" stroke-linecap="round" stroke-linejoin="round" stroke-width="1"/>
            <path id="Trazado_874148" data-name="Trazado 874148" d="M127.865,442.02c-1.916-.94-3.651-2.547-6.2-3.413-1.663-.565-2.817-1.022-3.422-1.273a1.668,1.668,0,0,0,.037,1.019c.485.847,3.038,1.714,4.341,1.821s2.969,2.238,5.394,3.119c2.312.84,5.321.659,5.533.089a24.571,24.571,0,0,1-5.68-1.362" transform="translate(-45.952 -170.042)" fill="#93fdf3"/>
            <path id="Trazado_874149" data-name="Trazado 874149" d="M127.865,442.02c-1.916-.94-3.651-2.547-6.2-3.413-1.663-.565-2.817-1.022-3.422-1.273a1.668,1.668,0,0,0,.037,1.019c.485.847,3.038,1.714,4.341,1.821s2.969,2.238,5.394,3.119c2.312.84,5.321.659,5.533.089A24.571,24.571,0,0,1,127.865,442.02Z" transform="translate(-45.952 -170.042)" fill="none" stroke="#263238" stroke-linecap="round" stroke-linejoin="round" stroke-width="1"/>
            <path id="Trazado_874150" data-name="Trazado 874150" d="M108.715,354.459s9.453,1.077,10.171,5.864-.958,34.583-.958,34.583a20.775,20.775,0,0,1-4.188-.24c-1.915-.359-5.146-1.077-5.146-1.077s-.479-10.171-1.076-14.24-1.077-15.915-1.077-15.915-15.8-1.316-17.232-2.274,19.505-6.7,19.505-6.7" transform="translate(-34.659 -137.819)" fill="#93fdf3"/>
            <path id="Trazado_874151" data-name="Trazado 874151" d="M108.715,354.459s9.453,1.077,10.171,5.864-.958,34.583-.958,34.583a20.775,20.775,0,0,1-4.188-.24c-1.915-.359-5.146-1.077-5.146-1.077s-.479-10.171-1.076-14.24-1.077-15.915-1.077-15.915-15.8-1.316-17.232-2.274S108.715,354.459,108.715,354.459Z" transform="translate(-34.659 -137.819)" fill="none" stroke="#263238" stroke-linecap="round" stroke-linejoin="round" stroke-width="1"/>
            <path id="Trazado_874152" data-name="Trazado 874152" d="M109.845,341.537s-23.328,9.241-28.712,11.036a25.429,25.429,0,0,1-14.958.12c-3.71-1.2-5.529-5.96-5.529-5.96a2.3,2.3,0,0,1-.454-2.178c.479-1.077,8.137-7.9,12.8-9.094s13.108-.674,13.108-.674,20.391-5.216,22.9-4.858,4.51,9.3,4.869,10.5" transform="translate(-23.35 -128.275)" fill="#93fdf3"/>
            <path id="Trazado_874153" data-name="Trazado 874153" d="M109.845,341.537s-23.328,9.241-28.712,11.036a25.429,25.429,0,0,1-14.958.12c-3.71-1.2-5.529-5.96-5.529-5.96a2.3,2.3,0,0,1-.454-2.178c.479-1.077,8.137-7.9,12.8-9.094s13.108-.674,13.108-.674,20.391-5.216,22.9-4.858,4.51,9.3,4.869,10.5" transform="translate(-23.35 -128.275)" fill="none" stroke="#263238" stroke-linecap="round" stroke-linejoin="round" stroke-width="1"/>
            <path id="Trazado_874154" data-name="Trazado 874154" d="M69.872,353.024s1.675-6.581,6.1-9.334" transform="translate(-27.167 -133.632)" fill="none" stroke="#263238" stroke-linecap="round" stroke-linejoin="round" stroke-width="1"/>
            <path id="Trazado_874155" data-name="Trazado 874155" d="M68.3,349.586s1.8-2.752,4.188-3.351" transform="translate(-26.558 -134.622)" fill="none" stroke="#263238" stroke-linecap="round" stroke-linejoin="round" stroke-width="1"/>
            <path id="Trazado_874156" data-name="Trazado 874156" d="M97.313,279.169a23.5,23.5,0,0,1,3.583,6.478c1.93,4.686,5.06,18.873,5.06,18.873a9.05,9.05,0,0,1-2.826.659c-1.24,0-2.89.167-3.579-.659s-2.652-7.3-2.652-7.3-.964-7.856-1.24-11.853-1.516-4.824-.276-6.064,1.93-.138,1.93-.138" transform="translate(-36.876 -108.369)" fill="#fff"/>
            <path id="Trazado_874157" data-name="Trazado 874157" d="M97.313,279.169a23.5,23.5,0,0,1,3.583,6.478c1.93,4.686,5.06,18.873,5.06,18.873a9.05,9.05,0,0,1-2.826.659c-1.24,0-2.89.167-3.579-.659s-2.652-7.3-2.652-7.3-.964-7.856-1.24-11.853-1.516-4.824-.276-6.064S97.313,279.169,97.313,279.169Z" transform="translate(-36.876 -108.369)" fill="none" stroke="#263238" stroke-linecap="round" stroke-linejoin="round" stroke-width="1"/>
            <path id="Trazado_874158" data-name="Trazado 874158" d="M78.045,273.207s3.555.863,4.729,2.821.652,6.436.652,6.436,3.133,9.107,2.546,11.26a21.348,21.348,0,0,1-2.937,5.287s.2,7.05.783,8.421a36.054,36.054,0,0,1,1.273,4.308s-1.664,1.175-7.148,1.958-9.987,1.175-11.848,2.644-5.973,7.05-6.463,7.344-.884-.8-1.276-1.587-.3-3.141.585-6.666,1.345-13.761.117-20.232c-1.331-7.014-2.069-8.029-1.286-12.63S69.429,270.955,71,270.661s7.05,2.546,7.05,2.546" transform="translate(-22.338 -105.229)" fill="#fff"/>
            <path id="Trazado_874159" data-name="Trazado 874159" d="M78.045,273.207s3.555.863,4.729,2.821.652,6.436.652,6.436,3.133,9.107,2.546,11.26a21.348,21.348,0,0,1-2.937,5.287s.2,7.05.783,8.421a36.054,36.054,0,0,1,1.273,4.308s-1.664,1.175-7.148,1.958-9.987,1.175-11.848,2.644-5.973,7.05-6.463,7.344-.884-.8-1.276-1.587-.3-3.141.585-6.666,1.345-13.761.117-20.232c-1.331-7.014-2.069-8.029-1.286-12.63S69.429,270.955,71,270.661,78.045,273.207,78.045,273.207Z" transform="translate(-22.338 -105.229)" fill="none" stroke="#263238" stroke-linecap="round" stroke-linejoin="round" stroke-width="1"/>
            <path id="Trazado_874160" data-name="Trazado 874160" d="M62.823,344.833s2.992-3.47,4.427-4.069,11.488-.6,11.488-.6" transform="translate(-24.427 -132.262)" fill="none" stroke="#fff" stroke-linecap="round" stroke-linejoin="round" stroke-width="1"/>
            <path id="Trazado_874161" data-name="Trazado 874161" d="M66.347,339.729a11.838,11.838,0,0,1,2.992-1.2,30.642,30.642,0,0,1,4.786,0" transform="translate(-25.797 -131.585)" fill="none" stroke="#fff" stroke-linecap="round" stroke-linejoin="round" stroke-width="1"/>
            <path id="Trazado_874162" data-name="Trazado 874162" d="M74.962,317.4a26.168,26.168,0,0,0,8.736-5.624" transform="translate(-29.146 -121.224)" fill="none" stroke="#263238" stroke-linecap="round" stroke-linejoin="round" stroke-width="1"/>
            <path id="Trazado_874163" data-name="Trazado 874163" d="M84,234.61s1.322,2.82,1.763,3.7.264,2.379.617,3.613,2.379,2.027,2.379,2.732a6.59,6.59,0,0,1-.793,2.115s-.441,5.463-1.145,6.081-3.613.793-3.613.793l-.246,5.231,1.665.98a67.07,67.07,0,0,1,0,7.833c-.294,2.057-1.21,2.489-3.823.935a26.141,26.141,0,0,1-7.046-7.3c-.392-.98.813-4.418-.949-10.058s2.115-10.751,4.671-13.13S81.269,234.17,84,234.61" transform="translate(-28.137 -91.191)" fill="#fff"/>
            <path id="Trazado_874164" data-name="Trazado 874164" d="M84,234.61s1.322,2.82,1.763,3.7.264,2.379.617,3.613,2.379,2.027,2.379,2.732a6.59,6.59,0,0,1-.793,2.115s-.441,5.463-1.145,6.081-3.613.793-3.613.793l-.246,5.231,1.665.98a67.07,67.07,0,0,1,0,7.833c-.294,2.057-1.21,2.489-3.823.935a26.141,26.141,0,0,1-7.046-7.3c-.392-.98.813-4.418-.949-10.058s2.115-10.751,4.671-13.13S81.269,234.17,84,234.61Z" transform="translate(-28.137 -91.191)" fill="none" stroke="#263238" stroke-linecap="round" stroke-linejoin="round" stroke-width="1"/>
            <path id="Trazado_874165" data-name="Trazado 874165" d="M74.32,232.924c-.088-1.586-.265-2.2-3.525-2.555s-10.222-.617-12.954,4.23-2.732,15.421-2.732,15.421-7.09,4.428-7.579,7.953,1.86,6.854,5.581,8.029c.07.023.145.04.218.058a11.138,11.138,0,0,1,2.033-4.515c2.117-2.54,3.952-2.258,6.634-2.964,2.724-.717,4.39-.888,4.786-3.95a32.079,32.079,0,0,0,.048-7.784,5.44,5.44,0,0,1,1.057-2.643s2.732.7,4.495-4.054,2.027-5.64,1.939-7.226" transform="translate(-18.455 -89.505)" fill="#263238"/>
            <path id="Trazado_874166" data-name="Trazado 874166" d="M74.32,232.924c-.088-1.586-.265-2.2-3.525-2.555s-10.222-.617-12.954,4.23-2.732,15.421-2.732,15.421-7.09,4.428-7.579,7.953,1.86,6.854,5.581,8.029c.07.023.145.04.218.058a11.138,11.138,0,0,1,2.033-4.515c2.117-2.54,3.952-2.258,6.634-2.964,2.724-.717,4.39-.888,4.786-3.95a32.079,32.079,0,0,0,.048-7.784,5.44,5.44,0,0,1,1.057-2.643s2.732.7,4.495-4.054S74.408,234.51,74.32,232.924Z" transform="translate(-18.455 -89.505)" fill="none" stroke="#263238" stroke-linecap="round" stroke-linejoin="round" stroke-width="1"/>
            <path id="Trazado_874167" data-name="Trazado 874167" d="M80.239,253.471s-.881-4.054-3.173-2.467,1.146,6.081,1.675,6.169a2.883,2.883,0,0,0,1.41-.441" transform="translate(-29.662 -97.451)" fill="#fff"/>
            <path id="Trazado_874168" data-name="Trazado 874168" d="M80.239,253.471s-.881-4.054-3.173-2.467,1.146,6.081,1.675,6.169a2.883,2.883,0,0,0,1.41-.441" transform="translate(-29.662 -97.451)" fill="none" stroke="#263238" stroke-linecap="round" stroke-linejoin="round" stroke-width="1"/>
            <path id="Trazado_874169" data-name="Trazado 874169" d="M88.369,265.577l-2.732-.353,2.572.452Z" transform="translate(-33.297 -103.123)" fill="#263238"/>
            <path id="Trazado_874170" data-name="Trazado 874170" d="M88.369,265.577l-2.732-.353,2.572.452Z" transform="translate(-33.297 -103.123)" fill="none" stroke="#263238" stroke-linecap="round" stroke-linejoin="round" stroke-width="1"/>
            <path id="Trazado_874171" data-name="Trazado 874171" d="M94.217,247.645c.115.6,0,1.123-.268,1.173s-.569-.393-.684-.99,0-1.123.268-1.173.569.393.684.99" transform="translate(-36.246 -95.901)" fill="#263238"/>
            <line id="Línea_3272" data-name="Línea 3272" x1="0.917" y1="1.143" transform="translate(43.022 178.658)" fill="#fff"/>
            <line id="Línea_3273" data-name="Línea 3273" x1="0.917" y1="1.143" transform="translate(43.022 178.658)" fill="none" stroke="#263238" stroke-linecap="round" stroke-linejoin="round" stroke-width="1"/>
            <path id="Trazado_874172" data-name="Trazado 874172" d="M61.619,276.422a7.625,7.625,0,0,0-6.008,3.534c-2.591,3.652-1.649,8.245-.942,10.13s6.361,12.958,7.185,14.371a13.286,13.286,0,0,0,4.476,3.652c.707.235,3.063-12.722,2.827-13.9s-5.654-9.424-5.654-9.424" transform="translate(-20.959 -107.477)" fill="#fff"/>
            <path id="Trazado_874173" data-name="Trazado 874173" d="M61.619,276.422a7.625,7.625,0,0,0-6.008,3.534c-2.591,3.652-1.649,8.245-.942,10.13s6.361,12.958,7.185,14.371a13.286,13.286,0,0,0,4.476,3.652c.707.235,3.063-12.722,2.827-13.9s-5.654-9.424-5.654-9.424" transform="translate(-20.959 -107.477)" fill="none" stroke="#263238" stroke-linecap="round" stroke-linejoin="round" stroke-width="1"/>
            <path id="Trazado_874174" data-name="Trazado 874174" d="M68.045,327.161a19.14,19.14,0,0,0-3.087-.134c-.868.122-.671.269-.2.738s1.477.268,1.477.268Z" transform="translate(-25.022 -127.14)" fill="none" stroke="#263238" stroke-linecap="round" stroke-linejoin="round" stroke-width="1"/>
            <path id="Trazado_874175" data-name="Trazado 874175" d="M92.807,315.7c.93.864,2.989,6.51-1,7.307s-14.481-.266-14.88.133-3.72,2.989-4.451,3.52a12.964,12.964,0,0,1-2.392,1.129s-1.527,1.2-1.926.93.4-.93.4-.93a10.867,10.867,0,0,1-2.126,1c-.532.067-.465-.73-.465-.73a1.35,1.35,0,0,1-.8.133,1.221,1.221,0,0,1,.265-1.129c.465-.531,2.724-2.723,2.724-2.723a7.092,7.092,0,0,0-1.528.664c-.133.2-.93.731-1.4,1.129s-.864.332-1,0,.588-1.452,1.354-2.219a16.846,16.846,0,0,1,5.5-2.3c.766,0,7.285-2.044,7.285-2.044s11.971-4.131,12.3-4.264" transform="translate(-24.972 -122.596)" fill="#fff"/>
            <path id="Trazado_874176" data-name="Trazado 874176" d="M92.807,315.7c.93.864,2.989,6.51-1,7.307s-14.481-.266-14.88.133-3.72,2.989-4.451,3.52a12.964,12.964,0,0,1-2.392,1.129s-1.527,1.2-1.926.93.4-.93.4-.93a10.867,10.867,0,0,1-2.126,1c-.532.067-.465-.73-.465-.73a1.35,1.35,0,0,1-.8.133,1.221,1.221,0,0,1,.265-1.129c.465-.531,2.724-2.723,2.724-2.723a7.092,7.092,0,0,0-1.528.664c-.133.2-.93.731-1.4,1.129s-.864.332-1,0,.588-1.452,1.354-2.219a16.846,16.846,0,0,1,5.5-2.3c.766,0,7.285-2.044,7.285-2.044s11.971-4.131,12.3-4.264" transform="translate(-24.972 -122.596)" fill="none" stroke="#263238" stroke-linecap="round" stroke-linejoin="round" stroke-width="1"/>
            <path id="Trazado_874177" data-name="Trazado 874177" d="M93.829,320.009a4.377,4.377,0,0,1-.377,4.8" transform="translate(-36.336 -124.424)" fill="none" stroke="#263238" stroke-linecap="round" stroke-linejoin="round" stroke-width="1"/>
            <path id="Trazado_874178" data-name="Trazado 874178" d="M67.079,334.162l2.495-2.088L70.916,331" transform="translate(-26.081 -128.698)" fill="none" stroke="#263238" stroke-linecap="round" stroke-linejoin="round" stroke-width="1"/>
            <path id="Trazado_874179" data-name="Trazado 874179" d="M71.318,334.665s1.985-1.621,2.186-1.689" transform="translate(-27.73 -129.466)" fill="none" stroke="#263238" stroke-linecap="round" stroke-linejoin="round" stroke-width="1"/>
            <path id="Trazado_874180" data-name="Trazado 874180" d="M66.914,294.183c.112,2.418-.612,5.908,2.927,8.137,1.7,1.071,4.226,2.083,5.526-.714s2.194-27.884,2.194-27.884l1.488-.406c1.488-.406,2.308-2.858,2.308-2.858a1.141,1.141,0,0,0-.009,1.505c.676.676,3.381-2.164,3.517-2.976s-1.758-3.381-1.758-3.381a1.426,1.426,0,0,0,.676-1.488c-.135-1.082-3.88-.025-3.88-.025L77.7,266.959s-3.246,4.193-3.517,5.275c-.224.9-3.316,10.648-5.1,14.978" transform="translate(-26.017 -102.504)" fill="#fff"/>
            <path id="Trazado_874181" data-name="Trazado 874181" d="M66.914,294.183c.112,2.418-.612,5.908,2.927,8.137,1.7,1.071,4.226,2.083,5.526-.714s2.194-27.884,2.194-27.884l1.488-.406c1.488-.406,2.308-2.858,2.308-2.858a1.141,1.141,0,0,0-.009,1.505c.676.676,3.381-2.164,3.517-2.976s-1.758-3.381-1.758-3.381a1.426,1.426,0,0,0,.676-1.488c-.135-1.082-3.88-.025-3.88-.025L77.7,266.959s-3.246,4.193-3.517,5.275c-.224.9-3.316,10.648-5.1,14.978" transform="translate(-26.017 -102.504)" fill="none" stroke="#263238" stroke-linecap="round" stroke-linejoin="round" stroke-width="1"/>
            <line id="Línea_3274" data-name="Línea 3274" x2="4.898" y2="1.884" transform="translate(45.907 177.028)" fill="none" stroke="#263238" stroke-linecap="round" stroke-linejoin="round" stroke-width="1"/>
          </g>
        </g>
      </g>
    </g>
  </g>
</svg>
